<svg xmlns="http://www.w3.org/2000/svg" width="20" height="20" viewBox="0 0 20 20"><defs><style>.a{fill:#1f2d43;}</style></defs><g transform="translate(0)"><path class="a" d="M5.221,0H2.984A2.984,2.984,0,0,0,0,2.984V5.221A2.984,2.984,0,0,0,2.984,8.2H5.221A2.984,2.984,0,0,0,8.2,5.221V2.984A2.984,2.984,0,0,0,5.221,0ZM6.713,5.221A1.492,1.492,0,0,1,5.221,6.713H2.984A1.492,1.492,0,0,1,1.492,5.221V2.984A1.492,1.492,0,0,1,2.984,1.492H5.221A1.492,1.492,0,0,1,6.713,2.984Z" transform="translate(0)"/><path class="a" d="M5.221,13H2.984A2.984,2.984,0,0,0,0,15.984v2.238A2.984,2.984,0,0,0,2.984,21.2H5.221A2.984,2.984,0,0,0,8.2,18.221V15.984A2.984,2.984,0,0,0,5.221,13Zm1.492,5.221a1.492,1.492,0,0,1-1.492,1.492H2.984a1.492,1.492,0,0,1-1.492-1.492V15.984a1.492,1.492,0,0,1,1.492-1.492H5.221a1.492,1.492,0,0,1,1.492,1.492Z" transform="translate(0 -1.205)"/><path class="a" d="M20.186,15.891,18.475,17.8V2.2l1.71,1.909a.692.692,0,0,0,1.055,0,.9.9,0,0,0,0-1.179L19.311.779a2.075,2.075,0,0,0-3.163,0l-1.93,2.154a.9.9,0,0,0,0,1.179.692.692,0,0,0,1.055,0L16.984,2.2V17.8l-1.71-1.909a.692.692,0,0,0-1.055,0,.9.9,0,0,0,0,1.179l1.93,2.154a2.075,2.075,0,0,0,3.163,0l1.93-2.154a.9.9,0,0,0,0-1.179.692.692,0,0,0-1.055,0Z" transform="translate(-1.459 -0.012)"/></g></svg>