<svg xmlns="http://www.w3.org/2000/svg" width="40" height="40" viewBox="0 0 40 40"><defs><style>.a{fill:#4e73f8;}.b{fill:#fff;}</style></defs><rect class="a" width="40" height="40" rx="8"/><path class="b" d="M15,22a1,1,0,0,1-.949-.683l-2.843-8.526L2.684,9.949a1,1,0,0,1,0-1.9l18-6a1.03,1.03,0,0,1,.3-.049.258.258,0,0,1,.036,0l.03,0a1.011,1.011,0,0,1,.274.054.584.584,0,0,1,.089.035.952.952,0,0,1,.3.2.976.976,0,0,1,.2.293.928.928,0,0,1,.034.091.927.927,0,0,1,.053.27.3.3,0,0,0,0,.031.223.223,0,0,1,0,.039,1.015,1.015,0,0,1-.048.3l-6,18A1,1,0,0,1,15,22ZM18.711,6.7h0l-5.568,5.568L15,17.838,18.712,6.7ZM17.3,5.288,6.162,9l5.567,1.856Z" transform="translate(8 8)"/></svg>