<svg id="_Outline_bell" data-name=" Outline / bell" xmlns="http://www.w3.org/2000/svg" width="24" height="24" viewBox="0 0 24 24">
  <path id="Union" d="M12,22a3.845,3.845,0,0,1-4-3.659V18H4.637a1.636,1.636,0,0,1-1.158-2.792l1.8-1.8V8.727A6.73,6.73,0,0,1,12.9,2.06a6.857,6.857,0,0,1,5.82,6.877V13.4l1.8,1.8A1.637,1.637,0,0,1,19.363,18H16v.341A3.845,3.845,0,0,1,12,22Zm-2-4v.341A1.879,1.879,0,0,0,12,20a1.879,1.879,0,0,0,2-1.659V18ZM11.993,4A4.627,4.627,0,0,0,8.9,5.171a4.728,4.728,0,0,0-1.62,3.556V13.4a1.987,1.987,0,0,1-.587,1.414L5.514,16H18.486L17.3,14.817a1.985,1.985,0,0,1-.585-1.413V8.937a4.854,4.854,0,0,0-4.082-4.9A4.969,4.969,0,0,0,11.993,4Z" fill="#757d8a"/>
</svg>
