<svg width="566" height="374" viewBox="0 0 566 374" fill="none" xmlns="http://www.w3.org/2000/svg">
<path d="M114.987 107.916H6.53234C4.21955 107.916 2.34277 106.019 2.34277 103.68C2.34277 101.341 4.21955 99.4434 6.53234 99.4434H114.997C117.309 99.4434 119.186 101.341 119.186 103.68C119.177 106.019 117.3 107.916 114.987 107.916Z" fill="#2196F6"/>
<path d="M114.987 107.916H6.53234C4.21955 107.916 2.34277 106.019 2.34277 103.68C2.34277 101.341 4.21955 99.4434 6.53234 99.4434H114.997C117.309 99.4434 119.186 101.341 119.186 103.68C119.177 106.019 117.3 107.916 114.987 107.916Z" fill="white" fill-opacity="0.75"/>
<path d="M54.8258 163.843H42.3614C39.0818 163.843 36.4277 161.16 36.4277 157.843V146.006C36.4277 142.69 39.0818 140.006 42.3614 140.006H54.8258C58.1054 140.006 60.7594 142.69 60.7594 146.006V157.843C60.7594 161.16 58.1054 163.843 54.8258 163.843Z" fill="#2196F6"/>
<path d="M417.516 374.001H410.71C408.919 374.001 407.469 372.534 407.469 370.732V364.272C407.469 362.461 408.919 360.994 410.71 360.994H417.516C419.308 360.994 420.748 362.461 420.748 364.272V370.732C420.748 372.534 419.298 374.001 417.516 374.001Z" fill="#2196F6"/>
<path d="M417.516 374.001H410.71C408.919 374.001 407.469 372.534 407.469 370.732V364.272C407.469 362.461 408.919 360.994 410.71 360.994H417.516C419.308 360.994 420.748 362.461 420.748 364.272V370.732C420.748 372.534 419.298 374.001 417.516 374.001Z" fill="white" fill-opacity="0.5"/>
<path d="M539.526 98.2548H532.72C530.929 98.2548 529.488 96.7884 529.488 94.9864V88.5262C529.488 86.7147 530.938 85.2578 532.72 85.2578H539.526C541.318 85.2578 542.758 86.7243 542.758 88.5262V94.9864C542.758 96.7884 541.308 98.2548 539.526 98.2548Z" fill="#2196F6"/>
<path d="M63.8581 297.773L29.5075 315.764L39.4032 320.614L27.1094 335.471L36.7018 343.407L48.569 327.458L56.5311 336.084L63.8581 297.773Z" fill="white"/>
<path d="M183.461 372.631H143.328C140.352 372.631 137.944 370.196 137.944 367.186C137.944 364.177 140.352 361.742 143.328 361.742H183.461C186.437 361.742 188.845 364.177 188.845 367.186C188.845 370.196 186.437 372.631 183.461 372.631Z" fill="#2A72ED"/>
<path d="M183.461 372.631H143.328C140.352 372.631 137.944 370.196 137.944 367.186C137.944 364.177 140.352 361.742 143.328 361.742H183.461C186.437 361.742 188.845 364.177 188.845 367.186C188.845 370.196 186.437 372.631 183.461 372.631Z" fill="white" fill-opacity="0.75"/>
<path d="M441.041 334.079H117.809C114.065 334.079 111.032 331.012 111.032 327.226V54.9879C111.032 51.2019 114.065 48.1348 117.809 48.1348H441.041C444.785 48.1348 447.818 51.2019 447.818 54.9879V327.226C447.818 331.012 444.785 334.079 441.041 334.079Z" fill="#2A72ED"/>
<path d="M441.041 334.079H117.809C114.065 334.079 111.032 331.012 111.032 327.226V54.9879C111.032 51.2019 114.065 48.1348 117.809 48.1348H441.041C444.785 48.1348 447.818 51.2019 447.818 54.9879V327.226C447.818 331.012 444.785 334.079 441.041 334.079Z" fill="white" fill-opacity="0.9"/>
<path d="M111.032 82.5449H447.818" stroke="white" stroke-width="1.9411" stroke-miterlimit="10"/>
<path d="M441.041 334.079H117.809C114.065 334.079 111.032 331.012 111.032 327.226V54.9879C111.032 51.2019 114.065 48.1348 117.809 48.1348H441.041C444.785 48.1348 447.818 51.2019 447.818 54.9879V327.226C447.818 331.012 444.785 334.079 441.041 334.079Z" stroke="white" stroke-width="1.9411" stroke-miterlimit="10"/>
<path d="M139.507 70.4966C142.129 70.4966 144.255 68.3467 144.255 65.6946C144.255 63.0425 142.129 60.8926 139.507 60.8926C136.884 60.8926 134.758 63.0425 134.758 65.6946C134.758 68.3467 136.884 70.4966 139.507 70.4966Z" stroke="white" stroke-width="1.9411" stroke-miterlimit="10"/>
<path d="M157.954 70.4966C160.577 70.4966 162.703 68.3467 162.703 65.6946C162.703 63.0425 160.577 60.8926 157.954 60.8926C155.331 60.8926 153.205 63.0425 153.205 65.6946C153.205 68.3467 155.331 70.4966 157.954 70.4966Z" stroke="white" stroke-width="1.9411" stroke-miterlimit="10"/>
<path d="M176.407 70.4966C179.03 70.4966 181.156 68.3467 181.156 65.6946C181.156 63.0425 179.03 60.8926 176.407 60.8926C173.784 60.8926 171.658 63.0425 171.658 65.6946C171.658 68.3467 173.784 70.4966 176.407 70.4966Z" stroke="white" stroke-width="1.9411" stroke-miterlimit="10"/>
<path d="M180.948 282.541H9.81041C4.38862 282.541 0 278.103 0 272.62V208.469C0 202.987 4.3981 198.549 9.81041 198.549H180.948C186.369 198.549 190.758 202.996 190.758 208.469V272.62C190.767 278.103 186.369 282.541 180.948 282.541Z" fill="#2A72ED"/>
<path d="M19.5157 217.796C21.5102 217.796 23.127 216.161 23.127 214.144C23.127 212.127 21.5102 210.492 19.5157 210.492C17.5212 210.492 15.9043 212.127 15.9043 214.144C15.9043 216.161 17.5212 217.796 19.5157 217.796Z" stroke="white" stroke-width="1.4768" stroke-miterlimit="10"/>
<path d="M33.5537 217.796C35.5483 217.796 37.1651 216.161 37.1651 214.144C37.1651 212.127 35.5483 210.492 33.5537 210.492C31.5592 210.492 29.9424 212.127 29.9424 214.144C29.9424 216.161 31.5592 217.796 33.5537 217.796Z" stroke="white" stroke-width="1.4768" stroke-miterlimit="10"/>
<path d="M47.5918 217.796C49.5863 217.796 51.2032 216.161 51.2032 214.144C51.2032 212.127 49.5863 210.492 47.5918 210.492C45.5973 210.492 43.9805 212.127 43.9805 214.144C43.9805 216.161 45.5973 217.796 47.5918 217.796Z" stroke="white" stroke-width="1.4768" stroke-miterlimit="10"/>
<path d="M0 227.965H190.767" stroke="white" stroke-width="1.4768" stroke-miterlimit="10"/>
<path d="M488.521 91.9191H411.743C405.336 91.9191 400.142 86.6666 400.142 80.1872V17.56C400.142 11.0806 405.336 5.82812 411.743 5.82812H488.521C494.928 5.82812 500.122 11.0806 500.122 17.56V80.1872C500.122 86.6666 494.928 91.9191 488.521 91.9191Z" fill="#2A72ED"/>
<path d="M443.82 58.6689C434.294 58.6689 426.54 50.8286 426.54 41.1958C426.54 31.563 434.294 23.7227 443.82 23.7227C453.346 23.7227 461.099 31.563 461.099 41.1958C461.099 50.8286 453.346 58.6689 443.82 58.6689ZM443.82 27.6908C436.455 27.6908 430.455 33.7484 430.455 41.2054C430.455 48.6528 436.445 54.72 443.82 54.72C451.194 54.72 457.185 48.6624 457.185 41.2054C457.185 33.7484 451.194 27.6908 443.82 27.6908Z" fill="white"/>
<path d="M461.139 55.9128L456.038 50.7559L453.27 53.5553L458.372 58.7123L461.139 55.9128Z" fill="white"/>
<path d="M463.745 55.1893L473.84 65.3971C474.911 66.4802 474.911 68.2342 473.84 69.3173L471.593 71.5889C470.522 72.672 468.788 72.672 467.716 71.5889L457.622 61.3811C456.551 60.298 456.551 58.544 457.622 57.4609L459.868 55.1893C460.939 54.1062 462.674 54.1062 463.745 55.1893Z" fill="white"/>
<path d="M81.7245 64.9276H37.6013C30.1985 64.9276 24.208 58.8604 24.208 51.3843V13.5434C24.208 6.0672 30.208 0 37.6013 0H81.7245C89.1178 0 95.1178 6.0672 95.1178 13.5434V51.3843C95.1178 58.87 89.1273 64.9276 81.7245 64.9276Z" fill="#2196F6"/>
<path d="M59.6692 46.4581C51.3848 46.4581 44.6455 39.6433 44.6455 31.2662C44.6455 22.889 51.3848 16.0742 59.6692 16.0742C67.9535 16.0742 74.6928 22.889 74.6928 31.2662C74.6928 39.6433 67.944 46.4581 59.6692 46.4581ZM59.6692 20.6366C53.8777 20.6366 49.1573 25.4003 49.1573 31.2662C49.1573 37.1225 53.8682 41.8958 59.6692 41.8958C65.4701 41.8958 70.181 37.1321 70.181 31.2662C70.1715 25.4003 65.4606 20.6366 59.6692 20.6366Z" fill="white"/>
<path d="M68.5222 20.6367L51.29 41.8863" stroke="white" stroke-width="4.522" stroke-miterlimit="10"/>
<path d="M553.629 293.353H393.781C386.947 293.353 381.411 287.755 381.411 280.844V160.229C381.411 153.318 386.947 147.721 393.781 147.721H553.629C560.463 147.721 565.998 153.318 565.998 160.229V280.844C565.998 287.755 560.453 293.353 553.629 293.353Z" fill="#2196F6"/>
<path d="M448.898 234.423H455.028V241.027H448.898V252H440.668V241.027H419.366L419.129 236.015L440.397 202.69H448.898V234.423ZM427.765 234.423H440.668V213.832L440.059 214.916L427.765 234.423ZM492.62 231.24C492.62 238.329 491.287 243.68 488.623 247.293C485.982 250.882 481.952 252.677 476.533 252.677C471.205 252.677 467.186 250.928 464.476 247.428C461.79 243.906 460.412 238.702 460.345 231.816V223.281C460.345 216.192 461.665 210.875 464.307 207.33C466.971 203.785 471.024 202.013 476.465 202.013C481.861 202.013 485.88 203.74 488.522 207.195C491.186 210.649 492.552 215.819 492.62 222.705V231.24ZM484.39 222.028C484.39 217.4 483.758 214.013 482.493 211.868C481.229 209.701 479.22 208.617 476.465 208.617C473.778 208.617 471.803 209.644 470.539 211.699C469.274 213.731 468.608 216.914 468.54 221.249V232.425C468.54 237.031 469.184 240.463 470.471 242.721C471.758 244.978 473.778 246.107 476.533 246.107C479.174 246.107 481.127 245.069 482.392 242.991C483.656 240.892 484.322 237.618 484.39 233.17V222.028ZM527.739 234.423H533.869V241.027H527.739V252H519.51V241.027H498.207L497.97 236.015L519.239 202.69H527.739V234.423ZM506.606 234.423H519.51V213.832L518.9 214.916L506.606 234.423Z" fill="white"/>
<path d="M400.511 165.011C402.443 165.011 404.009 163.428 404.009 161.474C404.009 159.521 402.443 157.938 400.511 157.938C398.58 157.938 397.014 159.521 397.014 161.474C397.014 163.428 398.58 165.011 400.511 165.011Z" stroke="white" stroke-width="1.4304" stroke-miterlimit="10"/>
<path d="M414.115 165.011C416.046 165.011 417.612 163.428 417.612 161.474C417.612 159.521 416.046 157.938 414.115 157.938C412.183 157.938 410.617 159.521 410.617 161.474C410.617 163.428 412.183 165.011 414.115 165.011Z" stroke="white" stroke-width="1.4304" stroke-miterlimit="10"/>
<path d="M427.715 165.011C429.647 165.011 431.213 163.428 431.213 161.474C431.213 159.521 429.647 157.938 427.715 157.938C425.784 157.938 424.218 159.521 424.218 161.474C424.218 163.428 425.784 165.011 427.715 165.011Z" stroke="white" stroke-width="1.4304" stroke-miterlimit="10"/>
<path d="M381.411 176.236H565.998" stroke="white" stroke-width="1.4304" stroke-miterlimit="10"/>
<path d="M297.022 232.403L296.321 222.789L237.041 225.741V235.019C237.041 235.019 223.705 247.844 218.444 333.197H325.155C325.155 333.187 336.861 257.659 297.022 232.403Z" fill="#2196F6"/>
<path d="M237.03 235.019L297.021 232.402" stroke="#2196F6" stroke-width="1.5516" stroke-miterlimit="10"/>
<path d="M237.03 235.019L297.021 232.402" stroke="black" stroke-opacity="0.25" stroke-width="1.5516" stroke-miterlimit="10"/>
<path d="M249.286 274.365L261.58 279.426L268.158 333.187" stroke="#2196F6" stroke-width="1.5516" stroke-miterlimit="10"/>
<path d="M249.286 274.365L261.58 279.426L268.158 333.187" stroke="black" stroke-opacity="0.25" stroke-width="1.5516" stroke-miterlimit="10"/>
<path d="M172.217 213.818L188.596 159.146L224.624 172.805L207.335 225.167C203.79 235.979 191.572 241.087 181.515 235.94C173.506 231.838 169.582 222.493 172.217 213.818Z" fill="#FEB1A5"/>
<path d="M197.488 129.942C200.729 119.284 212.047 113.447 222.483 117.051C232.625 120.559 238.094 131.668 234.72 141.962L224.625 172.787L188.597 159.128L197.488 129.942Z" fill="white"/>
<path d="M200.036 209.717L158.889 130.824C158.889 130.824 159.827 116.571 136.415 115.718L136.424 115.737C136.102 115.718 135.789 115.689 135.467 115.689H127.638C126.187 115.689 124.86 116.725 124.661 118.182C124.434 119.868 125.6 121.316 127.164 121.517L135.059 122.648L124.32 125.543L122.311 126.29L107.685 116.523C106.519 115.68 104.889 116.073 104.216 117.348C103.685 118.344 103.922 119.59 104.785 120.319C105.685 121.076 107.135 122.341 108.728 123.722L105.496 121.766C104.263 121.019 102.671 121.536 102.102 122.868C101.657 123.913 101.988 125.121 102.908 125.782C103.695 126.348 104.709 127.067 105.789 127.833L104.671 127.393C103.439 126.904 101.988 127.258 101.23 128.361C100.206 129.856 100.823 131.888 102.443 132.568L118.424 139.335C121.183 140.505 123.818 141.233 127.069 140.457L141.315 137.064L173.192 227.295L200.036 209.717Z" fill="#FEB1A5"/>
<path d="M183.144 177.34L190.764 191.938" stroke="#FF8C7A" stroke-width="1.5" stroke-miterlimit="10"/>
<path d="M229.516 116.188L214.217 117.348C214.217 117.348 192.075 147.722 237.032 225.743L296.312 222.79L300.776 138.731L293.459 114.865H266.899L229.516 116.188Z" fill="white"/>
<path d="M212.16 168.072C212.16 168.072 207.752 158.688 210.586 137.908" stroke="#2A72ED" stroke-width="1.5516" stroke-miterlimit="10"/>
<path d="M212.16 168.072C212.16 168.072 207.752 158.688 210.586 137.908" stroke="white" stroke-opacity="0.9" stroke-width="1.5516" stroke-miterlimit="10"/>
<path d="M349.77 202.835L325.145 151.422L291.666 170.601L316.832 219.589C321.998 229.711 334.86 232.826 343.998 226.155C351.287 220.845 353.723 210.992 349.77 202.835Z" fill="#FEB1A5"/>
<path d="M311.865 123.99C307.012 113.974 294.936 109.996 285.182 115.21C275.704 120.271 272.026 132.118 276.945 141.751L291.675 170.61L325.154 151.431L311.865 123.99Z" fill="white"/>
<path d="M291.677 170.601L279.516 146.773" stroke="#2A72ED" stroke-width="1.5516" stroke-miterlimit="10"/>
<path d="M291.677 170.601L279.516 146.773" stroke="white" stroke-opacity="0.9" stroke-width="1.5516" stroke-miterlimit="10"/>
<path d="M401.164 114.874C400.416 113.772 398.956 113.427 397.724 113.906L390.577 116.724L397.297 110.973C398.406 110.024 398.719 108.338 397.885 107.139C396.918 105.759 395.07 105.548 393.847 106.555L387.601 111.644L392.927 104.599C393.809 103.43 393.762 101.714 392.691 100.727C391.458 99.5866 389.61 99.7879 388.615 101.024L378.093 112.066L367.345 109.171L375.24 108.04C376.804 107.839 377.98 106.392 377.743 104.705C377.544 103.248 376.217 102.213 374.766 102.213H366.937C362.311 102.213 357.8 103.842 354.378 106.948C354.321 106.996 354.264 107.024 354.207 107.072C349.402 110.906 351.155 118.756 351.155 118.756L321.667 203.179L350.89 216.291L367.733 125.629L378.492 125.648C379.155 125.715 379.828 125.705 380.501 125.648H380.586H380.577C381.733 125.542 382.88 125.264 383.97 124.804L399.951 119.082C401.572 118.402 402.188 116.37 401.164 114.874Z" fill="#FEB1A5"/>
<path d="M333.126 168.07L326.756 190.556" stroke="#FF8C7A" stroke-width="1.5" stroke-miterlimit="10"/>
<path d="M228.331 46.5446C226.492 47.8193 214.131 51.0686 213.885 53.3402C213.885 53.3402 217.951 69.414 213.79 72.414C202.53 80.5228 198.928 96.424 198.928 96.424C198.928 96.424 228.634 118.92 307.591 95.3026C307.591 95.3026 308.539 85.7369 294.179 78.7975C290.074 76.8134 286.435 73.8326 284.131 69.7686C282.349 66.6248 282.074 65.2925 281.601 62.4745C280.264 54.5862 258.757 25.4388 228.331 46.5446Z" fill="#03062E"/>
<path d="M220.043 80.8771C225.273 80.8771 229.513 76.5901 229.513 71.3018C229.513 66.0135 225.273 61.7266 220.043 61.7266C214.814 61.7266 210.574 66.0135 210.574 71.3018C210.574 76.5901 214.814 80.8771 220.043 80.8771Z" fill="#FF9F91"/>
<path d="M233.77 94.0948L235.078 114.923C235.523 122.236 238.48 127.22 245.599 126.722C251.675 126.29 258.897 121.373 259.229 115.229L255.608 82.5547L233.77 94.0948Z" fill="#FEB1A5"/>
<path d="M229.515 116.188L266.899 114.875C266.899 114.875 265.989 133.46 243.771 131.725C228.33 130.508 229.515 116.188 229.515 116.188Z" fill="#FEB1A5"/>
<path d="M234.851 111.242L258.747 87.625L233.591 91.9573L234.851 111.242Z" fill="#FF8C7A"/>
<path d="M240.035 97.459C227.864 97.4974 217.817 87.8071 217.457 77.7622L216.736 54.0493C216.281 41.4549 225.788 30.7678 238.215 29.8956C250.935 29.0042 264.205 38.5507 265.087 51.4135L265.457 70.4873C265.751 85.248 254.594 96.4334 240.035 97.459Z" fill="#FEB1A5"/>
<path d="M230.215 69.4141L229.514 75.2991L232.528 75.4142" stroke="#03062E" stroke-width="1.2385" stroke-miterlimit="10" stroke-linecap="round" stroke-linejoin="round"/>
<path d="M242.233 55.0458C242.233 55.0458 235.513 54.4899 235.446 57.2503C235.446 57.2503 235.456 59.1194 241.314 59.4932C247.181 59.867 248.707 59.4261 249.238 57.6721C249.778 55.918 245.389 55.065 242.233 55.0458Z" fill="#03062E"/>
<path d="M222.756 59.0803C222.756 59.0803 227.846 58.6681 228.329 61.1506C228.329 61.1506 228.614 62.8376 224.159 63.0963C219.704 63.3551 218.32 62.7992 218.235 61.3711C218.121 59.6746 220.329 59.0611 222.756 59.0803Z" fill="#03062E"/>
<path d="M223.55 69.414C224.738 69.414 225.702 68.4399 225.702 67.2383C225.702 66.0366 224.738 65.0625 223.55 65.0625C222.362 65.0625 221.398 66.0366 221.398 67.2383C221.398 68.4399 222.362 69.414 223.55 69.414Z" fill="#03062E"/>
<path d="M241.618 68.8183C242.807 68.8183 243.77 67.8442 243.77 66.6425C243.77 65.4409 242.807 64.4668 241.618 64.4668C240.43 64.4668 239.467 65.4409 239.467 66.6425C239.467 67.8442 240.43 68.8183 241.618 68.8183Z" fill="#03062E"/>
<path d="M237.477 79.5066C237.477 79.5066 234.301 78.0401 230.453 81.3948" stroke="#03062E" stroke-width="1.2385" stroke-miterlimit="10" stroke-linecap="round" stroke-linejoin="round"/>
<path d="M245.752 25.8214C242.719 25.6584 239.657 25.9939 236.728 26.7894C229.439 28.7543 216.359 34.2081 214.112 48.3649C213.363 52.0934 213.885 53.349 213.885 53.349C213.885 53.349 238.321 54.3171 252.776 47.416C254.851 56.3203 256.776 61.8316 265.477 70.4963L273.202 58.7644L281.894 66.6528C281.941 66.9403 281.922 27.7671 245.752 25.8214Z" fill="#03062E"/>
<path d="M268.698 80.9728C273.927 80.9728 278.167 76.6858 278.167 71.3975C278.167 66.1092 273.927 61.8223 268.698 61.8223C263.468 61.8223 259.229 66.1092 259.229 71.3975C259.229 76.6858 263.468 80.9728 268.698 80.9728Z" fill="#FEB1A5"/>
<path d="M265.085 74.1397C265.085 74.1397 264.611 67.2194 271.227 67.8424" stroke="#03062E" stroke-width="1.2385" stroke-miterlimit="10" stroke-linecap="round" stroke-linejoin="round"/>
</svg>
