<svg xmlns="http://www.w3.org/2000/svg" width="24" height="22.025" viewBox="0 0 24 22.025">
  <path id="_5073999" data-name="5073999" d="M19,5H16.9A5.009,5.009,0,0,0,12,1H5A5.006,5.006,0,0,0,0,6v9a4,4,0,0,0,3.061,3.877,3.5,3.5,0,1,0,6.9.123h4.082A3.5,3.5,0,1,0,21,19.5a3.4,3.4,0,0,0-.061-.623A4,4,0,0,0,24,15V10a5.006,5.006,0,0,0-5-5Zm3,5v1H17V7h2A3,3,0,0,1,22,10ZM2,15V6A3,3,0,0,1,5,3h7a3,3,0,0,1,3,3V17H4A2,2,0,0,1,2,15Zm6,4.5a1.5,1.5,0,0,1-3,0,1.418,1.418,0,0,1,.093-.5H7.907A1.418,1.418,0,0,1,8,19.5ZM17.5,21A1.5,1.5,0,0,1,16,19.5a1.41,1.41,0,0,1,.093-.5h2.814a1.41,1.41,0,0,1,.093.5A1.5,1.5,0,0,1,17.5,21ZM20,17H17V13h5v2A2,2,0,0,1,20,17Z" transform="translate(0 -1)" fill="#072619"/>
</svg>
