<svg xmlns="http://www.w3.org/2000/svg" width="29.916" height="29.949" viewBox="0 0 29.916 29.949">
  <g id="money-back" transform="translate(-0.291)">
    <g id="Group_211" data-name="Group 211" transform="translate(0.291 16.368)">
      <g id="Group_210" data-name="Group 210" transform="translate(0)">
        <path id="Path_298" data-name="Path 298" d="M29.815,280.844a2.513,2.513,0,0,0-1.824-1.028,1.811,1.811,0,0,0-1.469.549c-.081.086-.169.181-.262.282a2.5,2.5,0,0,0-1.492-.655,1.811,1.811,0,0,0-1.469.549c-.808.856-2.239,2.527-3.363,3.857a2.329,2.329,0,0,0-.469-.212c-.537-.231-7.943-3.394-11.226-3.394-5.3,0-7.739,2.85-7.84,2.971a.44.44,0,0,0,.675.564A6.855,6.855,0,0,1,2.811,283a10.955,10.955,0,0,1,5.428-1.327c3.154,0,10.82,3.3,10.9,3.331a2.511,2.511,0,0,1,.415.193,1.423,1.423,0,0,1,.321.3,1.435,1.435,0,0,1-.51,2.2,1.487,1.487,0,0,1-1.053.067l-4.8-1.321a.44.44,0,1,0-.234.848l4.79,1.319a2.317,2.317,0,0,0,3-2.108l1.286-.135a.44.44,0,0,0,.292-.156c.032-.038,3.186-3.825,4.517-5.233.553-.586,1.54-.17,1.94.387.614.858-.149,1.795-.4,2.061-1.221,1.31-3.46,4.01-3.863,4.5l-9.114,4.557L11.036,290.5a.44.44,0,0,0-.341.81l4.876,2.053a.443.443,0,0,0,.367-.012l9.378-4.689a.439.439,0,0,0,.142-.113c.026-.031,2.589-3.135,3.887-4.528A2.443,2.443,0,0,0,29.815,280.844ZM22.082,285.5l-1.145.121a2.348,2.348,0,0,0-.346-.64c.957-1.133,2.513-2.957,3.346-3.838a.942.942,0,0,1,.771-.275,1.625,1.625,0,0,1,.964.432C24.352,282.79,22.556,284.934,22.082,285.5Z" transform="translate(-0.297 -279.811)" fill="#00492b"/>
      </g>
    </g>
    <g id="Group_213" data-name="Group 213" transform="translate(0.291 25.32)">
      <g id="Group_212" data-name="Group 212" transform="translate(0)">
        <path id="Path_299" data-name="Path 299" d="M8.872,433.673,7,432.883a.439.439,0,0,0-.171-.034H.731a.44.44,0,1,0,0,.879H6.737l1.794.755a.44.44,0,0,0,.341-.81Z" transform="translate(-0.291 -432.849)" fill="#00492b"/>
      </g>
    </g>
    <g id="Group_215" data-name="Group 215" transform="translate(6.387)">
      <g id="Group_214" data-name="Group 214">
        <path id="Path_300" data-name="Path 300" d="M121.755,14.657l-1.872.267a8.88,8.88,0,1,0-13.568-.661,8.944,8.944,0,0,0,4.6,3.149.44.44,0,0,0,.244-.845A8,8,0,1,1,121.378,8.88a7.942,7.942,0,0,1-2.4,5.718V12.279a.44.44,0,0,0-.879,0v3.282a.445.445,0,0,0,.5.435l3.282-.469a.44.44,0,1,0-.124-.87Z" transform="translate(-104.498)" fill="#00492b"/>
      </g>
    </g>
    <g id="Group_217" data-name="Group 217" transform="translate(12.951 4.689)">
      <g id="Group_216" data-name="Group 216">
        <path id="Path_301" data-name="Path 301" d="M219.032,83.906h-.469a.967.967,0,0,1,0-1.934h1.876a.44.44,0,0,0,0-.879h-.967v-.5a.44.44,0,1,0-.879,0v.5h-.029a1.846,1.846,0,0,0,0,3.693h.469a.967.967,0,1,1,0,1.934h-1.876a.44.44,0,0,0,0,.879h1.436v.5a.44.44,0,1,0,.879,0v-.551a1.846,1.846,0,0,0-.44-3.639Z" transform="translate(-216.717 -80.155)" fill="#00492b"/>
      </g>
    </g>
  </g>
</svg>
