<svg xmlns="http://www.w3.org/2000/svg" width="24.836" height="24.836" viewBox="0 0 24.836 24.836">
  <path id="Icon_material-my-location" data-name="Icon material-my-location" d="M13.918,9.4a4.516,4.516,0,1,0,4.516,4.516A4.514,4.514,0,0,0,13.918,9.4ZM24.01,12.789a10.154,10.154,0,0,0-8.964-8.964V1.5H12.789V3.826a10.154,10.154,0,0,0-8.964,8.964H1.5v2.258H3.826a10.154,10.154,0,0,0,8.964,8.964v2.326h2.258V24.01a10.154,10.154,0,0,0,8.964-8.964h2.326V12.789ZM13.918,21.82a7.9,7.9,0,1,1,7.9-7.9A7.9,7.9,0,0,1,13.918,21.82Z" transform="translate(-1.5 -1.5)" fill="#fff"/>
</svg>
