<svg xmlns="http://www.w3.org/2000/svg" width="30.819" height="30.788" viewBox="0 0 30.819 30.788">
  <g id="credit-card_1_" data-name="credit-card (1)" transform="translate(0 -0.243)">
    <g id="Group_219" data-name="Group 219" transform="translate(0 0.243)">
      <g id="Group_218" data-name="Group 218">
        <path id="Path_314" data-name="Path 314" d="M30.6,19.975l-3.443,8.952a3.284,3.284,0,0,1-4.246,1.883l-.073-.029L5.635,23.648a3.269,3.269,0,0,1-1.816-4.183L4.292,18.2H3.207A3.211,3.211,0,0,1,0,15V3.45A3.211,3.211,0,0,1,3.207.243H25.015A3.211,3.211,0,0,1,28.222,3.45V15a3.153,3.153,0,0,1-.046.519l.6.241A3.3,3.3,0,0,1,30.6,19.975Zm-27.4-2.8H25.015a2.178,2.178,0,0,0,2.168-2.053H1.039A2.178,2.178,0,0,0,3.207,17.176Zm5.158,3.091,3.43,1.715.705-1.764L9.07,18.5ZM27.2,3.45a2.183,2.183,0,0,0-2.181-2.181H3.207A2.183,2.183,0,0,0,1.026,3.45V9.992H27.2Zm0,7.569H1.026V14.1H27.2ZM28.387,16.7l-.536-.217A3.209,3.209,0,0,1,25.015,18.2H10.761l2.62,1.31a.513.513,0,0,1,.247.65l-1.088,2.72a.513.513,0,0,1-.667.286l-.039-.018L7.483,20.973a.513.513,0,0,1-.247-.65L8.085,18.2h-2.7l-.608,1.62A2.246,2.246,0,0,0,6.028,22.7l17.206,7.133a2.255,2.255,0,0,0,2.946-1.219l.022-.054L29.645,19.6A2.265,2.265,0,0,0,28.387,16.7Z" transform="translate(0 -0.243)" fill="#00492b"/>
        <path id="Path_315" data-name="Path 315" d="M265.412,352.646a3.079,3.079,0,0,1,3.093,0,3.079,3.079,0,1,1,0,5.324,3.079,3.079,0,1,1-3.093-5.324Zm3.951,4.589a2.053,2.053,0,1,0,0-3.855A3.066,3.066,0,0,1,269.363,357.236Zm-.858-.584a2.015,2.015,0,0,0,0-2.687A2.015,2.015,0,0,0,268.505,356.652Zm-1.539.709a2.03,2.03,0,0,0,.681-.125,3.067,3.067,0,0,1,0-3.855,2.049,2.049,0,1,0-.681,3.98Z" transform="translate(-246.954 -350.177)" fill="#00492b"/>
        <rect id="Rectangle_45" data-name="Rectangle 45" width="1.026" height="5.357" transform="translate(26.957 21.436) rotate(113.966)" fill="#00492b"/>
        <rect id="Rectangle_46" data-name="Rectangle 46" width="7.788" height="1.026" transform="translate(18.807 20.351) rotate(24.776)" fill="#00492b"/>
      </g>
    </g>
  </g>
</svg>
