<svg xmlns="http://www.w3.org/2000/svg" width="20.481" height="16.634" viewBox="0 0 20.481 16.634">
  <path id="Icon_awesome-twitter" data-name="Icon awesome-twitter" d="M18.376,7.526c.013.182.013.364.013.546A11.861,11.861,0,0,1,6.446,20.015,11.862,11.862,0,0,1,0,18.131a8.683,8.683,0,0,0,1.014.052,8.407,8.407,0,0,0,5.211-1.793A4.205,4.205,0,0,1,2.3,13.478a5.293,5.293,0,0,0,.793.065A4.44,4.44,0,0,0,4.2,13.4,4.2,4.2,0,0,1,.832,9.281V9.229a4.227,4.227,0,0,0,1.9.533,4.2,4.2,0,0,1-1.3-5.614A11.932,11.932,0,0,0,10.085,8.54a4.739,4.739,0,0,1-.1-.962,4.2,4.2,0,0,1,7.265-2.872,8.264,8.264,0,0,0,2.664-1.014,4.186,4.186,0,0,1-1.845,2.313,8.415,8.415,0,0,0,2.417-.65,9.023,9.023,0,0,1-2.105,2.17Z" transform="translate(0 -3.381)" fill="#00492b"/>
</svg>
