<svg xmlns="http://www.w3.org/2000/svg" width="31.718" height="26.648" viewBox="0 0 31.718 26.648">
  <g id="delivery-truck_1_" data-name="delivery-truck (1)" transform="translate(0 -40.911)">
    <g id="Group_203" data-name="Group 203" transform="translate(0 40.911)">
      <path id="Path_292" data-name="Path 292" d="M129.229,240.925h-3.5a.465.465,0,1,0,0,.929h3.5a.465.465,0,0,0,0-.929Z" transform="translate(-117.5 -228.535)" fill="#00492b"/>
      <path id="Path_293" data-name="Path 293" d="M31.045,54.866,29.05,54.04l-.642-1.686a.465.465,0,0,0-.868.331l.714,1.873a.465.465,0,0,0,.256.264l2.179.9a.162.162,0,0,1,.1.15v.682h-3.54a.465.465,0,0,0-.443.6l.626,2a.465.465,0,0,0,.443.326h2.914v2.7H28.678a3.9,3.9,0,0,0-7.24,0H19.953V46.971h5.3a.16.16,0,0,1,.151.1l1.365,3.583a.465.465,0,0,0,.868-.331l-1.365-3.583a1.1,1.1,0,0,0-1.019-.7h-5.3V41.376a.465.465,0,0,0-.465-.465H.465A.465.465,0,0,0,0,41.376v4.453a.465.465,0,0,0,.929,0V41.84H19.024V62.188H10.28a3.9,3.9,0,0,0-7.24,0H.929V48A.465.465,0,0,0,0,48V64.655a.465.465,0,0,0,.465.465H3.04a3.905,3.905,0,0,0,7.24,0h7.494a.465.465,0,1,0,0-.929H10.528a3.832,3.832,0,0,0,0-1.073H21.189a3.832,3.832,0,0,0,0,1.073H19.942a.465.465,0,1,0,0,.929h1.5a3.905,3.905,0,0,0,7.24,0h2.575a.465.465,0,0,0,.465-.465V55.874A1.089,1.089,0,0,0,31.045,54.866ZM.929,64.19V63.117H2.791a3.83,3.83,0,0,0,0,1.073H.929ZM6.66,66.631a2.977,2.977,0,1,1,2.977-2.977A2.981,2.981,0,0,1,6.66,66.631Zm21.22-9.146h.906v1.073h-.571Zm1.835,1.073V57.485h1.073v1.073Zm-4.657,8.073a2.977,2.977,0,1,1,2.977-2.977A2.981,2.981,0,0,1,25.058,66.631Zm5.731-2.441H28.926a3.829,3.829,0,0,0,0-1.073h1.862Z" transform="translate(0 -40.911)" fill="#00492b"/>
      <path id="Path_294" data-name="Path 294" d="M382.3,384.367a1.466,1.466,0,1,0,1.466,1.466A1.468,1.468,0,0,0,382.3,384.367Zm0,2a.537.537,0,1,1,.537-.537A.537.537,0,0,1,382.3,386.37Z" transform="translate(-357.239 -363.09)" fill="#00492b"/>
      <path id="Path_295" data-name="Path 295" d="M85.31,384.367a1.466,1.466,0,1,0,1.466,1.466A1.468,1.468,0,0,0,85.31,384.367Zm0,2a.537.537,0,1,1,.537-.537A.537.537,0,0,1,85.31,386.37Z" transform="translate(-78.65 -363.09)" fill="#00492b"/>
      <path id="Path_296" data-name="Path 296" d="M342.692,156.071H339.88a.465.465,0,0,0-.465.465v5.882a.465.465,0,0,0,.465.465h5.054a.465.465,0,0,0,.434-.63l-2.241-5.882A.464.464,0,0,0,342.692,156.071Zm-2.348,5.882V157h2.028l1.887,4.953Z" transform="translate(-318.389 -148.937)" fill="#00492b"/>
      <path id="Path_297" data-name="Path 297" d="M100.908,160.469a.465.465,0,0,0,.465-.465v-7.509a.465.465,0,0,0-.465-.465H93.4a.465.465,0,0,0-.465.465V160a.465.465,0,0,0,.465.465Zm-4.291-7.509H97.69v1.368l-.373-.14a.464.464,0,0,0-.326,0l-.373.14Zm-2.753,0h1.824V155a.465.465,0,0,0,.628.435l.838-.314.838.314a.465.465,0,0,0,.628-.435v-2.038h1.824v6.58h-6.58v-6.58Z" transform="translate(-87.177 -145.146)" fill="#00492b"/>
    </g>
  </g>
</svg>
