<svg xmlns="http://www.w3.org/2000/svg" width="19.814" height="19.813" viewBox="0 0 19.814 19.813">
  <path id="Icon_simple-instagram" data-name="Icon simple-instagram" d="M9.907,0C7.215,0,6.879.012,5.823.059a7.305,7.305,0,0,0-2.4.461A4.851,4.851,0,0,0,1.663,1.663,4.834,4.834,0,0,0,.52,3.418a7.284,7.284,0,0,0-.461,2.4C.01,6.879,0,7.215,0,9.907s.012,3.027.059,4.084A7.309,7.309,0,0,0,.52,16.4a4.858,4.858,0,0,0,1.143,1.755,4.844,4.844,0,0,0,1.755,1.143,7.314,7.314,0,0,0,2.4.461c1.057.05,1.393.059,4.084.059s3.027-.012,4.084-.059a7.331,7.331,0,0,0,2.4-.461,5.063,5.063,0,0,0,2.9-2.9,7.309,7.309,0,0,0,.461-2.4c.05-1.057.059-1.393.059-4.084s-.012-3.027-.059-4.084a7.326,7.326,0,0,0-.461-2.4,4.862,4.862,0,0,0-1.143-1.755A4.827,4.827,0,0,0,16.4.52a7.288,7.288,0,0,0-2.4-.461C12.934.01,12.6,0,9.907,0Zm0,1.783c2.644,0,2.96.013,4,.059a5.458,5.458,0,0,1,1.839.343,3.26,3.26,0,0,1,1.881,1.88A5.47,5.47,0,0,1,17.971,5.9c.047,1.045.058,1.359.058,4s-.012,2.96-.061,4a5.575,5.575,0,0,1-.348,1.839,3.146,3.146,0,0,1-.742,1.141,3.091,3.091,0,0,1-1.139.74,5.51,5.51,0,0,1-1.845.341c-1.052.047-1.361.058-4.011.058s-2.96-.012-4.011-.061a5.617,5.617,0,0,1-1.846-.348,3.068,3.068,0,0,1-1.138-.742,3.008,3.008,0,0,1-.743-1.139A5.622,5.622,0,0,1,1.8,13.893c-.037-1.04-.05-1.361-.05-4s.013-2.96.05-4.013a5.616,5.616,0,0,1,.347-1.844A2.937,2.937,0,0,1,2.886,2.9a2.93,2.93,0,0,1,1.138-.741,5.483,5.483,0,0,1,1.834-.348c1.053-.037,1.362-.05,4.011-.05l.037.025Zm0,3.036a5.087,5.087,0,1,0,5.087,5.087A5.087,5.087,0,0,0,9.907,4.82Zm0,8.389a3.3,3.3,0,1,1,3.3-3.3A3.3,3.3,0,0,1,9.907,13.209Zm6.477-8.59A1.189,1.189,0,1,1,15.2,3.431,1.19,1.19,0,0,1,16.384,4.619Z" fill="#00492b"/>
</svg>
