<svg xmlns="http://www.w3.org/2000/svg" width="30.091" height="28.798" viewBox="0 0 30.091 28.798">
  <g id="gift-box" transform="translate(-5.013 -15.79)">
    <path id="Path_302" data-name="Path 302" d="M25.857,71.6H10.034l13.7-8.712a.36.36,0,0,0,.111-.5l-1.358-2.135a2.175,2.175,0,0,0-3-.668l-1.928,1.226.153-.731a2.057,2.057,0,1,0-4.015-.894l-1,4.5-3.354-.747a2.057,2.057,0,0,0-1.259,3.9L6.019,68.156a2.175,2.175,0,0,0-.668,3L6.709,73.29a.36.36,0,0,0,.5.111l1.264-.8v9.1a2.175,2.175,0,0,0,2.173,2.173h13.4A2.175,2.175,0,0,0,26.216,81.7v-9.74a.36.36,0,0,0-.36-.36ZM19.876,60.2a1.444,1.444,0,0,1,.777-.227,1.467,1.467,0,0,1,.319.035,1.444,1.444,0,0,1,.911.639l1.165,1.832-5.665,3.6L15.437,63.02Zm-5.475-.85a1.338,1.338,0,1,1,2.61.586l-.3,1.413L13.5,63.4Zm.429,4.058,1.944,3.058-3.283,2.087-1.944-3.058ZM7.767,65.67a1.338,1.338,0,0,1,1.419-2.023l2.906.647L8.867,66.316l-.261-.058a1.329,1.329,0,0,1-.838-.588ZM7.123,72.6,5.958,70.769A1.455,1.455,0,0,1,6.4,68.763l4.536-2.884,1.944,3.058ZM14.1,83.155H10.641A1.455,1.455,0,0,1,9.188,81.7V72.321H14.1Zm4.572,0H14.817V72.321h3.852ZM25.5,81.7a1.455,1.455,0,0,1-1.453,1.453H19.388V72.321H25.5Z" transform="translate(0 -39.287)" fill="#00492b"/>
    <path id="Path_303" data-name="Path 303" d="M367.475,214.645l.172-1a.36.36,0,0,0-.522-.379l-.9.474-.9-.474a.36.36,0,0,0-.522.379l.172,1-.729.71a.36.36,0,0,0,.2.614l1.007.146.45.913a.36.36,0,0,0,.645,0l.45-.913,1.007-.146a.36.36,0,0,0,.2-.614Zm-.768.785a.36.36,0,0,0-.271.2l-.212.429-.212-.429a.36.36,0,0,0-.271-.2l-.473-.069.342-.334a.36.36,0,0,0,.1-.318l-.081-.471.423.222a.359.359,0,0,0,.335,0l.423-.222-.081.471a.359.359,0,0,0,.1.318l.342.334Z" transform="translate(-337.596 -185.597)" fill="#00492b"/>
    <path id="Path_304" data-name="Path 304" d="M427.9,131.986l-.989-.24-.363-.951a.36.36,0,0,0-.642-.061l-.534.866-1.016.051a.36.36,0,0,0-.256.592l.659.776-.265.982a.36.36,0,0,0,.484.426l.941-.387.853.556a.36.36,0,0,0,.555-.328l-.077-1.015.792-.639a.36.36,0,0,0-.141-.629Zm-1.25.827a.36.36,0,0,0-.133.307l.036.477-.4-.261a.36.36,0,0,0-.333-.031l-.442.182.125-.462a.36.36,0,0,0-.073-.327l-.31-.364.478-.024a.36.36,0,0,0,.288-.17l.251-.407.17.447a.36.36,0,0,0,.251.221l.465.113Z" transform="translate(-393.881 -107.894)" fill="#00492b"/>
    <path id="Path_305" data-name="Path 305" d="M388.922,18.246l-.265.982a.36.36,0,0,0,.484.427l.941-.387.852.556a.36.36,0,0,0,.555-.328l-.077-1.015.792-.639a.36.36,0,0,0-.141-.629l-.989-.24-.363-.951a.36.36,0,0,0-.642-.061l-.534.866-1.017.051a.36.36,0,0,0-.256.592Zm.839-.71a.36.36,0,0,0,.288-.17l.251-.407.17.447a.36.36,0,0,0,.251.221l.465.113-.372.3a.36.36,0,0,0-.133.307l.036.477-.4-.261a.36.36,0,0,0-.333-.031l-.442.182.125-.462a.36.36,0,0,0-.073-.327l-.309-.364Z" transform="translate(-360.197)" fill="#00492b"/>
    <path id="Path_306" data-name="Path 306" d="M271.654,227.215a4.137,4.137,0,0,0-1.225,1.156.36.36,0,1,0,.607.385,3.767,3.767,0,0,1,4.188-1.35.36.36,0,0,0,.173-.7A4.7,4.7,0,0,0,271.654,227.215Z" transform="translate(-249.454 -198.115)" fill="#00492b"/>
    <path id="Path_307" data-name="Path 307" d="M294.508,155.873a.36.36,0,1,0,.276-.664,5.274,5.274,0,0,0-5.532.588,6.743,6.743,0,0,0-1.79,2.113.36.36,0,0,0,.644.32,6.066,6.066,0,0,1,1.585-1.863A4.561,4.561,0,0,1,294.508,155.873Z" transform="translate(-265.483 -130.582)" fill="#00492b"/>
    <path id="Path_308" data-name="Path 308" d="M337.9,87.86a.36.36,0,0,0,.232.453,5.4,5.4,0,0,0,1.525.22,3.752,3.752,0,0,0,1.919-.478,3.415,3.415,0,0,0,1.555-2.446.36.36,0,0,0-.707-.134,2.733,2.733,0,0,1-1.211,1.96,4,4,0,0,1-2.859.194A.36.36,0,0,0,337.9,87.86Z" transform="translate(-312.919 -65.233)" fill="#00492b"/>
    <path id="Path_309" data-name="Path 309" d="M248.71,264.556a.648.648,0,1,0-.648-.648A.648.648,0,0,0,248.71,264.556Zm0-.719a.072.072,0,1,1-.072.072A.072.072,0,0,1,248.71,263.837Z" transform="translate(-228.48 -232.637)" fill="#00492b"/>
    <path id="Path_310" data-name="Path 310" d="M333.729,68.556a.648.648,0,1,0-.648-.648A.648.648,0,0,0,333.729,68.556Zm0-.719a.072.072,0,1,1-.072.072A.072.072,0,0,1,333.729,67.837Z" transform="translate(-308.403 -48.386)" fill="#00492b"/>
    <path id="Path_311" data-name="Path 311" d="M486.036,80.633a.648.648,0,1,0,.648.648A.648.648,0,0,0,486.036,80.633Zm0,.719a.072.072,0,1,1,.072-.072A.072.072,0,0,1,486.036,81.352Z" transform="translate(-451.58 -60.956)" fill="#00492b"/>
    <path id="Path_312" data-name="Path 312" d="M234.127,213.869a.648.648,0,1,0-.647.648A.648.648,0,0,0,234.127,213.869Zm-.647.072a.072.072,0,1,1,.072-.072.072.072,0,0,1-.072.072Z" transform="translate(-214.163 -185.596)" fill="#00492b"/>
    <path id="Path_313" data-name="Path 313" d="M468.242,230.812a.648.648,0,1,0,.648.648A.648.648,0,0,0,468.242,230.812Zm0,.719a.072.072,0,1,1,.072-.072A.072.072,0,0,1,468.242,231.531Z" transform="translate(-434.853 -202.133)" fill="#00492b"/>
  </g>
</svg>
