<svg xmlns="http://www.w3.org/2000/svg" width="20.317" height="14.2" viewBox="0 0 20.317 14.2">
  <path id="Icon_simple-youtube" data-name="Icon simple-youtube" d="M19.9,7.617a2.547,2.547,0,0,0-1.768-1.768c-1.584-.424-7.957-.424-7.957-.424s-6.357-.008-7.957.424A2.547,2.547,0,0,0,.449,7.617a26.462,26.462,0,0,0-.442,4.916,26.462,26.462,0,0,0,.442,4.9A2.547,2.547,0,0,0,2.218,19.2c1.582.425,7.957.425,7.957.425s6.357,0,7.957-.425A2.547,2.547,0,0,0,19.9,17.43a26.462,26.462,0,0,0,.423-4.9A26.462,26.462,0,0,0,19.9,7.617ZM8.141,15.574V9.482l5.3,3.05Z" transform="translate(-0.007 -5.424)" fill="#00492b"/>
</svg>
