<svg xmlns="http://www.w3.org/2000/svg" width="15.524" height="20.062" viewBox="0 0 15.524 20.062">
  <path id="Icon_zocial-pinterest" data-name="Icon zocial-pinterest" d="M4.2,7.309A6.334,6.334,0,0,1,4.73,4.8,7.944,7.944,0,0,1,6.254,2.495,7.288,7.288,0,0,1,8.862.77a9.356,9.356,0,0,1,3.58-.662,7.245,7.245,0,0,1,5.235,1.966,6.22,6.22,0,0,1,2.046,4.633,8.968,8.968,0,0,1-1.735,5.666,5.421,5.421,0,0,1-4.483,2.236,3.562,3.562,0,0,1-1.694-.421A2.564,2.564,0,0,1,10.7,13.165l-.8,3.17a6.115,6.115,0,0,1-.261.772q-.16.391-.351.752T8.9,18.54q-.191.322-.381.6t-.331.471c-.093.127-.181.238-.261.331l-.121.161a.149.149,0,0,1-.16.06.142.142,0,0,1-.12-.12c0-.013-.01-.107-.03-.281s-.04-.358-.06-.552-.04-.444-.06-.752-.026-.605-.02-.893.026-.605.06-.953a7.565,7.565,0,0,1,.15-.962q.221-.943,1.484-6.279A3.33,3.33,0,0,1,8.792,8.6a3.521,3.521,0,0,1-.1-.732l-.019-.3a3.412,3.412,0,0,1,.652-2.136A1.932,1.932,0,0,1,10.9,4.581a1.419,1.419,0,0,1,1.153.491,1.854,1.854,0,0,1,.411,1.234,4.757,4.757,0,0,1-.17,1.133q-.17.672-.452,1.544t-.4,1.414a1.733,1.733,0,0,0,.351,1.564,1.824,1.824,0,0,0,1.475.663,3.017,3.017,0,0,0,2.618-1.8,8.578,8.578,0,0,0,1.032-4.342,4.246,4.246,0,0,0-1.264-3.179,4.839,4.839,0,0,0-3.529-1.234A5.455,5.455,0,0,0,8.021,3.7,5.393,5.393,0,0,0,6.446,7.59a3.441,3.441,0,0,0,.762,2.266.652.652,0,0,1,.16.642,3.821,3.821,0,0,0-.12.461,3.821,3.821,0,0,1-.12.461.357.357,0,0,1-.2.29.452.452,0,0,1-.361-.01A3.352,3.352,0,0,1,4.79,10.046,6,6,0,0,1,4.2,7.309Z" transform="translate(-4.198 -0.108)" fill="#00492b"/>
</svg>
