<svg xmlns="http://www.w3.org/2000/svg" width="22.714" height="22.365" viewBox="0 0 22.714 22.365">
  <path id="Icon_ionic-md-cart" data-name="Icon ionic-md-cart" d="M10.015,21.422a2.271,2.271,0,1,0,2.272,2.272A2.278,2.278,0,0,0,10.015,21.422ZM3.375,3.6V5.871H5.646l4.089,8.282L8.026,16.936a2.261,2.261,0,0,0,2.164,3.351H23.469V18.1h-13a.268.268,0,0,1-.284-.284,1.416,1.416,0,0,1,.121-.284l1.135-1.791H19.9a2.228,2.228,0,0,0,1.988-1.192l4.089-7.033a1.328,1.328,0,0,0,.114-.568,1.092,1.092,0,0,0-1.136-1.079H8.145L7.066,3.6ZM21.2,21.422a2.271,2.271,0,1,0,2.272,2.271A2.278,2.278,0,0,0,21.2,21.422Z" transform="translate(-3.375 -3.6)" fill="#fcfdff"/>
</svg>
