<svg xmlns="http://www.w3.org/2000/svg" width="28.284" height="27.989" viewBox="0 0 28.284 27.989">
  <path id="headphone" d="M.943,15.994v3.653a.944.944,0,0,0,.943.943.471.471,0,1,1,0,.943A1.888,1.888,0,0,1,0,19.647V15.994a1.888,1.888,0,0,1,1.886-1.886.471.471,0,1,1,0,.943A.944.944,0,0,0,.943,15.994ZM26.4,14.108a.471.471,0,1,0,0,.943.944.944,0,0,1,.943.943v3.653a.944.944,0,0,1-.943.943.471.471,0,1,0,0,.943,1.888,1.888,0,0,0,1.886-1.886V15.994A1.888,1.888,0,0,0,26.4,14.108ZM5.892,11.692v.589H6.01A1.888,1.888,0,0,1,7.9,14.167v7.307A1.888,1.888,0,0,1,6.01,23.359H5.068a1.888,1.888,0,0,1-1.886-1.886V14.167A1.888,1.888,0,0,1,4.95,12.286v-.593a9.192,9.192,0,1,1,18.385,0v.593A1.888,1.888,0,0,1,25.1,14.167v7.307a1.888,1.888,0,0,1-1.886,1.886h-.943a1.888,1.888,0,0,1-1.886-1.886V14.167a1.888,1.888,0,0,1,1.886-1.886h.118v-.589a8.249,8.249,0,0,0-16.5,0Zm17.324,1.532h-.943a.944.944,0,0,0-.943.943v7.307a.944.944,0,0,0,.943.943h.943a.944.944,0,0,0,.943-.943V14.167A.944.944,0,0,0,23.216,13.224Zm-18.149,0a.944.944,0,0,0-.943.943v7.307a.944.944,0,0,0,.943.943H6.01a.944.944,0,0,0,.943-.943V14.167a.944.944,0,0,0-.943-.943ZM26.929,23.3a5.663,5.663,0,0,1-5.657,5.657H20.39a2,2,0,1,1,0-.943h.882A4.719,4.719,0,0,0,25.986,23.3a.471.471,0,0,1,.943,0ZM19.5,28.486a1.061,1.061,0,1,0-1.061,1.061A1.062,1.062,0,0,0,19.5,28.486ZM18.366,18.257a.471.471,0,0,0-.905-.264,3.457,3.457,0,0,1-6.637,0,.471.471,0,0,0-.905.264,4.4,4.4,0,0,0,8.447,0Zm-7.209-4.6a.933.933,0,1,1-.933.933.934.934,0,0,1,.933-.933Zm-.01.933c0,.011.02.011.02,0S11.147,14.579,11.147,14.589Zm5.981-.9a.9.9,0,1,1-.9.9.9.9,0,0,1,.9-.9Zm-.039.9a.039.039,0,0,0,.079,0A.039.039,0,0,0,17.088,14.589Z" transform="translate(0 -2.5)" fill="#00492b"/>
</svg>
