<svg xmlns="http://www.w3.org/2000/svg" width="54.487" height="55.824" viewBox="0 0 54.487 55.824">
  <g id="Push_notifications-rafiki" data-name="Push notifications-rafiki" transform="translate(-177.47 -170.852)">
    <g id="freepik--Notification--inject-152" transform="translate(175.47 177.268)">
      <rect id="Rectangle_476" data-name="Rectangle 476" width="53.089" height="43.303" rx="11.2" transform="translate(3.398 -4.079)" fill="#74bf24"/>
      <path id="Path_3910" data-name="Path 3910" d="M179.883,182.019a.346.346,0,0,1-.242-.1l-.623-.619a.347.347,0,1,1,.491-.491l.619.623a.344.344,0,0,1-.246.588Z" transform="translate(-175.724 -185.933)" fill="#74bf24"/>
      <path id="Path_3911" data-name="Path 3911" d="M176.692,189.472h-.875a.346.346,0,1,1,0-.692h.875a.346.346,0,0,1,0,.692Z" transform="translate(-173.47 -191.213)" fill="#74bf24"/>
      <path id="Path_3912" data-name="Path 3912" d="M187.307,178.836a.346.346,0,0,1-.346-.322l-.062-.875a.345.345,0,1,1,.689-.048l.066.875a.346.346,0,0,1-.322.37Z" transform="translate(-180.943 -183.685)" fill="#74bf24"/>
      <path id="Path_3913" data-name="Path 3913" d="M273.19,279.83l13.921,13.918V279.83Z" transform="translate(-239.375 -244.34)" fill="#74bf24"/>
      <path id="Path_3914" data-name="Path 3914" d="M246.657,222.106l-.692-2.938a5.315,5.315,0,0,1,0-2.346l.962-4.184a8.2,8.2,0,0,0-4.339-9.1,2.345,2.345,0,0,0,.08-.235,1.98,1.98,0,0,0-3.865-.865,1.489,1.489,0,0,0-.031.246,8.208,8.208,0,0,0-7.81,6.381l-.938,4.187a5.284,5.284,0,0,1-1,2.114l-1.865,2.37a1.751,1.751,0,0,0,.993,2.789l16.437,3.682a1.747,1.747,0,0,0,2.073-2.1Z" transform="translate(-209.025 -195.713)" fill="#fff"/>
      <path id="Path_3915" data-name="Path 3915" d="M246.562,264.8a.779.779,0,0,0-.934.9,2.841,2.841,0,0,0,5.132,1.149.779.779,0,0,0-.46-1.208Z" transform="translate(-221.343 -237.496)" fill="#fff"/>
      <path id="Path_3916" data-name="Path 3916" d="M207.52,218.3a.512.512,0,0,1-.433-.232,11.1,11.1,0,0,1,3.069-15.4.519.519,0,1,1,.574.865,10.066,10.066,0,0,0-2.768,13.956.519.519,0,0,1-.142.72.526.526,0,0,1-.3.087Z" transform="translate(-194.925 -196.827)" fill="#fff"/>
      <path id="Path_3917" data-name="Path 3917" d="M214.721,220.973a.519.519,0,0,1-.429-.232,8.461,8.461,0,0,1,2.336-11.727.52.52,0,1,1,.578.865,7.416,7.416,0,0,0-2.052,10.284.519.519,0,0,1-.142.72A.533.533,0,0,1,214.721,220.973Z" transform="translate(-199.928 -200.972)" fill="#fff"/>
      <path id="Path_3918" data-name="Path 3918" d="M221.921,223.68a.512.512,0,0,1-.429-.228,5.807,5.807,0,0,1,1.613-8.059.519.519,0,0,1,.578.862,4.772,4.772,0,0,0-1.318,6.62.517.517,0,0,1-.443.806Z" transform="translate(-204.927 -205.149)" fill="#fff"/>
      <path id="Path_3919" data-name="Path 3919" d="M297.371,240.125a.519.519,0,0,1-.239-.979,10.066,10.066,0,0,0,4.325-13.558.519.519,0,1,1,.92-.474A11.1,11.1,0,0,1,297.6,240.07.547.547,0,0,1,297.371,240.125Z" transform="translate(-254.85 -211.351)" fill="#fff"/>
      <path id="Path_3920" data-name="Path 3920" d="M293.861,240.129a.519.519,0,0,1-.239-.979,7.412,7.412,0,0,0,3.187-9.994.52.52,0,1,1,.924-.478A8.45,8.45,0,0,1,294.1,240.07a.5.5,0,0,1-.239.059Z" transform="translate(-252.555 -213.704)" fill="#fff"/>
      <path id="Path_3921" data-name="Path 3921" d="M290.359,240.074a.523.523,0,0,1-.239-.983,4.765,4.765,0,0,0,2.052-6.426.52.52,0,1,1,.924-.478,5.817,5.817,0,0,1-2.505,7.827A.53.53,0,0,1,290.359,240.074Z" transform="translate(-250.267 -216)" fill="#fff"/>
    </g>
  </g>
</svg>
