<svg xmlns="http://www.w3.org/2000/svg" width="23.995" height="23.997" viewBox="0 0 23.995 23.997">
  <g id="badge_1_" data-name="badge (1)" transform="translate(-0.001 -0.002)">
    <path id="Path_213" data-name="Path 213" d="M8.321,24A3.118,3.118,0,0,1,5.4,21.976L4.658,20A1.121,1.121,0,0,0,4,19.342L2.024,18.6A3.119,3.119,0,0,1,.28,14.389l.875-1.925a1.114,1.114,0,0,0,0-.925L.28,9.612A3.119,3.119,0,0,1,2.024,5.4L4,4.659A1.121,1.121,0,0,0,4.658,4L5.4,2.025A3.119,3.119,0,0,1,9.611.281l1.925.875a1.111,1.111,0,0,0,.925,0h0L14.387.281A3.119,3.119,0,0,1,18.6,2.025l.743,1.98A1.121,1.121,0,0,0,20,4.659l1.979.743a3.119,3.119,0,0,1,1.744,4.21l-.875,1.925a1.114,1.114,0,0,0,0,.925l.875,1.926a3.119,3.119,0,0,1-1.744,4.21l-1.98.743A1.121,1.121,0,0,0,19.34,20L18.6,21.975a3.119,3.119,0,0,1-4.21,1.744l-1.925-.875a1.111,1.111,0,0,0-.925,0l-1.925.876A3.128,3.128,0,0,1,8.321,24Zm0-22a1.129,1.129,0,0,0-.429.086,1.109,1.109,0,0,0-.62.641L6.531,4.706A3.119,3.119,0,0,1,4.706,6.531l-1.979.742A1.12,1.12,0,0,0,2.1,8.785l.875,1.925a3.116,3.116,0,0,1,0,2.581L2.1,15.215a1.12,1.12,0,0,0,.626,1.511l1.979.743a3.116,3.116,0,0,1,1.825,1.825l.742,1.979a1.12,1.12,0,0,0,1.511.626l1.925-.875a3.113,3.113,0,0,1,2.581,0l1.924.874a1.12,1.12,0,0,0,1.511-.626l.743-1.979a3.116,3.116,0,0,1,1.825-1.825l1.979-.742a1.12,1.12,0,0,0,.626-1.511l-.875-1.925a3.116,3.116,0,0,1,0-2.581L21.9,8.785a1.12,1.12,0,0,0-.626-1.511l-1.979-.743a3.116,3.116,0,0,1-1.825-1.825l-.742-1.979A1.12,1.12,0,0,0,15.215,2.1l-1.925.875a3.12,3.12,0,0,1-2.581,0L8.785,2.1A1.127,1.127,0,0,0,8.322,2Z" fill="#43b645"/>
    <path id="Path_214" data-name="Path 214" d="M9,11a2,2,0,1,1,2-2A2,2,0,0,1,9,11Z" fill="#43b645"/>
    <path id="Path_215" data-name="Path 215" d="M15,17a2,2,0,1,1,2-2A2,2,0,0,1,15,17Z" fill="#43b645"/>
    <path id="Path_216" data-name="Path 216" d="M9,17a1,1,0,0,1-.8-1.6l6-8a1,1,0,0,1,1.6,1.2l-6,8A1,1,0,0,1,9,17Z" fill="#43b645"/>
  </g>
</svg>
