<svg xmlns="http://www.w3.org/2000/svg" width="20.419" height="18.166" viewBox="0 0 20.419 18.166">
  <path id="heart" d="M10.21,18.166a1.2,1.2,0,0,1-.789-.3c-.825-.721-1.62-1.4-2.322-2l0,0a43.18,43.18,0,0,1-5.07-4.758A7.6,7.6,0,0,1,0,6.137,6.382,6.382,0,0,1,1.62,1.778,5.491,5.491,0,0,1,5.7,0,5.136,5.136,0,0,1,8.912,1.108a6.564,6.564,0,0,1,1.3,1.354,6.564,6.564,0,0,1,1.3-1.354A5.136,5.136,0,0,1,14.715,0,5.491,5.491,0,0,1,18.8,1.778a6.382,6.382,0,0,1,1.62,4.359,7.6,7.6,0,0,1-2.025,4.975,43.176,43.176,0,0,1-5.069,4.758c-.7.6-1.5,1.278-2.326,2a1.2,1.2,0,0,1-.789.3ZM5.7,1.2A4.308,4.308,0,0,0,2.5,2.589,5.191,5.191,0,0,0,1.2,6.137a6.4,6.4,0,0,0,1.75,4.212A42.492,42.492,0,0,0,7.87,14.959l0,0c.7.6,1.5,1.281,2.334,2.007.836-.728,1.636-1.41,2.341-2.011a42.5,42.5,0,0,0,4.924-4.611,6.4,6.4,0,0,0,1.75-4.212,5.191,5.191,0,0,0-1.3-3.548,4.307,4.307,0,0,0-3.2-1.392,3.967,3.967,0,0,0-2.477.857,5.8,5.8,0,0,0-1.38,1.6.755.755,0,0,1-1.3,0,5.8,5.8,0,0,0-1.38-1.6A3.967,3.967,0,0,0,5.7,1.2Zm0,0" transform="translate(0)" fill="#dbdbdb"/>
</svg>
