<svg width="300" height="300" viewBox="0 0 300 300" fill="none" xmlns="http://www.w3.org/2000/svg">
<rect width="300" height="300" fill="white"/>
<path d="M286 126.852V286H14V126.852C14 110.348 18.2682 94.6792 25.9338 80.555C26.2581 79.9742 26.5654 79.4075 26.9069 78.8408C28.0678 76.7583 29.3312 74.7183 30.6628 72.7067C31.0214 72.1542 31.3969 71.6017 31.7725 71.0492C49.3573 45.4642 78.6538 26.1267 113.601 18.0942C125.177 15.4308 137.383 14 150 14C171.699 14 192.186 18.2075 210.369 25.7017C213.817 27.1183 217.181 28.6483 220.441 30.3058C220.441 30.2917 220.441 30.2917 220.458 30.3058C227.305 33.7483 233.758 37.6867 239.75 42.0642C241.953 43.665 244.087 45.3225 246.17 47.0508C251.821 51.74 256.96 56.8258 261.535 62.2658C262.184 63.0167 262.798 63.7675 263.396 64.5325C264.096 65.3967 264.779 66.275 265.445 67.1675C265.82 67.6492 266.179 68.1308 266.503 68.6267C266.793 68.995 267.067 69.3775 267.323 69.76C267.664 70.2133 267.971 70.6667 268.279 71.12C268.671 71.6725 269.047 72.225 269.405 72.7917C269.815 73.415 270.225 74.0383 270.618 74.6617C275.313 82.1133 279.017 90.0467 281.612 98.3342C284.481 107.443 286 117.006 286 126.852Z" fill="#2A72ED"/>
<path d="M286 126.852V286H14V126.852C14 110.348 18.2682 94.6792 25.9338 80.555C26.2581 79.9742 26.5654 79.4075 26.9069 78.8408C28.0678 76.7583 29.3312 74.7183 30.6628 72.7067C31.0214 72.1542 31.3969 71.6017 31.7725 71.0492C49.3573 45.4642 78.6538 26.1267 113.601 18.0942C125.177 15.4308 137.383 14 150 14C171.699 14 192.186 18.2075 210.369 25.7017C213.817 27.1183 217.181 28.6483 220.441 30.3058C220.441 30.2917 220.441 30.2917 220.458 30.3058C227.305 33.7483 233.758 37.6867 239.75 42.0642C241.953 43.665 244.087 45.3225 246.17 47.0508C251.821 51.74 256.96 56.8258 261.535 62.2658C262.184 63.0167 262.798 63.7675 263.396 64.5325C264.096 65.3967 264.779 66.275 265.445 67.1675C265.82 67.6492 266.179 68.1308 266.503 68.6267C266.793 68.995 267.067 69.3775 267.323 69.76C267.664 70.2133 267.971 70.6667 268.279 71.12C268.671 71.6725 269.047 72.225 269.405 72.7917C269.815 73.415 270.225 74.0383 270.618 74.6617C275.313 82.1133 279.017 90.0467 281.612 98.3342C284.481 107.443 286 117.006 286 126.852Z" fill="white" fill-opacity="0.9"/>
<path d="M55.0172 24.7091L74.6584 241.835C74.8578 244.041 76.8145 245.673 79.0204 245.474L204.221 234.257C206.439 234.058 208.072 232.101 207.86 229.895L187.396 8.93132C187.172 6.50109 184.979 4.74384 182.561 5.04295L58.5192 20.3721C56.3756 20.6338 54.8178 22.5531 55.0172 24.7091Z" fill="#2A72ED"/>
<path d="M55.0172 24.7091L74.6584 241.835C74.8578 244.041 76.8145 245.673 79.0204 245.474L204.221 234.257C206.439 234.058 208.072 232.101 207.86 229.895L187.396 8.93132C187.172 6.50109 184.979 4.74384 182.561 5.04295L58.5192 20.3721C56.3756 20.6338 54.8178 22.5531 55.0172 24.7091Z" fill="white" fill-opacity="0.5"/>
<path d="M63.1373 23.7366L82.7786 241.124C82.978 243.33 84.9346 244.962 87.1405 244.763L212.341 233.534C214.559 233.335 216.192 231.378 215.98 229.16L195.516 7.93382C195.292 5.50359 193.099 3.73388 190.681 4.03299L66.6393 19.3871C64.4957 19.6488 62.9379 21.568 63.1373 23.7366Z" fill="#03062E"/>
<path d="M73.5238 28.298L185.576 14.8507C186.262 14.7635 186.885 15.262 186.947 15.9475L204.968 207.213C205.031 207.873 204.545 208.459 203.872 208.534L93.1277 220.062C92.4547 220.137 91.8441 219.651 91.7693 218.978L72.4396 29.6191C72.3773 28.9585 72.8508 28.3728 73.5238 28.298Z" fill="#2A72ED"/>
<path d="M73.5238 28.298L185.576 14.8507C186.262 14.7635 186.885 15.262 186.947 15.9475L204.968 207.213C205.031 207.873 204.545 208.459 203.872 208.534L93.1277 220.062C92.4547 220.137 91.8441 219.651 91.7693 218.978L72.4396 29.6191C72.3773 28.9585 72.8508 28.3728 73.5238 28.298Z" fill="white" fill-opacity="0.75"/>
<path d="M148.545 16.8929L122.835 20.2578C121.962 20.37 121.152 19.7593 121.04 18.8745L120.941 18.1143C120.828 17.2294 121.439 16.4318 122.324 16.3196L148.034 12.9547C148.919 12.8425 149.717 13.4532 149.829 14.338L149.929 15.0983C150.041 15.9831 149.43 16.7807 148.545 16.8929Z" stroke="#4B6188" stroke-width="0.4364" stroke-miterlimit="10"/>
<path d="M113.076 21.8779C114.666 21.8779 115.955 20.589 115.955 18.999C115.955 17.409 114.666 16.1201 113.076 16.1201C111.486 16.1201 110.197 17.409 110.197 18.999C110.197 20.589 111.486 21.8779 113.076 21.8779Z" stroke="#4B6188" stroke-width="0.4364" stroke-miterlimit="10"/>
<path d="M62.7149 64.4392C61.9297 64.514 61.2193 63.9282 61.157 63.1431L59.3873 43.9754C59.3125 43.1903 59.8983 42.4799 60.6834 42.4176C61.4686 42.3428 62.179 42.9285 62.2413 43.7137L64.011 62.8814C64.0858 63.654 63.5 64.3644 62.7149 64.4392Z" fill="#03062E"/>
<path d="M157.813 234.383C162.294 234.383 165.926 230.75 165.926 226.269C165.926 221.789 162.294 218.156 157.813 218.156C153.332 218.156 149.7 221.789 149.7 226.269C149.7 230.75 153.332 234.383 157.813 234.383Z" stroke="#2196F6" stroke-width="0.4364" stroke-miterlimit="10"/>
<path d="M157.813 234.383C162.294 234.383 165.926 230.75 165.926 226.269C165.926 221.789 162.294 218.156 157.813 218.156C153.332 218.156 149.7 221.789 149.7 226.269C149.7 230.75 153.332 234.383 157.813 234.383Z" stroke="white" stroke-opacity="0.95" stroke-width="0.4364" stroke-miterlimit="10"/>
<path d="M267.135 279.679H132.398L156.897 156.387L180.065 156.812L181.499 156.84L226.98 157.662L228.414 157.704L254.04 158.172L263.908 158.356L267.135 279.679Z" fill="#2A72ED"/>
<path d="M267.128 279.68H235.664L254.034 158.173L263.902 158.357L267.128 279.68Z" fill="#03062E"/>
<path d="M178.737 170.555C180.802 170.555 182.476 169.166 182.476 167.452C182.476 165.739 180.802 164.35 178.737 164.35C176.672 164.35 174.999 165.739 174.999 167.452C174.999 169.166 176.672 170.555 178.737 170.555Z" fill="#2196F6"/>
<path d="M178.737 170.555C180.802 170.555 182.476 169.166 182.476 167.452C182.476 165.739 180.802 164.35 178.737 164.35C176.672 164.35 174.999 165.739 174.999 167.452C174.999 169.166 176.672 170.555 178.737 170.555Z" fill="white" fill-opacity="0.9"/>
<path d="M227.277 170.555C229.342 170.555 231.016 169.166 231.016 167.452C231.016 165.739 229.342 164.35 227.277 164.35C225.212 164.35 223.538 165.739 223.538 167.452C223.538 169.166 225.212 170.555 227.277 170.555Z" fill="#2196F6"/>
<path d="M227.277 170.555C229.342 170.555 231.016 169.166 231.016 167.452C231.016 165.739 229.342 164.35 227.277 164.35C225.212 164.35 223.538 165.739 223.538 167.452C223.538 169.166 225.212 170.555 227.277 170.555Z" fill="white" fill-opacity="0.9"/>
<path d="M227.976 167.494L226.593 167.409C226.628 167.04 229.94 130.42 217.204 118.803C214.728 116.55 211.774 115.389 208.428 115.346C208.36 115.346 208.309 115.346 208.24 115.346C185.483 115.346 180.02 166.247 179.968 166.757L178.585 166.658C178.807 164.505 184.219 114.185 208.24 114.185C208.309 114.185 208.377 114.185 208.462 114.185C212.218 114.227 215.513 115.516 218.262 118.024C231.374 129.995 228.113 165.964 227.976 167.494Z" fill="white"/>
<path d="M176.097 185.214H41.3433V280.201H176.097V185.214Z" fill="#2196F6"/>
<g opacity="0.3">
<path opacity="0.3" d="M176.097 185.214H41.3433V280.201H176.097V185.214Z" fill="#2A72ED"/>
</g>
<path d="M176.099 185.214H144.105V280.201H176.099V185.214Z" fill="#03062E"/>
<path d="M144.105 185.214L176.099 280.201" stroke="#2A72ED" stroke-width="0.4456" stroke-miterlimit="10" stroke-linecap="round" stroke-linejoin="round"/>
<path d="M144.105 185.214L176.099 280.201" stroke="white" stroke-opacity="0.9" stroke-width="0.4456" stroke-miterlimit="10" stroke-linecap="round" stroke-linejoin="round"/>
<path d="M144.105 280.201L176.099 185.214" stroke="#2A72ED" stroke-width="0.4456" stroke-miterlimit="10" stroke-linecap="round" stroke-linejoin="round"/>
<path d="M144.105 280.201L176.099 185.214" stroke="white" stroke-opacity="0.9" stroke-width="0.4456" stroke-miterlimit="10" stroke-linecap="round" stroke-linejoin="round"/>
<path d="M106.4 185.214H86.1353V209.396H106.4V185.214Z" fill="#2196F6"/>
<path d="M106.4 185.214H86.1353V209.396H106.4V185.214Z" fill="white" fill-opacity="0.9"/>
<path d="M165.574 185.214H154.904V209.396H165.574V185.214Z" fill="#2196F6"/>
<path d="M165.574 185.214H154.904V209.396H165.574V185.214Z" fill="white" fill-opacity="0.9"/>
<path d="M136.219 264.877H115.595C114.52 264.877 113.649 265.599 113.649 266.492V275.049C113.649 275.941 114.52 276.664 115.595 276.664H136.219C137.294 276.664 138.165 275.941 138.165 275.049V266.492C138.165 265.599 137.294 264.877 136.219 264.877ZM137.465 275.049C137.465 275.629 136.902 276.083 136.219 276.083H115.595C114.912 276.083 114.349 275.615 114.349 275.049V266.492C114.349 265.911 114.912 265.458 115.595 265.458H136.219C136.919 265.458 137.465 265.925 137.465 266.492V275.049Z" fill="#2196F6"/>
<path d="M136.219 264.877H115.595C114.52 264.877 113.649 265.599 113.649 266.492V275.049C113.649 275.941 114.52 276.664 115.595 276.664H136.219C137.294 276.664 138.165 275.941 138.165 275.049V266.492C138.165 265.599 137.294 264.877 136.219 264.877ZM137.465 275.049C137.465 275.629 136.902 276.083 136.219 276.083H115.595C114.912 276.083 114.349 275.615 114.349 275.049V266.492C114.349 265.911 114.912 265.458 115.595 265.458H136.219C136.919 265.458 137.465 265.925 137.465 266.492V275.049Z" fill="white" fill-opacity="0.9"/>
</svg>
