<svg width="300" height="300" viewBox="0 0 300 300" fill="none" xmlns="http://www.w3.org/2000/svg">
<rect width="300" height="300" fill="white"/>
<path d="M286 149.084V285.656H14V149.084C14 141.942 14.5531 134.916 15.6446 128.078C20.1418 99.4393 33.6916 73.7931 53.2958 54.103C54.4602 52.932 55.6536 51.7754 56.8616 50.6478C58.9428 48.6962 61.0968 46.8168 63.309 44.9952C64.9099 43.6652 66.5545 42.3786 68.2283 41.1208C90.9762 24.0908 119.298 14 149.993 14C168.636 14 186.407 17.7298 202.591 24.4811C218.993 31.3192 233.78 41.2654 246.166 53.5681C257.052 64.3817 266.105 77.0169 272.799 90.9677C274.517 94.524 276.074 98.1526 277.457 101.868C278.49 104.615 279.436 107.419 280.295 110.253C284.006 122.556 286 135.581 286 149.084Z" fill="#2A72ED"/>
<path d="M286 149.084V285.656H14V149.084C14 141.942 14.5531 134.916 15.6446 128.078C20.1418 99.4393 33.6916 73.7931 53.2958 54.103C54.4602 52.932 55.6536 51.7754 56.8616 50.6478C58.9428 48.6962 61.0968 46.8168 63.309 44.9952C64.9099 43.6652 66.5545 42.3786 68.2283 41.1208C90.9762 24.0908 119.298 14 149.993 14C168.636 14 186.407 17.7298 202.591 24.4811C218.993 31.3192 233.78 41.2654 246.166 53.5681C257.052 64.3817 266.105 77.0169 272.799 90.9677C274.517 94.524 276.074 98.1526 277.457 101.868C278.49 104.615 279.436 107.419 280.295 110.253C284.006 122.556 286 135.581 286 149.084Z" fill="white" fill-opacity="0.9"/>
<path d="M284.126 29.5937C280.066 23.7969 238.969 21.6556 209.784 18.527C185.651 15.94 147.798 14 147.798 14C147.798 14 145.036 14.2895 144.008 15.219L106.546 48.9688L104.06 51.2086L103.875 51.3762L97.0614 57.5167L97 57.5776L97.706 58.7052C97.706 58.7204 97.7213 58.7204 97.7213 58.7204L102.141 65.8818V65.897L102.172 65.9122L102.678 66.735L102.817 66.9636L104.597 69.8281L125.607 103.715C126.435 105.041 127.863 105.894 129.428 105.985L250.24 113.482L258.542 114H277C277 114 281.051 112.258 282.852 90.6875C284.653 69.1175 288.185 35.3905 284.126 29.5937ZM121.954 71.8699C119.361 71.3671 117.089 69.8434 115.631 67.7407C115.033 66.9026 114.572 65.9732 114.265 64.9675C114.173 64.6476 114.081 64.3276 114.02 63.9924C113.513 61.3716 114.035 58.888 115.278 56.8615C115.815 55.9625 116.491 55.1702 117.273 54.4998C119.499 52.5494 122.583 51.5743 125.898 52.1838C129.873 52.9304 133.081 56.1149 133.833 60.0613C135.183 67.1312 129.044 73.2107 121.954 71.8699Z" fill="#03062E"/>
<path d="M121.384 60.7232C119.682 59.2197 117.804 57.8608 115.781 56.632C115.767 56.6175 115.527 56.5195 115.513 56.5051C114.678 57.2762 114.356 58.8768 114.356 58.8768C114.356 58.8768 117.79 61.4027 119.449 62.8773C119.798 63.1809 119.769 63.6001 119.74 63.7592C119.725 63.9182 119.609 64.323 119.143 64.5109C117.266 65.2916 115.17 65.9855 112.929 66.5638C109.625 67.4167 105.957 68.0673 102.071 68.4576C102.013 68.472 101.94 68.472 101.882 68.4865C101.664 68.501 101.445 68.5299 101.227 68.5443C101.198 68.5443 101.169 68.5443 101.14 68.5588C99.4516 68.7034 97.7051 68.819 95.944 68.8913C95.7112 68.9057 95.4783 68.9057 95.2455 68.9057C93.5135 68.978 91.7379 68.978 89.9478 68.9347H89.2055C88.376 68.9058 87.5318 68.8768 86.6877 68.8335C85.7708 68.7901 84.8684 68.7178 83.9661 68.6455C83.6022 68.6311 83.2384 68.5877 82.8745 68.5443C80.5313 68.3564 78.2755 68.0673 76.1215 67.7058C74.1567 67.3733 71.9154 66.8963 69.6449 66.2023C65.89 65.0458 62.0623 63.2676 59.2679 60.5642C56.8956 58.2945 55.8186 55.3309 56.328 52.4684C56.4299 51.8323 56.6191 51.2252 56.8665 50.6469C55.6585 51.7745 54.4651 52.9311 53.3008 54.1021C53.3736 57.2103 54.7271 60.2317 57.2304 62.646C60.1557 65.465 63.998 67.3589 67.7966 68.6455C70.5473 69.5708 73.2834 70.1779 75.6412 70.5683C78.3919 71.0164 81.3173 71.3634 84.3445 71.5802C84.5774 71.5947 84.8248 71.6092 85.0722 71.6236C85.5525 71.6525 86.0473 71.6814 86.5421 71.7104C87.4445 71.7537 88.3323 71.7971 89.2201 71.826H89.9623C90.6609 71.8549 91.3741 71.8549 92.0727 71.8549C93.0041 71.8549 93.9356 71.8405 94.8525 71.8116C95.0999 71.8116 95.3473 71.7971 95.5947 71.7971C97.1666 71.7393 98.6948 71.6525 100.208 71.5369C100.31 71.5224 100.398 71.5224 100.499 71.508C100.66 71.4935 100.805 71.479 100.951 71.4646C101.897 71.3923 102.843 71.2911 103.76 71.1755C107.5 70.7418 111.022 70.0767 114.224 69.1949C116.392 68.6166 118.415 67.9516 120.264 67.1854C121.515 66.6649 122.389 65.5662 122.622 64.2362C122.84 62.9207 122.374 61.6051 121.384 60.7232ZM73.8947 44.1558C81.2445 44.8931 89.0018 47.1628 98.3018 51.3119C99.0004 51.6299 99.699 51.948 100.427 52.266C100.616 52.3383 100.805 52.4251 100.994 52.5118C101.547 52.7431 101.732 52.8726 102.232 52.8726L104.352 50.9648C103.187 50.4444 103.294 50.3578 102.173 49.8662C101.271 49.4614 100.368 49.0711 99.4952 48.6808C89.9041 44.4016 81.8558 42.0451 74.1858 41.2789C72.0027 41.0621 70.0379 41.0042 68.2332 41.1199C66.5595 42.3776 64.9149 43.6643 63.3139 44.9943C66.1229 43.9823 69.5285 43.7221 73.8947 44.1558Z" fill="#2A72ED"/>
<path d="M89.3461 196.213L65.7104 230.504L48.9442 211.002L14 170.393V165.695L36.1512 148.549L72.9729 181.539L89.3461 196.213Z" fill="#FEB1A5"/>
<path d="M75.4034 92.4301L36.1512 148.551L14 165.697V149.086C14 141.944 14.5531 134.918 15.6446 128.08C31.785 109.316 60.0344 79.2744 60.0344 79.2744L75.4034 92.4301Z" fill="#FEB1A5"/>
<path d="M60.0234 79.2714C60.0234 79.2714 71.6084 63.0654 73.2676 61.8944C74.9267 60.7234 77.0516 60.9547 77.8812 60.2463C78.7108 59.5379 80.9521 56.0249 83.077 56.0249C85.2019 56.0249 88.2728 57.1959 88.2728 57.1959C88.2728 57.1959 99.1446 51.6735 101.27 52.2662C103.394 52.8589 109.303 61.8944 107.659 63.4268C106.014 64.9592 99.5085 59.3211 99.5085 59.3211L97.9075 60.7234C97.9075 60.7234 102.157 62.6606 101.924 64.4243C101.692 66.188 99.9742 78.8088 94.9531 79.5461C92.3625 79.9219 91.4019 79.0111 91.4019 79.0111C91.4019 79.0111 84.0085 90.3163 75.3925 92.427L60.0234 79.2714Z" fill="#FEB1A5"/>
<path d="M86.6241 75.6753C85.9692 75.6753 85.4016 75.1693 85.0086 74.244C84.7321 73.5935 84.572 72.7983 84.4265 72.0321C84.2082 70.8611 83.9753 69.6611 83.3349 68.9382C82.5636 68.0564 81.0936 67.9262 80.5114 67.9118C80.3222 67.9118 80.1621 67.7527 80.1767 67.5648C80.1767 67.3769 80.3514 67.1889 80.526 67.2323C81.21 67.2467 82.8983 67.4058 83.8589 68.4901C84.6157 69.3575 84.8776 70.6586 85.1105 71.902C85.2561 72.6682 85.4016 73.4055 85.649 73.9838C85.78 74.2874 86.1293 74.9958 86.6241 74.9958C86.6387 74.9958 86.6387 74.9958 86.6532 74.9958C86.857 74.9813 87.0608 74.8512 87.2209 74.75C91.8781 71.4827 87.8758 64.7746 85.7218 61.1603L86.3039 60.7988C88.5744 64.6011 92.795 71.6707 87.6138 75.3139C87.3809 75.4729 87.0608 75.6753 86.6823 75.6898C86.6532 75.6753 86.6387 75.6753 86.6241 75.6753Z" fill="#03062E"/>
<path d="M89.2446 78.4514C88.9244 78.4514 88.6188 78.3936 88.3423 78.2635C87.8329 78.0322 87.4981 77.6852 87.3526 77.1937C86.9742 76.0371 87.8038 74.5769 87.8329 74.5191C87.9348 74.36 88.1385 74.3022 88.3132 74.3889C88.4733 74.4757 88.5315 74.6926 88.4442 74.866C88.4296 74.8805 87.731 76.1238 88.0221 76.9913C88.124 77.2804 88.3277 77.4972 88.6479 77.6418C89.07 77.8298 89.623 77.8009 90.2343 77.5551C91.9226 76.8756 93.6982 74.7793 94.746 72.1915C96.3907 68.1434 93.7273 60.698 92.5484 59.7293C92.4029 59.6137 92.3737 59.3968 92.5047 59.2378C92.6212 59.0932 92.8395 59.0643 92.9996 59.1944C94.5569 60.4522 97.1475 68.1723 95.401 72.4517C94.2658 75.2419 92.3883 77.4539 90.4963 78.2057C90.0451 78.3791 89.6376 78.4514 89.2446 78.4514Z" fill="#03062E"/>
<path d="M93.6661 80.0701C93.6079 80.0701 93.5642 80.0701 93.506 80.0701C92.2543 80.0268 91.3957 79.6943 90.9445 79.0581C90.4642 78.3642 90.6971 77.6413 90.6971 77.6269C90.7553 77.4389 90.959 77.3522 91.1337 77.41C91.3083 77.4678 91.4102 77.6702 91.352 77.8437C91.352 77.8582 91.2356 78.2919 91.5121 78.6822C91.8177 79.1015 92.5163 79.3473 93.506 79.3762C96.1839 79.4629 98.3525 77.3377 99.5896 73.4054C99.7788 72.8271 99.968 72.2488 100.157 71.6705C101.22 68.4465 102.224 65.3961 101.394 64.0082C99.8952 61.5071 94.2191 59.1361 94.1609 59.1216C93.9863 59.0494 93.8989 58.847 93.9717 58.6735C94.0445 58.5 94.2483 58.4132 94.4229 58.4855C94.6703 58.5867 100.375 60.9577 101.991 63.6612C102.981 65.3093 101.933 68.5044 100.812 71.8874C100.623 72.4656 100.434 73.0439 100.245 73.6222C98.9638 77.7281 96.5623 80.0701 93.6661 80.0701Z" fill="#03062E"/>
<path d="M155.775 204.206L208.737 200.924L236.157 128.828L255.077 133.05C255.077 133.05 247.276 221.814 231.674 228.16C216.073 234.507 154.844 237.557 154.844 237.557L155.79 205.145V204.206H155.775Z" fill="#FEB1A5"/>
<path d="M280.302 110.254C278.702 113.767 277.275 116.557 276.824 116.962C275.529 118.133 256.026 124.71 256.026 124.71L254.964 133.023L254.833 133.992L236.16 128.831C236.16 128.831 236.277 116.383 240.308 113.564C240.817 113.217 241.341 112.885 241.88 112.596C244.893 110.962 248.255 110.239 249.506 109.993C249.826 109.95 250.001 109.921 250.001 109.921C250.001 109.921 253.378 98.3269 259.301 101.059C259.534 101.16 259.781 101.291 260.029 101.45C260.029 101.464 260.043 101.464 260.043 101.464C260.043 101.464 263.012 96.4764 266.927 99.5268V99.5413C266.986 99.5846 267.058 99.6425 267.131 99.7003C267.131 99.7003 267.248 99.5846 267.466 99.3967C268.354 98.6305 270.813 96.6933 272.807 97.0836C273.375 97.1848 273.913 97.4884 274.35 98.0667C274.656 98.4715 274.918 98.8618 275.107 99.2521C276.155 101.131 276.14 102.823 276.067 103.604C276.053 103.618 276.053 103.633 276.067 103.647C276.038 103.835 276.009 103.965 276.009 104.023C276.024 104.008 276.038 103.979 276.067 103.936C276.184 103.777 276.402 103.43 276.693 102.982C276.926 102.664 277.173 102.288 277.464 101.869C278.498 104.616 279.444 107.42 280.302 110.254Z" fill="#FEB1A5"/>
<path d="M251.356 111.495C251.064 111.495 250.788 111.437 250.526 111.336C250.089 111.148 249.755 110.83 249.595 110.425C249.333 109.76 249.536 109.08 249.798 108.43C250.599 106.478 251.676 104.656 253.029 103.023C254.15 101.678 255.896 100.131 257.919 100.493C258.924 100.666 259.884 101.331 260.554 102.314C261.18 103.211 261.514 104.266 261.762 105.177C262.213 106.854 262.504 108.603 262.635 110.338C262.649 110.526 262.504 110.7 262.315 110.7C262.14 110.728 261.951 110.569 261.951 110.381C261.834 108.69 261.543 106.984 261.107 105.35C260.874 104.497 260.568 103.514 260.001 102.705C259.433 101.881 258.633 101.317 257.818 101.172C256.115 100.883 254.587 102.257 253.582 103.471C252.272 105.047 251.225 106.811 250.453 108.704C250.249 109.21 250.075 109.745 250.249 110.179C250.366 110.468 250.613 110.627 250.802 110.7C251.152 110.844 251.588 110.844 251.923 110.7C252.651 110.396 253.087 109.63 253.32 109.037C253.393 108.863 253.597 108.762 253.772 108.835C253.946 108.907 254.033 109.109 253.975 109.283C253.699 109.991 253.16 110.931 252.2 111.336C251.938 111.437 251.647 111.495 251.356 111.495Z" fill="#03062E"/>
<path d="M269.933 110.353C269.744 110.353 269.598 110.209 269.583 110.021C269.467 107.766 269.161 105.51 268.637 103.298C268.405 102.315 268.099 101.188 267.415 100.335C266.513 99.2214 264.97 98.672 263.558 98.9756C262.146 99.2792 260.967 100.421 260.618 101.809C260.574 101.997 260.385 102.098 260.196 102.055C260.007 102.012 259.89 101.824 259.949 101.636C260.371 100.002 261.753 98.6576 263.427 98.2961C265.086 97.9347 266.92 98.5853 267.982 99.9009C268.754 100.87 269.089 102.069 269.336 103.139C269.86 105.38 270.18 107.679 270.297 109.978C270.311 110.166 270.166 110.325 269.962 110.339C269.933 110.353 269.933 110.353 269.933 110.353Z" fill="#03062E"/>
<path d="M275.74 110.512C275.711 110.512 275.682 110.512 275.653 110.498C275.464 110.455 275.347 110.267 275.391 110.079C275.988 107.65 276.177 105.149 275.959 102.662C275.871 101.65 275.697 100.335 275.071 99.2358C274.46 98.166 273.441 97.4431 272.422 97.3564C271.956 97.313 271.432 97.3998 270.821 97.6022C269.526 98.0359 268.376 98.8166 267.503 99.8575C267.386 100.002 267.154 100.017 267.008 99.9009C266.862 99.7852 266.848 99.5683 266.964 99.4093C267.925 98.2672 269.177 97.4142 270.588 96.9371C271.287 96.7058 271.913 96.6046 272.48 96.6624C273.732 96.7636 274.955 97.6311 275.682 98.8888C276.366 100.103 276.57 101.506 276.657 102.59C276.876 105.163 276.686 107.737 276.061 110.238C276.046 110.411 275.901 110.512 275.74 110.512Z" fill="#03062E"/>
<path d="M173.85 201.505L173.763 203.081L171.987 236.476L171.725 241.42L159.048 241.651L158.481 241.666V285.658H75.0281V242.605C74.9263 242.605 74.8389 242.591 74.7371 242.591C49.2384 241.218 45.9492 214.661 45.9492 214.661L48.9328 211.003L72.9615 181.54L74.1986 180.022C86.9479 179.184 94.9963 185.964 98.5911 189.983C100.076 191.631 100.803 192.816 100.803 192.816L118.588 194.002L129.169 194.696C129.169 194.696 129.46 194.58 129.999 194.407C132.735 193.467 141.991 190.706 153.634 191.284C167.592 191.992 173.85 201.505 173.85 201.505Z" fill="#2196F6"/>
<path d="M95.6746 135.782C90.7263 136.751 85.545 137.503 80.7277 136.014C75.9248 134.525 71.6605 130.144 71.9516 125.157C72.0389 123.812 72.4319 122.497 72.9849 121.268C74.0765 118.868 75.7938 116.743 77.9187 115.153C73.9891 108.662 74.2366 100.045 78.6755 93.8723C83.1145 87.7137 91.5267 84.62 98.8911 86.5717C106.255 88.5233 112.033 95.477 112.426 103.038C116.254 101.766 121.013 103.5 123.458 106.695C126.034 110.078 126.093 114.806 124.928 118.897C123.342 124.405 119.703 129.306 114.857 132.428C110.01 135.551 101.336 134.684 95.6746 135.782Z" fill="#03062E"/>
<path d="M125.655 115.079C129.759 114.168 134.009 113.864 138.215 114.153C140.515 114.312 142.843 114.674 144.968 115.556C147.107 116.438 149.058 117.883 150.222 119.864C151.75 122.437 151.808 125.589 151.823 128.581C156.975 128.625 161.647 132.311 162.768 137.313C163.161 139.077 163.131 140.913 162.899 142.705C162.477 145.843 161.385 148.965 159.246 151.307C157.397 153.331 154.894 154.676 152.274 155.514C149.654 156.353 146.918 156.729 144.197 157.075C143.862 156.324 143.644 155.673 143.309 154.921C142.217 152.435 141.111 149.948 139.889 147.534C134.707 137.328 127.11 128.046 124.84 116.842L125.655 115.079Z" fill="#03062E"/>
<path d="M130.934 204.54C130.934 204.54 132.375 214.934 117.792 214.63C103.209 214.327 100.109 202.386 100.109 202.386L96.6016 172.619L106.673 178.04L129.29 185.775L130.163 195.75L130.934 204.54Z" fill="#FEB1A5"/>
<path d="M130.15 195.75C127.254 196.878 123.936 196.242 121.039 195.085C114.082 192.338 108.261 186.7 105.117 179.717L106.66 178.04L129.277 185.775L130.15 195.75Z" fill="#FF8C7A"/>
<path d="M152.031 159.936C152.001 160.673 151.958 161.411 151.9 162.177L151.885 162.191C151.463 167.902 150.313 174.277 147.635 179.525C147.14 180.522 146.573 181.462 145.961 182.344C144.87 183.963 143.604 185.365 142.119 186.58C138.539 189.457 134.187 190.816 129.719 191.249C123.272 191.9 116.591 190.628 111.73 189.124C111.308 188.994 110.915 188.864 110.537 188.719C108.368 187.996 104.308 185.047 102.023 180.493L100.029 177.747C98.7774 176.879 98.5445 176.041 97.875 175.058C97.6858 174.769 97.4238 174.45 97.1182 174.132C93.2032 170.171 90.2778 165.242 88.706 159.835C88.6623 159.719 88.6478 159.618 88.6041 159.502V159.473C88.4586 159.069 88.3712 158.664 88.2694 158.23C88.1966 157.97 88.1238 157.695 88.0802 157.42C88.0365 157.218 87.9783 157.001 87.9492 156.813C87.8036 156.105 87.7163 155.397 87.6144 154.659C87.0468 152.086 86.7994 149.383 86.9013 146.636C87.6435 129.273 102.489 115.785 120.084 116.537C125.499 116.754 130.563 118.315 134.915 120.859C134.973 120.888 135.017 120.917 135.061 120.946C143.342 125.673 149.091 133.899 151.012 143.224C151.274 144.409 151.463 145.624 151.579 146.838L151.594 146.824C151.594 146.824 151.652 147.286 151.739 148.139C151.958 150.235 152.278 154.688 152.031 159.936Z" fill="#FEB1A5"/>
<path d="M120.273 148.401C119.909 148.748 119.545 149.124 119.385 149.616C119.225 150.107 119.342 150.7 119.764 150.96C119.967 151.076 120.2 151.119 120.433 151.148C122.238 151.35 124.086 151.076 125.745 150.338C126.138 150.165 126.531 149.962 126.822 149.659C127.128 149.355 127.332 148.936 127.288 148.502C127.244 148.04 126.924 147.664 126.56 147.375C124.552 145.799 121.889 146.84 120.273 148.401Z" fill="#03062E"/>
<path d="M148.865 147.765C149.272 148.069 149.68 148.402 149.898 148.85C150.116 149.298 150.087 149.92 149.68 150.238C149.491 150.382 149.272 150.454 149.039 150.512C147.278 150.932 145.401 150.888 143.669 150.353C143.261 150.223 142.854 150.079 142.519 149.804C142.184 149.544 141.922 149.139 141.922 148.72C141.908 148.257 142.184 147.838 142.505 147.505C144.295 145.713 147.06 146.421 148.865 147.765Z" fill="#03062E"/>
<g opacity="0.45">
<g opacity="0.45">
<g opacity="0.45">
<g opacity="0.45">
<g opacity="0.45">
<path opacity="0.45" d="M124.959 172.782C123.416 178.493 117.711 181.818 112.21 180.199C106.708 178.594 103.492 172.652 105.035 166.941C106.577 161.231 112.283 157.92 117.784 159.525C123.286 161.129 126.502 167.071 124.959 172.782Z" fill="#2A72ED"/>
</g>
</g>
</g>
</g>
</g>
<g opacity="0.45">
<g opacity="0.45">
<g opacity="0.45">
<g opacity="0.45">
<g opacity="0.45">
<path opacity="0.45" d="M152.038 159.94C152.009 160.678 151.965 161.415 151.907 162.181L151.892 162.196C151.47 167.906 150.32 174.282 147.643 179.53C144.004 177.029 142.141 172.287 143.393 167.675C144.557 163.396 148.036 160.461 152.038 159.94Z" fill="#2A72ED"/>
</g>
</g>
</g>
</g>
</g>
<path d="M127.542 157.956C127.178 159.734 125.49 160.862 123.773 160.471C122.055 160.081 120.964 158.317 121.328 156.539C121.692 154.761 123.38 153.633 125.097 154.024C126.815 154.414 127.906 156.178 127.542 157.956Z" fill="#03062E"/>
<path d="M148.034 157.91C147.671 159.688 145.982 160.816 144.265 160.426C142.548 160.035 141.456 158.271 141.82 156.493C142.184 154.715 143.872 153.587 145.589 153.978C147.307 154.368 148.398 156.132 148.034 157.91Z" fill="#03062E"/>
<path d="M136.375 170.104C135.676 170.451 134.861 170.639 133.915 170.567C129.578 170.234 128.661 165.666 128.647 165.623C128.588 165.29 128.792 164.972 129.098 164.914C129.418 164.856 129.709 165.059 129.782 165.391C129.811 165.55 130.539 169.107 133.988 169.367C137.365 169.627 138.267 165.796 138.296 165.637C138.369 165.319 138.674 165.117 138.995 165.189C139.3 165.261 139.504 165.594 139.431 165.912C139.155 167.169 138.209 169.193 136.375 170.104Z" fill="#03062E"/>
<path d="M97.2437 175.524C95.2353 176.305 92.8047 176.363 90.3306 175.553C84.9165 173.761 81.3944 168.44 82.4423 163.655C82.8643 161.776 83.9268 160.243 85.3967 159.202C85.4258 159.188 85.455 159.173 85.4695 159.159C87.7108 157.612 90.8982 157.178 94.1292 158.248C97.1418 159.231 99.5578 161.313 100.94 163.814C102.061 165.795 102.483 168.007 102.017 170.132C101.45 172.734 99.6451 174.628 97.2437 175.524Z" fill="#FEB1A5"/>
<path d="M88.4912 157.61C88.4912 157.61 93.9053 156.236 98.5044 160.978C98.5044 160.978 106.305 158.867 109.143 152.347C111.981 145.827 111.981 140.724 111.981 140.724C111.981 140.724 120.67 143.717 128.122 136.141C135.574 128.566 133.973 117.116 133.973 117.116C133.973 117.116 123.159 112.013 109.507 114.644C95.8556 117.29 79.1912 123.622 79.7152 134.551C80.2537 145.466 84.6199 159.85 84.6199 159.85C84.6199 159.85 85.6241 158.477 88.4912 157.61Z" fill="#03062E"/>
<path d="M98.5 160.994L100.392 165.331C100.916 166.531 102.648 166.459 103.055 165.215L106.708 154.401L98.5 160.994Z" fill="#03062E"/>
<path d="M159.124 225.951C159.124 225.965 159.124 225.965 159.124 225.98L159.081 237.299L159.052 241.651L158.862 285.657H158.164L158.382 237.343L158.441 225.98C158.441 225.792 158.586 225.633 158.79 225.633C158.964 225.647 159.124 225.777 159.124 225.951Z" fill="#03062E"/>
<path d="M75.453 229.855L75.3948 285.658H74.7109L74.7546 242.591L74.7691 229.855C74.7691 229.667 74.9146 229.508 75.1038 229.508C75.3075 229.508 75.453 229.667 75.453 229.855Z" fill="#03062E"/>
<path d="M269.089 210.177L275.129 234.941L276.206 239.408L281.649 261.729C281.649 261.729 271.17 264.722 258.028 268.466C256.572 268.871 255.088 269.29 253.574 269.724C240.738 273.353 226.271 277.429 216.694 280.061L216.52 280.104C210.087 281.882 205.866 282.981 205.823 282.865C206.012 282.273 192.738 228.681 192.738 228.681C192.709 228.566 196.464 227.583 202.344 226.123C211.499 223.853 225.776 220.427 238.773 217.347C240.301 217 241.8 216.639 243.285 216.278C257.446 212.909 269.089 210.177 269.089 210.177Z" fill="#2A72ED"/>
<path d="M243.271 216.276L258.028 268.465C256.573 268.87 255.088 269.289 253.575 269.723L238.773 217.332C240.287 216.999 241.786 216.623 243.271 216.276Z" fill="#2A72ED"/>
<path d="M243.271 216.276L258.028 268.465C256.573 268.87 255.088 269.289 253.575 269.723L238.773 217.332C240.287 216.999 241.786 216.623 243.271 216.276Z" fill="white" fill-opacity="0.5"/>
<path d="M275.113 234.954L276.19 239.407L251.536 245.522L247.038 246.636L204.395 257.189L203.289 252.722L245.787 242.212L250.284 241.098L275.113 234.954Z" fill="#2A72ED"/>
<path d="M275.113 234.954L276.19 239.407L251.536 245.522L247.038 246.636L204.395 257.189L203.289 252.722L245.787 242.212L250.284 241.098L275.113 234.954Z" fill="white" fill-opacity="0.5"/>
<path d="M202.331 226.123L207.934 248.936L209.259 254.328L216.492 280.119C210.059 281.897 205.839 282.996 205.795 282.88C205.984 282.287 192.711 228.696 192.711 228.696C192.696 228.566 196.466 227.583 202.331 226.123Z" fill="#03062E"/>
<path d="M250.113 241.149C250.084 241.076 250.055 241.004 250.011 240.917C249.895 240.671 249.764 240.353 249.589 239.992C249.589 239.992 249.589 239.992 249.589 239.978C249.574 239.963 249.56 239.934 249.56 239.92C249.429 239.674 249.312 239.385 249.152 239.096C249.094 238.994 249.051 238.879 248.992 238.778C247.581 235.987 245.077 231.636 241.846 228.238C240.114 226.417 238.164 224.87 236.068 223.973C233.55 222.889 230.814 222.759 227.947 224.219C224.454 225.997 222.839 228.267 222.533 230.667C221.907 235.525 226.579 240.859 231.542 243.36C232.866 244.026 234.191 244.503 235.457 244.691C235.53 244.705 235.603 244.719 235.675 244.719C239.62 245.327 243.127 244.633 245.703 243.736C245.863 243.679 246.023 243.621 246.183 243.563C246.649 243.404 247.071 243.23 247.464 243.057C247.959 242.84 248.396 242.623 248.774 242.435C249.007 242.32 249.211 242.218 249.385 242.117C249.487 242.059 249.589 241.987 249.662 241.944C249.705 241.929 249.735 241.915 249.764 241.886C249.88 241.814 249.997 241.756 250.069 241.698C250.142 241.655 250.186 241.626 250.229 241.597H250.244C250.288 241.568 250.302 241.553 250.302 241.553C250.302 241.553 250.244 241.409 250.113 241.149ZM230.756 228.498C231.164 228.18 231.644 227.891 232.197 227.617C232.561 227.443 232.91 227.284 233.259 227.197C236.883 225.997 240.158 228.267 242.676 231.202C242.676 231.202 242.69 231.202 242.69 231.216C245.354 234.296 247.202 238.098 247.799 239.428C247.944 239.732 248.017 239.891 248.017 239.891C248.017 239.891 247.086 240.541 245.499 241.177C243.593 241.929 240.769 242.652 237.538 242.132C237.364 242.088 237.218 242.074 237.058 242.03H237.043C231.542 240.773 224.585 233.053 230.756 228.498Z" fill="white"/>
<path d="M260.899 216.223C256.14 216.252 253.273 219.216 251.541 223.119H251.527C249.911 226.762 249.285 231.215 249.082 234.873C249.038 235.466 249.023 236.029 249.009 236.579C248.994 237.374 248.98 238.126 248.994 238.776V239.138C249.009 239.716 249.023 240.222 249.038 240.641C249.038 240.656 249.038 240.656 249.038 240.67C249.053 240.742 249.053 240.8 249.053 240.858C249.053 240.916 249.067 240.974 249.067 241.017V241.234C249.082 241.292 249.082 241.35 249.082 241.407V241.465C249.082 241.48 249.082 241.48 249.082 241.494C249.096 241.523 249.082 241.523 249.082 241.538C249.096 241.726 249.111 241.841 249.111 241.841C249.111 241.841 249.227 241.856 249.416 241.87C249.475 241.87 249.547 241.885 249.62 241.885H249.766C249.911 241.899 250.1 241.913 250.304 241.928L250.319 241.913H250.522C250.61 241.928 250.712 241.928 250.814 241.928C250.959 241.928 251.105 241.928 251.265 241.913C252.415 241.899 253.943 241.783 255.689 241.422C255.791 241.393 255.893 241.379 256.009 241.35C258.411 240.8 261.132 239.759 263.738 237.851C263.781 237.822 263.825 237.779 263.869 237.75C264.858 236.998 265.79 236 266.619 234.858C271.451 228.15 272.776 216.151 260.899 216.223ZM261.089 236.203C260.958 236.319 260.827 236.405 260.71 236.506C258.935 237.808 257.072 238.545 255.413 238.935C252.575 239.629 250.362 239.34 250.362 239.34C250.362 239.34 250.348 239.152 250.333 238.805C250.231 236.94 250.042 230.391 252.196 225.837C253.433 223.191 255.456 221.211 258.716 221.196C268.351 221.138 265.688 232.343 261.089 236.203Z" fill="white"/>
<path d="M232.302 269.017C232.534 267.542 232.942 265.865 232.898 264.376C231.326 263.437 229.929 262.294 228.648 261.008C233.087 261.572 237.745 259.49 240.277 255.832C242.024 253.302 242.751 250.223 243.857 247.36C244.964 244.498 246.695 241.592 249.563 240.406C246.943 242.575 246.128 246.348 245.531 249.673C244.934 252.998 244.629 256.468 243.042 259.461C240.917 263.437 236.318 266.906 232.302 269.017Z" fill="white"/>
<path d="M270.266 255.731C270.95 254.921 271.649 254.069 272.202 253.158C270.121 254.82 266.817 255.297 264.852 253.505C263.732 252.478 263.251 250.96 262.698 249.543C261.563 246.695 259.846 243.977 257.284 242.257C254.723 240.537 251.288 240.031 248.566 241.462C251.011 241.259 253.34 242.72 254.868 244.628C256.396 246.536 257.284 248.849 258.245 251.09C259.205 253.331 260.326 255.601 262.174 257.206C263.935 258.738 266.308 259.562 268.636 259.461C270.135 259.389 271.838 258.738 272.231 257.307C271.387 257.336 270.543 256.526 270.266 255.731Z" fill="white"/>
<path d="M118.071 235.215L108.146 259.618L106.355 264.013L97.4046 286.002C97.4046 286.002 86.7948 282.257 73.4924 277.544C72.0224 277.01 70.5234 276.489 68.9952 275.94C56.013 271.314 41.4008 266.109 31.766 262.582L31.5914 262.524C25.1148 260.167 20.8942 258.577 20.9378 258.447C21.4618 258.057 42.7543 205.131 42.7543 205.131C42.798 205.015 46.5529 206.432 52.3745 208.716C61.4417 212.272 75.5008 217.939 88.2793 223.1C89.7783 223.722 91.2483 224.3 92.7037 224.893C106.661 230.56 118.071 235.215 118.071 235.215Z" fill="#2196F6"/>
<path d="M118.071 235.215L108.146 259.618L106.355 264.013L97.4046 286.002C97.4046 286.002 86.7948 282.257 73.4924 277.544C72.0224 277.01 70.5234 276.489 68.9952 275.94C56.013 271.314 41.4008 266.109 31.766 262.582L31.5914 262.524C25.1148 260.167 20.8942 258.577 20.9378 258.447C21.4618 258.057 42.7543 205.131 42.7543 205.131C42.798 205.015 46.5529 206.432 52.3745 208.716C61.4417 212.272 75.5008 217.939 88.2793 223.1C89.7783 223.722 91.2483 224.3 92.7037 224.893C106.661 230.56 118.071 235.215 118.071 235.215Z" fill="white" fill-opacity="0.75"/>
<path d="M92.6929 224.923L73.4816 277.56C72.0116 277.025 70.5125 276.505 68.9844 275.956L88.2684 223.116C89.753 223.738 91.2375 224.331 92.6929 224.923Z" fill="#2A72ED"/>
<path d="M92.6929 224.923L73.4816 277.56C72.0116 277.025 70.5125 276.505 68.9844 275.956L88.2684 223.116C89.753 223.738 91.2375 224.331 92.6929 224.923Z" fill="white" fill-opacity="0.9"/>
<path d="M108.139 259.622L106.349 264.017L81.9269 254.418L77.4879 252.669L35.2812 236.058L37.0568 231.648L79.118 248.201L83.5569 249.951L108.139 259.622Z" fill="#2A72ED"/>
<path d="M108.139 259.622L106.349 264.017L81.9269 254.418L77.4879 252.669L35.2812 236.058L37.0568 231.648L79.118 248.201L83.5569 249.951L108.139 259.622Z" fill="white" fill-opacity="0.9"/>
<path d="M52.3773 208.731L43.2665 231.24L41.1271 236.56L31.5797 262.539C25.1031 260.183 20.8825 258.592 20.9261 258.462C21.4501 258.072 42.7426 205.146 42.7426 205.146C42.8008 205.016 46.5557 206.447 52.3773 208.731Z" fill="#03062E"/>
<path d="M84.2663 234.116C84.2663 234.116 84.2808 234.116 84.2663 234.116C83.5094 228.478 81.0935 223.317 75.039 222.42C73.6564 222.218 72.4193 222.189 71.3277 222.348C67.2235 222.854 65.1277 225.601 64.4728 229.056C63.7596 232.728 64.6474 237.196 66.4667 240.651C66.5686 240.839 66.6559 241.012 66.7578 241.186C67.3982 242.314 68.1404 243.311 68.9554 244.106L69.1155 244.265C70.9202 246 72.885 247.258 74.7479 248.125C74.8498 248.183 74.9371 248.227 75.039 248.27C75.17 248.342 75.301 248.4 75.432 248.443C76.3634 248.848 77.2658 249.166 78.1099 249.426C78.2846 249.47 78.4592 249.528 78.6338 249.571C79.1287 249.701 79.5944 249.817 80.031 249.904C80.5841 250.019 81.0789 250.106 81.501 250.164C81.763 250.207 81.9958 250.236 82.2141 250.265C82.3306 250.265 82.447 250.279 82.5489 250.279C82.578 250.294 82.6071 250.294 82.6508 250.294C82.7963 250.308 82.9273 250.323 83.0292 250.323C83.1019 250.323 83.1601 250.337 83.2038 250.337C83.2766 250.337 83.3057 250.337 83.3057 250.337C83.3057 250.337 83.3493 250.178 83.4076 249.889V249.875C83.4221 249.802 83.4512 249.716 83.4658 249.629C83.524 249.354 83.5968 249.007 83.6695 248.602C83.6695 248.602 83.6695 248.602 83.6695 248.588C83.6695 248.574 83.6695 248.545 83.6841 248.516C83.7278 248.241 83.786 247.923 83.8442 247.576C83.8587 247.46 83.8733 247.33 83.8878 247.215C84.3827 244.034 84.9212 238.902 84.2663 234.116ZM76.5526 227.827C81.1808 228.521 82.7963 232.728 83.1893 237.066C83.5677 241.258 82.8109 245.581 82.5052 247.055C82.4325 247.402 82.4033 247.576 82.4033 247.576C82.4033 247.576 81.2245 247.561 79.5071 247.142C78.3282 246.853 76.8874 246.376 75.432 245.538C75.301 245.48 75.17 245.407 75.039 245.321C74.9371 245.277 74.8353 245.205 74.7479 245.147C73.8892 244.627 73.0451 243.976 72.2446 243.181C72.1282 243.065 72.0118 242.95 71.8953 242.82V242.805C71.7352 242.632 71.5897 242.444 71.4442 242.256C67.7038 237.311 67.078 226.411 76.5526 227.827Z" fill="white"/>
<path d="M107.556 235.387C103.539 232.582 99.3328 233.349 95.5197 235.59H95.5051C91.9394 237.686 88.7229 241.054 86.3361 243.989C85.9431 244.466 85.5793 244.929 85.2445 245.377C84.7351 246.042 84.284 246.664 83.891 247.213C83.8182 247.314 83.7455 247.416 83.6873 247.531C83.338 248.023 83.0469 248.457 82.7995 248.818C82.7995 248.832 82.7849 248.832 82.7849 248.847C82.7412 248.905 82.7121 248.963 82.683 249.006C82.6539 249.049 82.6248 249.093 82.5957 249.136C82.552 249.208 82.5084 249.281 82.4647 249.338C82.4356 249.396 82.4065 249.44 82.3774 249.483C82.3628 249.497 82.3483 249.526 82.3337 249.541C82.3337 249.555 82.3192 249.555 82.3192 249.57C82.3192 249.584 82.3192 249.584 82.3046 249.584C82.2027 249.758 82.1445 249.859 82.1445 249.859C82.1445 249.859 82.2173 249.946 82.3774 250.061C82.4211 250.105 82.4793 250.162 82.552 250.206C82.5811 250.235 82.6248 250.264 82.6539 250.293C82.7704 250.394 82.9304 250.509 83.0905 250.654H83.1051C83.1633 250.697 83.2215 250.726 83.2797 250.77C83.3525 250.827 83.4398 250.885 83.5272 250.958C83.6436 251.044 83.7746 251.131 83.9056 251.232C84.8807 251.897 86.2342 252.707 87.9079 253.43C88.0098 253.488 88.1262 253.531 88.2281 253.574C90.5713 254.543 93.4967 255.295 96.8441 255.251C96.9023 255.251 96.9605 255.251 97.0187 255.237C98.2849 255.194 99.6676 254.933 101.065 254.456C109.186 251.709 117.569 242.428 107.556 235.387ZM95.607 252.288C95.4323 252.302 95.2722 252.302 95.1122 252.317C92.8272 252.36 90.8187 251.839 89.1887 251.189C86.3943 250.076 84.706 248.5 84.706 248.5C84.706 248.5 84.8079 248.341 84.9971 248.052C86.045 246.418 89.8582 240.809 94.4136 238.264C97.0624 236.79 99.9586 236.341 102.709 238.264C110.83 243.975 101.807 251.796 95.607 252.288Z" fill="white"/>
<path d="M51.5664 262.64C52.658 261.542 54.0115 260.385 54.8847 259.098C54.1279 257.378 53.6476 255.585 53.3565 253.72C56.7476 256.843 61.9143 257.884 66.2514 256.323C69.2641 255.238 71.7237 253.084 74.3871 251.349C77.0505 249.615 80.2669 248.198 83.3815 248.921C79.874 249.181 76.905 251.855 74.3871 254.299C71.8693 256.742 69.5115 259.474 66.3678 261.036C62.1763 263.118 56.2237 263.277 51.5664 262.64Z" fill="white"/>
<path d="M91.4846 274.163C92.547 273.888 93.6531 273.584 94.6573 273.165C91.9066 273.31 88.8357 271.748 88.2681 269.074C87.9479 267.541 88.4719 265.98 88.8503 264.462C89.6216 261.397 89.8254 258.086 88.7193 255.108C87.6132 252.144 85.0226 249.643 81.8789 249.238C84.062 250.525 85.1245 253.156 85.2554 255.672C85.3864 258.187 84.7315 260.659 84.1784 263.117C83.6399 265.575 83.2033 268.148 83.7709 270.592C84.324 272.934 85.8085 275.044 87.8315 276.346C89.1268 277.184 90.9461 277.647 92.154 276.693C91.4554 276.187 91.2371 275.001 91.4846 274.163Z" fill="white"/>
</svg>
