<svg width="300" height="300" viewBox="0 0 300 300" fill="none" xmlns="http://www.w3.org/2000/svg">
<rect width="300" height="300" fill="white"/>
<path d="M286 149.255V286H14V149.255C14 142.104 14.553 135.069 15.6446 128.222C21.5826 90.3557 43.3118 57.6856 73.948 37.1166C74.2682 36.885 74.5884 36.6823 74.9086 36.4652C81.9964 31.7898 89.5499 27.7657 97.4818 24.4654C113.637 17.7201 131.378 14 149.993 14H150.065C168.68 14.0145 186.421 17.749 202.591 24.4944C205.254 25.609 207.874 26.7959 210.45 28.0842C210.799 28.2434 211.149 28.4171 211.498 28.5908C224.364 35.0901 236.065 43.5724 246.166 53.6181C257.052 64.4454 266.105 77.0966 272.799 91.065C274.517 94.6258 276.074 98.2591 277.457 101.979C278.49 104.729 279.436 107.538 280.295 110.375C284.006 122.693 286 135.735 286 149.255Z" fill="#2A72ED"/>
<path d="M286 149.255V286H14V149.255C14 142.104 14.553 135.069 15.6446 128.222C21.5826 90.3557 43.3118 57.6856 73.948 37.1166C74.2682 36.885 74.5884 36.6823 74.9086 36.4652C81.9964 31.7898 89.5499 27.7657 97.4818 24.4654C113.637 17.7201 131.378 14 149.993 14H150.065C168.68 14.0145 186.421 17.749 202.591 24.4944C205.254 25.609 207.874 26.7959 210.45 28.0842C210.799 28.2434 211.149 28.4171 211.498 28.5908C224.364 35.0901 236.065 43.5724 246.166 53.6181C257.052 64.4454 266.105 77.0966 272.799 91.065C274.517 94.6258 276.074 98.2591 277.457 101.979C278.49 104.729 279.436 107.538 280.295 110.375C284.006 122.693 286 135.735 286 149.255Z" fill="white" fill-opacity="0.9"/>
<path d="M146.088 12.8432C139.757 10.9558 133.28 9.38065 126.687 9.05427C120.08 8.74207 113.297 9.74962 107.461 12.7864C103.313 14.9434 99.5292 18.4343 98.6997 22.9328C98.1175 26.0973 99.049 29.3328 100.184 32.3555C96.371 32.1 92.5142 33.4623 89.6034 35.8747C86.6926 38.2872 84.7133 41.6788 83.8255 45.3116C82.6175 50.2784 83.5635 55.8553 86.9837 59.7152C89.5597 62.6101 93.3147 64.3414 97.1715 65.0793C101.028 65.8172 105.016 65.6327 108.917 65.207C118.522 64.1569 127.939 61.6309 136.904 58.1116C141.896 56.1533 146.844 53.826 150.861 50.3209C156.523 45.3542 160.03 38.4149 163.29 31.8304C164.527 29.347 165.983 26.4521 164.775 23.6991C163.596 21.0313 160.409 19.0445 157.964 17.6113C154.267 15.4543 150.177 14.0636 146.088 12.8432Z" fill="#03062E"/>
<path d="M126.354 134.862C126.354 134.862 124.521 147.889 143.135 147.506C161.75 147.123 165.708 132.166 165.708 132.166L170.177 94.8867L157.325 101.684L128.45 111.362L127.344 123.864L126.354 134.862Z" fill="#FEB1A5"/>
<path d="M126.354 134.862C126.354 134.862 124.521 147.889 143.135 147.506C161.75 147.123 165.708 132.166 165.708 132.166L170.177 94.8867L157.325 101.684L128.45 111.362L127.344 123.864L126.354 134.862Z" fill="#FEB1A5"/>
<g opacity="0.36">
<g opacity="0.36">
<g opacity="0.36">
<g opacity="0.36">
<path opacity="0.36" d="M126.354 134.862C126.354 134.862 124.521 147.889 143.135 147.506C161.75 147.123 165.708 132.166 165.708 132.166L170.177 94.8867L157.325 101.684L128.45 111.362L127.344 123.864L126.354 134.862Z" fill="#03062E"/>
</g>
</g>
</g>
</g>
<path d="M127.355 123.85C131.052 125.269 135.273 124.474 138.984 123.027C147.862 119.593 155.299 112.526 159.302 103.77L157.337 101.67L128.462 111.348L127.355 123.85Z" fill="#FF8C7A"/>
<path d="M99.3238 79.0142C99.3529 79.9365 99.4111 80.8589 99.4839 81.8097L99.4984 81.8239C100.037 88.976 101.507 96.9654 104.927 103.536C105.567 104.785 106.281 105.962 107.052 107.069C108.449 109.084 110.065 110.858 111.957 112.377C116.527 115.967 122.072 117.684 127.791 118.223C136.014 119.032 144.543 117.443 150.743 115.555C151.282 115.399 151.791 115.229 152.271 115.059C155.037 114.165 160.232 110.461 163.143 104.756L165.69 101.322C167.291 100.229 167.582 99.1792 168.441 97.9446C168.688 97.5756 169.008 97.1783 169.416 96.7809C174.408 91.8142 178.134 85.6554 180.157 78.8722C180.215 78.7303 180.23 78.5884 180.288 78.4607V78.4181C180.462 77.9214 180.593 77.3964 180.71 76.8571C180.797 76.5307 180.884 76.1902 180.957 75.8354C181.015 75.58 181.074 75.3104 181.117 75.0691C181.292 74.1893 181.423 73.2953 181.539 72.3729C182.267 69.1374 182.587 65.7742 182.442 62.3116C181.496 40.5572 162.546 23.6703 140.09 24.5927C133.176 24.8623 126.729 26.8206 121.155 29.9994C121.082 30.0277 121.038 30.0703 120.98 30.0987C110.414 36.0304 103.079 46.3329 100.619 58.0118C100.284 59.5019 100.051 61.0203 99.8914 62.5387L99.8768 62.5245C99.8768 62.5245 99.8041 63.1063 99.6876 64.1706C99.4257 66.8385 99.0181 72.4155 99.3238 79.0142Z" fill="#FEB1A5"/>
<g opacity="0.36">
<g opacity="0.36">
<path opacity="0.36" d="M99.3238 79.0142C99.3529 79.9365 99.4111 80.8589 99.4839 81.8097L99.4984 81.8239C100.037 88.976 101.507 96.9654 104.927 103.536C105.567 104.785 106.281 105.962 107.052 107.069C108.449 109.084 110.065 110.858 111.957 112.377C116.527 115.967 122.072 117.684 127.791 118.223C136.014 119.032 144.543 117.443 150.743 115.555C151.282 115.399 151.791 115.229 152.271 115.059C155.037 114.165 160.232 110.461 163.143 104.756L165.69 101.322C167.291 100.229 167.582 99.1792 168.441 97.9446C168.688 97.5756 169.008 97.1783 169.416 96.7809C174.408 91.8142 178.134 85.6554 180.157 78.8722C180.215 78.7303 180.23 78.5884 180.288 78.4607V78.4181C180.462 77.9214 180.593 77.3964 180.71 76.8571C180.797 76.5307 180.884 76.1902 180.957 75.8354C181.015 75.58 181.074 75.3104 181.117 75.0691C181.292 74.1893 181.423 73.2953 181.539 72.3729C182.267 69.1374 182.587 65.7742 182.442 62.3116C181.496 40.5572 162.546 23.6703 140.09 24.5927C133.176 24.8623 126.729 26.8206 121.155 29.9994C121.082 30.0277 121.038 30.0703 120.98 30.0987C110.414 36.0304 103.079 46.3329 100.619 58.0118C100.284 59.5019 100.051 61.0203 99.8914 62.5387L99.8768 62.5245C99.8768 62.5245 99.8041 63.1063 99.6876 64.1706C99.4257 66.8385 99.0181 72.4155 99.3238 79.0142Z" fill="#03062E"/>
</g>
</g>
<path d="M132.736 61.3759C132.197 61.6597 131.688 62.0144 131.339 62.4969C130.611 63.5187 130.727 64.9803 131.455 66.0162C132.183 67.0522 133.376 67.6907 134.613 67.9887C135.85 68.2867 137.16 68.2726 138.441 68.2158C139.387 68.1874 140.333 68.1306 141.25 67.9036C141.788 67.7617 142.327 67.5488 142.764 67.2083C143.986 66.2433 144.161 64.3134 143.317 63.0078C141.454 60.0987 135.501 59.9 132.736 61.3759Z" fill="#03062E"/>
<path d="M112.888 61.4356C113.412 61.7052 113.907 62.0599 114.242 62.5282C114.955 63.5216 114.824 64.9407 114.14 65.9482C113.441 66.9558 112.277 67.5802 111.069 67.864C109.861 68.1478 108.61 68.1336 107.358 68.091C106.441 68.0626 105.524 68.0059 104.636 67.7788C104.112 67.6369 103.588 67.4382 103.166 67.0977C101.973 66.1611 101.813 64.3021 102.628 63.0249C104.433 60.201 110.196 60.0165 112.888 61.4356Z" fill="#03062E"/>
<g opacity="0.31">
<g opacity="0.31">
<g opacity="0.31">
<g opacity="0.31">
<g opacity="0.31">
<g opacity="0.31">
<path opacity="0.31" d="M133.908 95.0888C135.873 102.241 143.164 106.399 150.179 104.384C157.195 102.369 161.313 94.9327 159.349 87.7806C157.384 80.6285 150.107 76.4706 143.077 78.4857C136.048 80.5007 131.958 87.9367 133.908 95.0888Z" fill="#2A72ED"/>
</g>
</g>
</g>
</g>
</g>
</g>
<g opacity="0.31">
<g opacity="0.31">
<g opacity="0.31">
<g opacity="0.31">
<g opacity="0.31">
<g opacity="0.31">
<path opacity="0.31" d="M99.332 79.0186C99.3611 79.941 99.4194 80.8634 99.4921 81.8141L99.5067 81.8283C100.045 88.9804 101.515 96.9698 104.935 103.54C109.578 100.418 111.95 94.4722 110.364 88.6966C108.894 83.3325 104.44 79.6571 99.332 79.0186Z" fill="#2A72ED"/>
</g>
</g>
</g>
</g>
</g>
</g>
<path d="M130.601 76.5249C131.067 78.7528 133.221 80.1577 135.419 79.6752C137.616 79.1928 139.013 76.979 138.548 74.7511C138.082 72.5231 135.928 71.1182 133.73 71.6007C131.533 72.0832 130.136 74.297 130.601 76.5249Z" fill="#03062E"/>
<path d="M104.496 76.4722C104.961 78.7001 107.115 80.105 109.313 79.6225C111.511 79.14 112.908 76.9263 112.442 74.6983C111.977 72.4704 109.823 71.0655 107.625 71.548C105.427 72.0305 104.03 74.2442 104.496 76.4722Z" fill="#03062E"/>
<path d="M119.258 91.7251C120.146 92.1508 121.179 92.392 122.402 92.3069C127.947 91.8953 129.111 86.1623 129.125 86.1055C129.198 85.694 128.936 85.2966 128.543 85.2257C128.15 85.1405 127.757 85.4102 127.67 85.8217C127.626 86.0062 126.695 90.4904 122.3 90.8168C117.977 91.129 116.842 86.3468 116.798 86.1481C116.711 85.7366 116.303 85.4953 115.91 85.5804C115.517 85.6798 115.27 86.0771 115.357 86.4887C115.707 88.0497 116.915 90.5756 119.258 91.7251Z" fill="#03062E"/>
<path d="M169.357 98.5352C171.918 99.5001 175.033 99.5852 178.176 98.5635C185.089 96.3072 189.572 89.6517 188.248 83.649C187.709 81.2934 186.341 79.3777 184.478 78.0863C184.449 78.0721 184.405 78.0437 184.376 78.0295C181.509 76.0854 177.463 75.5462 173.33 76.8943C169.488 78.1289 166.402 80.74 164.641 83.8761C163.215 86.3453 162.676 89.1267 163.258 91.7803C163.986 95.0442 166.286 97.4141 169.357 98.5352Z" fill="#FEB1A5"/>
<g opacity="0.36">
<g opacity="0.36">
<g opacity="0.36">
<g opacity="0.36">
<g opacity="0.36">
<g opacity="0.36">
<path opacity="0.36" d="M169.357 98.5352C171.918 99.5001 175.033 99.5852 178.176 98.5635C185.089 96.3072 189.572 89.6517 188.248 83.649C187.709 81.2934 186.341 79.3777 184.478 78.0863C184.449 78.0721 184.405 78.0437 184.376 78.0295C181.509 76.0854 177.463 75.5462 173.33 76.8943C169.488 78.1289 166.402 80.74 164.641 83.8761C163.215 86.3453 162.676 89.1267 163.258 91.7803C163.986 95.0442 166.286 97.4141 169.357 98.5352Z" fill="#03062E"/>
</g>
</g>
</g>
</g>
</g>
</g>
<path d="M181.221 76.7707C179.038 76.2173 176.549 77.0119 175.123 78.729C173.245 80.9853 173.303 84.3343 171.469 86.6049C171.033 87.1441 170.349 87.6266 169.694 87.3995C169.228 87.2434 168.966 86.7751 168.762 86.3352C168.151 85.0013 168.675 83.0997 168.559 81.6381C164.891 82.2057 161.136 79.8501 159.55 76.572C157.963 73.294 158.342 69.3348 159.914 66.0425C156.624 65.5174 153.422 64.4106 150.541 62.7644C148.008 61.317 145.665 59.4296 144.093 57.0172C142.784 55.0163 142.041 52.7032 141.605 50.3618C139.829 40.7405 143.613 30.3244 151.196 23.9386C157.207 23.5129 163.858 23.6974 169.738 24.9887C173.289 25.7692 176.942 26.9329 179.489 29.473C182.807 32.7795 183.637 37.7036 184.146 42.3014C185.47 54.2926 185.703 66.4114 184.859 78.4452C183.724 77.7498 182.501 77.0971 181.221 76.7707Z" fill="#03062E"/>
<path d="M113.952 30.6409C112.045 32.4289 110.269 34.5149 109.745 37.0409C109.221 39.5668 110.371 42.5753 112.86 43.4409C114.49 44.0227 116.309 43.597 117.954 43.0436C121.869 41.738 125.537 39.7087 128.709 37.126C127.749 39.4249 127.327 42.0077 127.952 44.4059C128.578 46.8041 130.383 48.9895 132.799 49.7274C134.371 50.2099 136.074 50.0822 137.689 49.77C145.184 48.3367 151.763 42.9868 154.557 36.0617C155.649 33.3655 156.187 30.3855 155.503 27.5615C154.601 23.8293 151.603 20.7783 148.022 19.2031C144.442 17.6422 140.338 17.4577 136.467 18.1105C132.231 18.82 126.322 20.3952 122.99 23.1907C121.738 24.2408 121.272 25.6741 119.817 26.5398C117.721 27.8169 115.771 28.9522 113.952 30.6409Z" fill="#03062E"/>
<path d="M235.387 285.976H75.9766V155.251C86.0334 149.347 116.786 141.982 116.786 141.982C116.786 141.982 117.485 131.666 118.3 124.783C118.78 120.796 127.454 122.087 127.454 122.087L127.25 124.783L127.221 125.28L127.207 125.379L127.119 126.515C134.527 127.735 144.279 127.749 152.181 127.479C152.662 127.465 153.127 127.437 153.593 127.423C158.905 127.21 163.213 126.855 165.12 126.699C165.818 126.642 166.197 126.6 166.197 126.6L166.881 122.513L166.895 122.456L167.347 119.788C167.347 119.788 167.594 119.788 168.016 119.802C169.486 119.831 173.037 119.958 175.191 120.342C176.967 120.654 178.553 128.444 179.485 134.007C179.994 137.129 180.285 139.527 180.285 139.527C183.443 140.18 187.693 141.542 192.394 143.302C193.18 143.586 193.966 143.898 194.766 144.196C195.188 144.366 195.611 144.523 196.033 144.707C196.935 145.062 197.852 145.431 198.769 145.814C205.784 148.666 213.046 151.987 218.664 154.797C223.802 157.351 227.542 159.465 228.415 160.402C229.114 161.154 229.914 169.598 230.7 181.802L230.715 181.972C231.923 200.548 233.16 227.765 234.062 249.846V249.889C234.251 254.742 234.426 259.326 234.601 263.54C234.615 263.895 234.63 264.278 234.644 264.633C234.994 275.191 235.27 283.109 235.387 285.976Z" fill="#2196F6"/>
<path d="M101.16 255.721C101.16 255.721 100.476 257.055 99.2967 259.169V259.183C96.3277 264.462 90.2586 274.665 83.7676 281.505C83.0835 282.229 82.3704 282.924 81.6281 283.62C80.7112 284.443 79.7652 285.238 78.761 285.99H41.7938C31.9989 273.615 38.0243 239.302 47.0041 203.158C56.8281 163.623 75.9811 155.265 75.9811 155.265L83.884 186.811L88.745 206.181L90.768 214.199V214.213L92.1652 219.762L94.8286 230.39L98.5108 245.106L100.636 253.592L101.16 255.721Z" fill="#2196F6"/>
<path d="M81.6202 283.603C80.9652 284.525 80.3685 285.32 79.8155 285.973H78.3164C82.5807 281.829 91.9681 263.651 91.284 259.422C91.0221 257.847 89.0136 256.03 86.4521 254.185C85.1422 253.22 83.6723 252.255 82.2169 251.29C80.0047 249.829 77.7488 248.339 75.9587 246.863C75.0272 246.097 74.2122 245.33 73.6155 244.564C70.137 240.207 69.6568 234.517 69.5985 232.842C60.6624 231.934 45.9337 252.255 45.7882 252.454C45.6135 252.695 45.2642 252.766 45.0168 252.596C44.7694 252.426 44.7112 252.071 44.8858 251.83C45.5262 250.95 60.6333 230.075 70.2535 231.849C70.268 231.849 70.2826 231.849 70.2971 231.863C70.5446 231.92 70.7192 232.133 70.7192 232.388C70.7192 232.559 70.7338 239.186 74.5033 243.911C74.8817 244.408 75.391 244.919 75.9587 245.43C77.7779 247.062 80.3394 248.764 82.8427 250.411C84.3563 251.404 85.8263 252.383 87.1507 253.348C89.9305 255.363 92.0554 257.336 92.3756 259.266C93.0014 263.055 86.4375 276.692 81.6202 283.603Z" fill="#03062E"/>
<path d="M83.9286 230.814L70.0149 188.327C69.8839 187.902 70.1896 187.476 70.6407 187.448L99.2394 186.043C99.5596 186.029 99.8506 186.227 99.938 186.525L112.585 227.962C112.716 228.374 112.425 228.785 111.989 228.828L84.6708 231.283C84.3215 231.311 84.0304 231.112 83.9286 230.814Z" fill="#03062E"/>
<path d="M111.111 229.852C111.024 229.852 110.965 229.795 110.936 229.724L97.7067 186.258C97.6776 186.158 97.7358 186.059 97.8377 186.031C97.9396 186.002 98.0415 186.059 98.0706 186.158L111.3 229.625C111.329 229.724 111.271 229.823 111.169 229.852C111.14 229.852 111.126 229.852 111.111 229.852Z" fill="#2196F6"/>
<path d="M111.111 229.852C111.024 229.852 110.965 229.795 110.936 229.724L97.7067 186.258C97.6776 186.158 97.7358 186.059 97.8377 186.031C97.9396 186.002 98.0415 186.059 98.0706 186.158L111.3 229.625C111.329 229.724 111.271 229.823 111.169 229.852C111.14 229.852 111.126 229.852 111.111 229.852Z" fill="white" fill-opacity="0.95"/>
<path d="M264.488 285.977H175.098L177.95 275.334L179.362 270.041L179.842 268.267L211.002 151.832L218.585 155.564L228.394 160.417C228.394 160.417 229.049 160.545 230.214 161.34C233.183 163.326 239.47 169.542 246.529 188.43C254.854 210.752 265.391 263.087 264.488 285.977Z" fill="#2196F6"/>
<path d="M208.934 144.114L207.639 144.014C207.668 143.603 210.783 103.329 198.863 90.572C196.549 88.1028 193.784 86.8114 190.64 86.7689C190.582 86.7689 190.524 86.7689 190.465 86.7689C169.173 86.7689 164.05 142.751 164.006 143.319L162.711 143.205C162.915 140.836 167.994 85.5059 190.465 85.5059C190.538 85.5059 190.596 85.5059 190.669 85.5059C194.191 85.5626 197.277 86.9817 199.838 89.7205C212.107 102.89 209.065 142.439 208.934 144.114Z" fill="#03062E"/>
<path d="M232.811 277.476L202.189 276.228L96.1484 272.283L129.448 132.93L220.367 134.902L229.594 135.101L232.811 277.476Z" fill="#2A72ED"/>
<path d="M232.82 277.475L208.02 276.24L220.376 134.9L229.603 135.099L232.82 277.475Z" fill="#03062E"/>
<path d="M149.888 148.514C151.817 148.514 153.38 146.989 153.38 145.108C153.38 143.227 151.817 141.702 149.888 141.702C147.958 141.702 146.395 143.227 146.395 145.108C146.395 146.989 147.958 148.514 149.888 148.514Z" fill="#03062E"/>
<path d="M195.329 148.514C197.258 148.514 198.822 146.989 198.822 145.108C198.822 143.227 197.258 141.702 195.329 141.702C193.4 141.702 191.836 143.227 191.836 145.108C191.836 146.989 193.4 148.514 195.329 148.514Z" fill="#03062E"/>
<path d="M195.958 145.166L194.663 145.066C194.692 144.655 197.806 104.382 185.887 91.6242C183.572 89.1408 180.807 87.8637 177.664 87.8211C177.605 87.8211 177.547 87.8211 177.489 87.8211C156.196 87.8211 151.073 143.789 151.03 144.357L149.734 144.243C149.938 141.888 155.017 86.5439 177.489 86.5439C177.562 86.5439 177.62 86.5439 177.693 86.5439C181.215 86.6007 184.3 88.0198 186.862 90.7586C199.145 103.928 196.089 143.491 195.958 145.166Z" fill="#03062E"/>
<path d="M66.6495 235.327L70.1715 232.375C70.1715 232.375 75.964 210.763 79.4861 209.287C83.0082 207.811 100.4 201.922 100.895 204.86C101.39 207.797 87.2871 216.397 87.2871 216.397L88.2913 220.569C88.2913 220.569 120.034 213.204 120.281 217.376C120.528 221.548 115.245 222.782 115.245 222.782C115.245 222.782 116.759 227.451 112.48 230.147C112.48 230.147 114.489 233.099 110.21 236.533C105.931 239.967 87.5345 252.739 87.5345 252.739C87.5345 252.739 81.742 261.58 74.4359 259.622C67.1589 257.677 60.1002 245.388 66.6495 235.327Z" fill="#FEB1A5"/>
<g opacity="0.36">
<path opacity="0.36" d="M66.6495 235.327L70.1715 232.375C70.1715 232.375 75.964 210.763 79.4861 209.287C83.0082 207.811 100.4 201.922 100.895 204.86C101.39 207.797 87.2871 216.397 87.2871 216.397L88.2913 220.569C88.2913 220.569 120.034 213.204 120.281 217.376C120.528 221.548 115.245 222.782 115.245 222.782C115.245 222.782 116.759 227.451 112.48 230.147C112.48 230.147 114.489 233.099 110.21 236.533C105.931 239.967 87.5345 252.739 87.5345 252.739C87.5345 252.739 81.742 261.58 74.4359 259.622C67.1589 257.677 60.1002 245.388 66.6495 235.327Z" fill="#03062E"/>
</g>
<path d="M85.1562 221.083C85.1562 221.083 118.689 213.221 120.304 217.393C121.818 221.324 115.138 222.431 110.859 224.148C106.58 225.865 91.3417 230.165 91.3417 230.165" stroke="#03062E" stroke-width="0.7627" stroke-miterlimit="10" stroke-linecap="round" stroke-linejoin="round"/>
<path d="M115.269 222.8C115.269 222.8 117.03 226.12 112.503 230.165C107.962 234.223 95.2422 237.53 95.2422 237.53" stroke="#03062E" stroke-width="0.7627" stroke-miterlimit="10" stroke-linecap="round" stroke-linejoin="round"/>
<path d="M80.5123 192.003L80.1048 190.712C79.9447 190.173 79.4062 189.832 78.8532 189.875L75.986 190.045L74.0795 190.158C73.6865 190.187 73.3372 190.371 73.1189 190.698C72.9151 191.01 72.8569 191.407 72.9879 191.762L73.41 192.954C73.5701 193.422 74.0503 193.763 74.5743 193.763H74.618L75.986 193.706L79.4062 193.55C79.7992 193.536 80.1485 193.351 80.3668 193.025C80.5706 192.741 80.6288 192.358 80.5123 192.003ZM80.0466 192.841C79.8865 193.053 79.6536 193.181 79.3626 193.195L75.9715 193.366L74.5889 193.422C74.5743 193.422 74.5743 193.422 74.5597 193.422C74.1959 193.422 73.8612 193.195 73.7302 192.841L73.3227 191.649C73.2353 191.407 73.2644 191.123 73.41 190.911C73.5555 190.684 73.8029 190.556 74.0795 190.542L75.9715 190.428L78.8677 190.258C78.8823 190.244 78.9114 190.244 78.926 190.244C79.2898 190.244 79.6391 190.485 79.741 190.84L80.163 192.131C80.2504 192.358 80.2067 192.628 80.0466 192.841Z" fill="#2196F6"/>
<path d="M80.5123 192.003L80.1048 190.712C79.9447 190.173 79.4062 189.832 78.8532 189.875L75.986 190.045L74.0795 190.158C73.6865 190.187 73.3372 190.371 73.1189 190.698C72.9151 191.01 72.8569 191.407 72.9879 191.762L73.41 192.954C73.5701 193.422 74.0503 193.763 74.5743 193.763H74.618L75.986 193.706L79.4062 193.55C79.7992 193.536 80.1485 193.351 80.3668 193.025C80.5706 192.741 80.6288 192.358 80.5123 192.003ZM80.0466 192.841C79.8865 193.053 79.6536 193.181 79.3626 193.195L75.9715 193.366L74.5889 193.422C74.5743 193.422 74.5743 193.422 74.5597 193.422C74.1959 193.422 73.8612 193.195 73.7302 192.841L73.3227 191.649C73.2353 191.407 73.2644 191.123 73.41 190.911C73.5555 190.684 73.8029 190.556 74.0795 190.542L75.9715 190.428L78.8677 190.258C78.8823 190.244 78.9114 190.244 78.926 190.244C79.2898 190.244 79.6391 190.485 79.741 190.84L80.163 192.131C80.2504 192.358 80.2067 192.628 80.0466 192.841Z" fill="white" fill-opacity="0.95"/>
<path d="M181.027 271.132L180.838 271.87L179.732 275.389L176.37 285.975H138.165C137.743 285.365 137.292 284.627 137.001 283.847C136.244 281.818 137.758 280.157 137.758 280.157C137.758 280.157 122.651 276.184 116.494 273.048H116.48C114.806 272.196 113.802 271.402 113.962 270.763C114.719 267.825 161.001 273.161 161.001 273.161C161.001 273.161 143.245 255.48 144.947 251.79C146.417 248.597 172.353 265.413 179.324 269.982C179.339 270.011 179.368 270.025 179.382 270.039C179.441 270.082 179.513 270.124 179.571 270.153C179.833 270.337 180.081 270.479 180.27 270.621C180.75 270.933 181.027 271.132 181.027 271.132Z" fill="#FEB1A5"/>
<g opacity="0.36">
<path opacity="0.36" d="M181.027 271.132L180.838 271.87L179.732 275.389L176.37 285.975H138.165C137.743 285.365 137.292 284.627 137.001 283.847C136.244 281.818 137.758 280.157 137.758 280.157C137.758 280.157 122.651 276.184 116.494 273.048H116.48C114.806 272.196 113.802 271.402 113.962 270.763C114.719 267.825 161.001 273.161 161.001 273.161C161.001 273.161 143.245 255.48 144.947 251.79C146.417 248.597 172.353 265.413 179.324 269.982C179.339 270.011 179.368 270.025 179.382 270.039C179.441 270.082 179.513 270.124 179.571 270.153C179.833 270.337 180.081 270.479 180.27 270.621C180.75 270.933 181.027 271.132 181.027 271.132Z" fill="#03062E"/>
</g>
<path d="M252.047 285.974H175.23L178.141 275.331L179.568 270.151L180.31 267.455C181.168 264.333 184.138 262.204 187.456 262.346L193.423 262.573L209.17 263.169L211.514 263.254C211.645 263.268 211.761 263.268 211.892 263.268L232.544 264.063H232.675L232.733 263.439L234.043 249.901V249.858L239.472 193.081L252.047 285.974Z" fill="#2196F6"/>
<path d="M248.586 265.084C248.557 265.382 248.28 265.609 247.975 265.595C247.8 265.58 242.269 265.169 234.599 264.658C233.93 264.615 233.231 264.573 232.547 264.53C226.304 264.119 218.91 263.65 211.881 263.281C211.75 263.281 211.633 263.282 211.502 263.267C210.731 263.225 209.945 263.196 209.174 263.154H209.159C203.163 262.856 197.589 262.629 193.412 262.586C189.919 262.544 187.401 262.629 186.455 262.87C182.438 263.934 182.19 264.488 180.255 270.618C180.197 270.774 180.153 270.944 180.095 271.129C179.731 272.321 179.28 273.74 178.741 275.372C178.508 276.039 178.261 276.763 178.013 277.515C177.067 280.296 176.18 283.191 175.365 286.001H174.215C175.059 283.092 175.976 280.083 176.966 277.188C177.184 276.536 177.388 275.94 177.591 275.344C178.174 273.598 178.625 272.108 179.047 270.831C179.134 270.547 179.221 270.263 179.309 270.008C179.498 269.369 179.673 268.816 179.847 268.291C181.317 263.934 182.161 262.927 186.164 261.848C188.376 261.266 198.127 261.536 209.261 262.075C217.033 262.458 225.489 262.984 232.518 263.452C232.591 263.452 232.664 263.466 232.722 263.466C233.348 263.509 233.959 263.551 234.556 263.58C241.935 264.09 247.378 264.474 248.062 264.53C248.368 264.53 248.6 264.786 248.586 265.084Z" fill="#03062E"/>
</svg>
