<svg width="24" height="24" viewBox="0 0 24 24" fill="none" xmlns="http://www.w3.org/2000/svg">
<path d="M8.6572 22.2357V18.6684C8.6572 17.7577 9.40083 17.0195 10.3181 17.0195H13.6713C14.1118 17.0195 14.5343 17.1932 14.8458 17.5025C15.1573 17.8117 15.3323 18.2311 15.3323 18.6684V22.2357C15.3295 22.6143 15.479 22.9784 15.7477 23.247C16.0164 23.5157 16.382 23.6668 16.7634 23.6668H19.0511C20.1195 23.6696 21.1452 23.2501 21.9017 22.5011C22.6581 21.7521 23.0833 20.735 23.0833 19.6743V9.5115C23.0833 8.6547 22.7007 7.84198 22.0387 7.29228L14.2563 1.12201C12.9026 0.0401514 10.9629 0.0750819 9.64958 1.20497L2.04481 7.29228C1.35149 7.82577 0.937104 8.64091 0.916626 9.5115V19.6639C0.916626 21.8747 2.7219 23.6668 4.94883 23.6668H7.1843C7.97639 23.6668 8.62012 23.0324 8.62586 22.2461L8.6572 22.2357Z" fill="#2196F6"/>
</svg>
