<svg width="120" height="17" viewBox="0 0 120 17" fill="none" xmlns="http://www.w3.org/2000/svg">
<path d="M11.5153 1.32471L10.7741 3.99294H7.21647L5.52235 16H2.11294L3.80706 3.99294H0.0588235L0.44 1.32471H11.5153ZM14.2105 16H10.8011L12.8552 1.32471H16.2646L15.4599 7H19.8011L20.6058 1.32471H24.0152L21.9611 16H18.5517L19.4199 9.71059H15.0999L14.2105 16ZM35.6252 1.32471L34.9052 3.80235H29.8228L29.3146 7.31765H33.7617L33.444 9.75294H28.997L28.4676 13.5012H33.9099L33.5711 16H24.6981L26.7523 1.32471H35.6252ZM39.0474 16H35.6379L37.6921 1.32471H41.1015L40.2968 7H44.6379L45.4426 1.32471H48.8521L46.7979 16H43.3885L44.2568 9.71059H39.9368L39.0474 16ZM61.2879 11.1506C61.1468 12.1671 60.8079 13.0706 60.2715 13.8612C59.7491 14.6376 59.0362 15.2518 58.1326 15.7035C57.2291 16.1412 56.1703 16.36 54.9562 16.36C53.3044 16.36 52.055 15.9718 51.2079 15.1953C50.3609 14.4188 49.9374 13.36 49.9374 12.0188C49.9374 11.7082 49.9585 11.3976 50.0009 11.0871L51.3774 1.32471H54.7868L53.4315 11.0235C53.3891 11.3341 53.3679 11.6165 53.3679 11.8706C53.3679 12.52 53.5162 13 53.8126 13.3106C54.1091 13.6212 54.575 13.7765 55.2103 13.7765C56.0009 13.7765 56.6079 13.5435 57.0315 13.0776C57.4691 12.6118 57.7515 11.9059 57.8785 10.96L59.255 1.32471H62.6644L61.2879 11.1506ZM77.4588 16H74.1129L74.6424 10.2188C74.8682 7.83294 75.1365 5.75765 75.4471 3.99294L71.7835 14.4541H68.5012L67.5271 4.03529C67.4847 5.17882 67.4 6.24471 67.2729 7.23294C67.16 8.22118 66.9976 9.25882 66.7859 10.3459L65.7694 16H62.4235L65.5788 1.32471H69.7506L70.5341 11.5106L73.9647 1.32471H78.4118L77.4588 16ZM87.2344 0.964706C89.0132 0.964706 90.3897 1.48706 91.3638 2.53176C92.3379 3.57647 92.825 5.05882 92.825 6.97882C92.825 8.46118 92.5779 9.91529 92.0838 11.3412C91.5897 12.7671 90.7709 13.96 89.6274 14.92C88.4838 15.88 87.0015 16.36 85.1803 16.36C83.3874 16.36 82.0038 15.8376 81.0297 14.7929C80.0556 13.7341 79.5685 12.2518 79.5685 10.3459C79.5685 8.87765 79.8156 7.43059 80.3097 6.00471C80.8179 4.57882 81.6438 3.38588 82.7874 2.42588C83.9309 1.45176 85.4132 0.964706 87.2344 0.964706ZM86.9803 3.50588C86.0062 3.50588 85.2226 3.90118 84.6297 4.69176C84.0509 5.48235 83.6485 6.41412 83.4226 7.48706C83.1968 8.56 83.0838 9.59765 83.0838 10.6C83.0838 11.7294 83.2744 12.5482 83.6556 13.0565C84.0509 13.5647 84.6368 13.8188 85.4132 13.8188C86.3874 13.8188 87.1638 13.4235 87.7426 12.6329C88.3356 11.8424 88.745 10.9106 88.9709 9.83765C89.1968 8.75059 89.3097 7.69882 89.3097 6.68235C89.3097 5.56706 89.1121 4.76235 88.7168 4.26824C88.3356 3.76 87.7568 3.50588 86.9803 3.50588ZM104.846 16H100.526L97.8155 4.20471C97.8438 4.96706 97.8579 5.55294 97.8579 5.96235C97.8579 7.45882 97.7379 9.06824 97.4979 10.7906L96.7567 16H93.7285L95.7826 1.32471H100.06L102.834 13.12C102.792 12.3294 102.771 11.5953 102.771 10.9176C102.771 9.67529 102.863 8.40471 103.046 7.10588L103.872 1.32471H106.9L104.846 16ZM114.17 0.964706C116.175 0.964706 117.805 1.60706 119.062 2.89176L117.241 4.71294C116.394 3.90823 115.405 3.50588 114.276 3.50588C113.598 3.50588 113.055 3.65412 112.645 3.95059C112.25 4.23294 112.052 4.62824 112.052 5.13647C112.052 5.56 112.222 5.89882 112.561 6.15294C112.899 6.40706 113.549 6.69647 114.509 7.02118C115.765 7.43059 116.704 7.96 117.325 8.60941C117.961 9.25882 118.278 10.12 118.278 11.1929C118.278 12.0682 118.059 12.9012 117.622 13.6918C117.198 14.4682 116.514 15.1106 115.568 15.6188C114.636 16.1129 113.45 16.36 112.01 16.36C110.824 16.36 109.787 16.1694 108.897 15.7882C108.022 15.3929 107.281 14.8706 106.674 14.2212L108.643 12.2729C109.575 13.2329 110.725 13.7129 112.095 13.7129C112.899 13.7129 113.528 13.5365 113.979 13.1835C114.445 12.8306 114.678 12.3435 114.678 11.7224C114.678 11.2424 114.509 10.8541 114.17 10.5576C113.845 10.2612 113.245 9.95765 112.37 9.64706C110.987 9.18118 109.991 8.62353 109.384 7.97412C108.777 7.32471 108.474 6.51294 108.474 5.53882C108.474 4.76235 108.685 4.02824 109.109 3.33647C109.532 2.63059 110.168 2.05882 111.015 1.62118C111.876 1.18353 112.928 0.964706 114.17 0.964706Z" fill="white"/>
</svg>
