<svg xmlns="http://www.w3.org/2000/svg" width="40" height="40" viewBox="0 0 40 40"><defs><style>.a{fill:rgba(78,115,248,0.08);}.b{fill:#094f32;}</style></defs><g transform="translate(-841 -203)"><g transform="translate(0 -6)"><g transform="translate(257 -6)"><g transform="translate(584 215)"><rect class="a" width="40" height="40" rx="20"/></g><path class="b" d="M18.709,7.8a.77.77,0,0,0-.019-.169L17.677,3.052A3.873,3.873,0,0,0,13.869,0H4.839a3.873,3.873,0,0,0-3.8,3.052L.019,7.626A.77.77,0,0,0,0,7.8v.78a3.106,3.106,0,0,0,.78,2.06v4.176a3.9,3.9,0,0,0,3.9,3.9h9.354a3.9,3.9,0,0,0,3.9-3.9V10.635a3.106,3.106,0,0,0,.78-2.06ZM1.559,7.88l1-4.49A2.325,2.325,0,0,1,4.839,1.559h.617V3.9a.78.78,0,0,0,1.559,0V1.559h4.677V3.9a.78.78,0,0,0,1.559,0V1.559h.617A2.325,2.325,0,0,1,16.152,3.39l1,4.49v.695a1.559,1.559,0,0,1-1.559,1.559h-.78a1.559,1.559,0,0,1-1.559-1.559.78.78,0,0,0-1.559,0,1.559,1.559,0,0,1-1.559,1.559H8.575A1.559,1.559,0,0,1,7.016,8.575a.78.78,0,0,0-1.559,0A1.559,1.559,0,0,1,3.9,10.134h-.78A1.559,1.559,0,0,1,1.559,8.575ZM14.032,17.15H4.677a2.339,2.339,0,0,1-2.339-2.339V11.594a3.1,3.1,0,0,0,.78.1H3.9a3.11,3.11,0,0,0,2.339-1.058,3.11,3.11,0,0,0,2.339,1.058h1.559a3.11,3.11,0,0,0,2.339-1.058,3.11,3.11,0,0,0,2.339,1.058h.78a3.1,3.1,0,0,0,.78-.1v3.217A2.339,2.339,0,0,1,14.032,17.15Z" transform="translate(595.029 225.262)"/></g></g></g></svg>