<svg xmlns="http://www.w3.org/2000/svg" width="40" height="40" viewBox="0 0 40 40"><defs><style>.a{fill:rgba(78,115,248,0.08);}.b{fill:#094f32;}</style></defs><g transform="translate(-312 -203)"><g transform="translate(312 203)"><rect class="a" width="40" height="40" rx="20"/></g><g transform="translate(322.154 213.154)"><path class="b" d="M5.141,0h-2.2A2.938,2.938,0,0,0,0,2.938v2.2A2.938,2.938,0,0,0,2.938,8.078h2.2A2.938,2.938,0,0,0,8.078,5.141v-2.2A2.938,2.938,0,0,0,5.141,0ZM6.609,5.141A1.469,1.469,0,0,1,5.141,6.609h-2.2A1.469,1.469,0,0,1,1.469,5.141v-2.2A1.469,1.469,0,0,1,2.938,1.469h2.2A1.469,1.469,0,0,1,6.609,2.938Z" transform="translate(0 0)"/><path class="b" d="M5.141,13h-2.2A2.938,2.938,0,0,0,0,15.938v2.2a2.938,2.938,0,0,0,2.938,2.938h2.2a2.938,2.938,0,0,0,2.938-2.938v-2.2A2.938,2.938,0,0,0,5.141,13Zm1.469,5.141a1.469,1.469,0,0,1-1.469,1.469h-2.2a1.469,1.469,0,0,1-1.469-1.469v-2.2a1.469,1.469,0,0,1,1.469-1.469h2.2a1.469,1.469,0,0,1,1.469,1.469Z" transform="translate(0 -1.387)"/><path class="b" d="M20.09,15.646l-1.684,1.88V2.17L20.09,4.05a.681.681,0,0,0,1.039,0,.891.891,0,0,0,0-1.161l-1.9-2.12a2.043,2.043,0,0,0-3.114,0l-1.9,2.12a.891.891,0,0,0,0,1.161.681.681,0,0,0,1.039,0l1.684-1.88V17.526l-1.684-1.88a.681.681,0,0,0-1.039,0,.891.891,0,0,0,0,1.161l1.9,2.12a2.043,2.043,0,0,0,3.114,0l1.9-2.12a.891.891,0,0,0,0-1.161.681.681,0,0,0-1.039,0Z" transform="translate(-1.652 -0.013)"/></g></g></svg>