<svg xmlns="http://www.w3.org/2000/svg" width="40" height="40" viewBox="0 0 40 40"><defs><style>.a{fill:rgba(78,115,248,0.08);}.b{fill:#094f32;}</style></defs><g transform="translate(0 0.068)"><g transform="translate(0 -0.068)"><rect class="a" width="40" height="40" rx="20"/></g><path class="b" d="M5.766,9.994A3.459,3.459,0,1,1,9.225,6.534,3.459,3.459,0,0,1,5.766,9.994Zm0-5.381A1.922,1.922,0,1,0,7.687,6.534,1.922,1.922,0,0,0,5.766,4.612Zm5.766,13.069V17.3A5.766,5.766,0,0,0,0,17.3v.384a.769.769,0,1,0,1.537,0V17.3a4.228,4.228,0,0,1,8.456,0v.384a.769.769,0,1,0,1.537,0Zm6.919-3.844A5.381,5.381,0,0,0,9.481,9.827a.769.769,0,1,0,1.026,1.145,3.844,3.844,0,0,1,6.406,2.865.769.769,0,1,0,1.537,0Zm-5-6.919a3.459,3.459,0,1,1,3.459-3.459,3.459,3.459,0,0,1-3.459,3.459Zm0-5.381a1.922,1.922,0,1,0,1.922,1.922A1.922,1.922,0,0,0,13.453,1.537Z" transform="translate(11 11)"/></g></svg>