<svg xmlns="http://www.w3.org/2000/svg" width="16" height="16" viewBox="0 0 16 16"><defs><style>.a{fill:#9eabbf;}.b{fill:#fff;}</style></defs><g transform="translate(-454 -203)"><circle class="a" cx="8" cy="8" r="8" transform="translate(454 203)"/><g transform="translate(459.372 206.223)"><path class="b" d="M11.134,5.041A2.657,2.657,0,0,0,8,7.657a.664.664,0,1,0,1.329,0A1.329,1.329,0,0,1,10.9,6.35a1.345,1.345,0,0,1,1.063,1.06A1.329,1.329,0,0,1,11.3,8.821a2.627,2.627,0,0,0-1.309,2.328v.494a.664.664,0,0,0,1.329,0v-.494a1.317,1.317,0,0,1,.618-1.164,2.657,2.657,0,0,0-.806-4.944Z" transform="translate(-8 -4.998)"/><rect class="b" width="1.329" height="1.329" rx="0.664" transform="translate(1.993 7.974)"/></g></g></svg>