<svg xmlns="http://www.w3.org/2000/svg" width="27.063" height="22.552" viewBox="0 0 27.063 22.552">
  <path id="_3914128" data-name="3914128" d="M21.424,2h-10.2A5.6,5.6,0,0,0,6.777,4.177L.237,12.584a1.128,1.128,0,0,0,0,1.385l6.54,8.406a5.6,5.6,0,0,0,4.449,2.177h10.2a5.645,5.645,0,0,0,5.638-5.638V7.638A5.645,5.645,0,0,0,21.424,2Zm3.383,16.914A3.383,3.383,0,0,1,21.424,22.3h-10.2a3.359,3.359,0,0,1-2.67-1.306l-6-7.715,6-7.715a3.359,3.359,0,0,1,2.67-1.306h10.2a3.383,3.383,0,0,1,3.383,3.383Zm-5.4-7.66-2.022,2.022L19.4,15.3a1.128,1.128,0,1,1-1.595,1.595L15.786,14.87l-2.022,2.022A1.128,1.128,0,1,1,12.17,15.3l2.022-2.022L12.17,11.254A1.128,1.128,0,1,1,13.765,9.66l2.022,2.022L17.808,9.66A1.128,1.128,0,1,1,19.4,11.254Z" transform="translate(0.001 -2)" fill="#4e73f9"/>
</svg>
