<svg id="Group_1" data-name="Group 1" xmlns="http://www.w3.org/2000/svg" width="40" height="40" viewBox="0 0 40 40">
  <g id="Userpic" fill="none" stroke="rgba(78,115,248,0.4)" stroke-width="2" stroke-dasharray="4 4">
    <rect width="40" height="40" rx="20" stroke="none"/>
    <rect x="1" y="1" width="38" height="38" rx="19" fill="none"/>
  </g>
  <g id="Label_Counter" data-name="Label &amp; Counter" transform="translate(8 7)">
    <g id="_Outline_menu" data-name=" Outline / menu">
      <path id="Union" d="M3.948,18A.95.95,0,0,1,3,17.051v-.1A.95.95,0,0,1,3.948,16h16.1a.952.952,0,0,1,.95.949v.1a.952.952,0,0,1-.95.949Zm0-5A.95.95,0,0,1,3,12.051v-.1A.951.951,0,0,1,3.948,11h16.1a.953.953,0,0,1,.95.95v.1a.952.952,0,0,1-.95.949Zm0-5A.951.951,0,0,1,3,7.051v-.1A.95.95,0,0,1,3.948,6h16.1a.952.952,0,0,1,.95.949v.1a.953.953,0,0,1-.95.95Z" fill="#4e73f8"/>
    </g>
  </g>
</svg>
