<svg id="Stepper_Component" data-name="Stepper Component" xmlns="http://www.w3.org/2000/svg" width="12" height="13.5" viewBox="0 0 12 13.5">
  <g id="_Fill_arrow-up" data-name=" Fill / arrow-up">
    <path id="Verctor" d="M5.107,4.485H.894A.88.88,0,0,1,.1,3.961a1.044,1.044,0,0,1,.129-1.1L2.338.306a.871.871,0,0,1,1.326,0L5.77,2.855A1.043,1.043,0,0,1,5.9,3.961.88.88,0,0,1,5.107,4.485Z" transform="translate(2.999 3.515)" fill="#757d8a"/>
  </g>
  <g id="_Fill_arrow-down" data-name=" Fill / arrow-down" transform="translate(2.999 9)">
    <g id="Verctor-2" data-name="Verctor" transform="translate(0)" fill="#f1f2f3">
      <path d="M 3.000746011734009 4 C 2.897176027297974 4 2.796345949172974 3.949559926986694 2.724096059799194 3.861609935760498 L 0.6166660189628601 1.311490058898926 C 0.4879260063171387 1.155410051345825 0.4631760120391846 0.9301400184631348 0.5539060235023499 0.7379299998283386 C 0.624176025390625 0.5888599753379822 0.7513660192489624 0.5 0.894245982170105 0.5 L 5.107245922088623 0.5 C 5.250125885009766 0.5 5.377315998077393 0.5888599753379822 5.447475910186768 0.7376999855041504 C 5.538316249847412 0.9301499724388123 5.513745784759521 1.155249953269958 5.38498592376709 1.311400055885315 L 3.278336048126221 3.860480070114136 C 3.205146074295044 3.949559926986694 3.104315996170044 4 3.000746011734009 4 Z" stroke="none"/>
      <path d="M 3.000746726989746 3.41148829460144 L 4.993762969970703 1 L 1.007895588874817 1 L 3.000746726989746 3.41148829460144 M 3.000746011734009 4.5 C 2.747745990753174 4.5 2.505746126174927 4.383500099182129 2.337745904922485 4.178999900817871 L 0.2312460094690323 1.629999995231628 C -0.02075398899614811 1.32449996471405 -0.07125398516654968 0.890999972820282 0.1017460152506828 0.5245000123977661 C 0.2542460262775421 0.2010000050067902 0.5577459931373596 0 0.894245982170105 0 L 5.107245922088623 0 C 5.443746089935303 0 5.747245788574219 0.2010000050067902 5.899745941162109 0.5245000123977661 C 6.072745800018311 0.890999972820282 6.02224588394165 1.32449996471405 5.770746231079102 1.629500031471252 L 3.663746118545532 4.178999900817871 C 3.495745897293091 4.383500099182129 3.253746032714844 4.5 3.000746011734009 4.5 Z" stroke="none" fill="#f1f2f3"/>
    </g>
  </g>
</svg>
