<svg width="18" height="22" viewBox="0 0 18 22" fill="none" xmlns="http://www.w3.org/2000/svg">
<path d="M1.86614 21.0492H1.86639C1.93434 21.0492 2.07812 21.0161 2.26722 20.8546L2.26892 20.8531L7.87431 16.0939C7.87462 16.0936 7.87492 16.0934 7.87523 16.0931C8.20313 15.8135 8.6319 15.6815 9.04197 15.6815C9.45298 15.6815 9.88134 15.8141 10.2094 16.0942C10.2094 16.0942 10.2094 16.0942 10.2095 16.0943L15.797 20.8532L15.7977 20.8537C16.0006 21.0269 16.1229 21.0493 16.1778 21.0493C16.2271 21.0493 16.2622 21.0332 16.2912 21.001C16.3212 20.9678 16.399 20.8549 16.399 20.5723V2.03279C16.399 1.45416 15.9076 0.949219 15.3001 0.949219H2.76748C2.12451 0.949219 1.60059 1.48869 1.60059 2.03279V20.5722C1.60059 20.7616 1.65174 20.8872 1.70773 20.9676L1.86614 21.0492ZM1.86614 21.0492C1.79989 21.0492 1.74398 21.0196 1.70781 20.9677L1.86614 21.0492Z" stroke="#5D6169" stroke-width="1.5"/>
</svg>
