<svg xmlns="http://www.w3.org/2000/svg" width="22.937" height="18.718" viewBox="0 0 22.937 18.718">
  <path id="_3916596" data-name="3916596" d="M21.758,4.471a1.906,1.906,0,0,0-2.083.415L17.2,7.357,12.82,2.974a1.911,1.911,0,0,0-2.7,0L5.734,7.357,3.263,4.886A1.911,1.911,0,0,0,0,6.237V16.354a4.784,4.784,0,0,0,4.779,4.779h13.38a4.784,4.784,0,0,0,4.779-4.779V6.237A1.911,1.911,0,0,0,21.758,4.471Zm-.732,11.883a2.867,2.867,0,0,1-2.867,2.867H4.779a2.867,2.867,0,0,1-2.867-2.867V6.237L5.059,9.384a.956.956,0,0,0,1.351,0l5.059-5.059,5.059,5.059a.956.956,0,0,0,1.351,0l3.147-3.147Z" transform="translate(0 -2.414)" fill="#fff"/>
</svg>
