<svg xmlns="http://www.w3.org/2000/svg" width="20" height="20" viewBox="0 0 20 20">
  <g id="_3917452" data-name="3917452" transform="translate(0)">
    <path id="Path_10" data-name="Path 10" d="M21.221,16a.746.746,0,0,0-.746.746v1.492a2.238,2.238,0,0,1-2.238,2.238H16.746a.746.746,0,0,0,0,1.492h1.492a3.734,3.734,0,0,0,3.729-3.729V16.746A.746.746,0,0,0,21.221,16Z" transform="translate(-1.967 -1.967)" fill="#fff"/>
    <path id="Path_11" data-name="Path 11" d="M.746,5.967a.746.746,0,0,0,.746-.746V3.729A2.238,2.238,0,0,1,3.729,1.492H5.221A.746.746,0,0,0,5.221,0H3.729A3.734,3.734,0,0,0,0,3.729V5.221a.746.746,0,0,0,.746.746Z" transform="translate(0)" fill="#fff"/>
    <path id="Path_12" data-name="Path 12" d="M5.221,20.475H3.729a2.238,2.238,0,0,1-2.238-2.238V16.746a.746.746,0,1,0-1.492,0v1.492a3.734,3.734,0,0,0,3.729,3.729H5.221a.746.746,0,0,0,0-1.492Z" transform="translate(0 -1.967)" fill="#fff"/>
    <path id="Path_13" data-name="Path 13" d="M18.238,0H16.746a.746.746,0,1,0,0,1.492h1.492a2.238,2.238,0,0,1,2.238,2.238V5.221a.746.746,0,0,0,1.492,0V3.729A3.734,3.734,0,0,0,18.238,0Z" transform="translate(-1.967)" fill="#fff"/>
    <path id="Path_14" data-name="Path 14" d="M10.984,8.967A2.984,2.984,0,1,0,8,5.984a2.984,2.984,0,0,0,2.984,2.984Zm0-4.475A1.492,1.492,0,1,1,9.492,5.984,1.492,1.492,0,0,1,10.984,4.492Z" transform="translate(-0.984 -0.762)" fill="#fff"/>
    <path id="Path_15" data-name="Path 15" d="M16.645,18.221a.831.831,0,0,0,.9-.746C17.538,15,15.133,13,12.166,13H10.375C7.408,13,5,15,5,17.475a.831.831,0,0,0,.9.746.831.831,0,0,0,.9-.746c0-1.648,1.6-2.984,3.583-2.984h1.792c1.979,0,3.583,1.336,3.583,2.984A.831.831,0,0,0,16.645,18.221Z" transform="translate(-1.271 -1.699)" fill="#fff"/>
  </g>
</svg>
