<svg xmlns="http://www.w3.org/2000/svg" width="20" height="20" viewBox="0 0 20 20">
  <path id="_3914415" data-name="3914415" d="M15.833,1H4.167A4.374,4.374,0,0,0,0,5.545V16.455A4.374,4.374,0,0,0,4.167,21H15.833A4.374,4.374,0,0,0,20,16.455V5.545A4.374,4.374,0,0,0,15.833,1ZM4.167,2.818H15.833a2.621,2.621,0,0,1,2.5,2.727v.909H1.667V5.545a2.621,2.621,0,0,1,2.5-2.727ZM15.833,19.182H4.167a2.621,2.621,0,0,1-2.5-2.727V8.273H18.333v8.182A2.621,2.621,0,0,1,15.833,19.182Zm0-7.273a.874.874,0,0,1-.833.909H5A.913.913,0,0,1,5,11H15A.874.874,0,0,1,15.833,11.909ZM12.5,15.545a.874.874,0,0,1-.833.909H5a.913.913,0,0,1,0-1.818h6.667A.874.874,0,0,1,12.5,15.545ZM2.5,4.636a.874.874,0,0,1,.833-.909.874.874,0,0,1,.833.909.874.874,0,0,1-.833.909A.874.874,0,0,1,2.5,4.636Zm2.5,0a.874.874,0,0,1,.833-.909.874.874,0,0,1,.833.909.874.874,0,0,1-.833.909A.874.874,0,0,1,5,4.636Zm2.5,0a.836.836,0,1,1,1.667,0,.836.836,0,1,1-1.667,0Z" transform="translate(0 -1)" fill="#fff"/>
</svg>
