<svg xmlns="http://www.w3.org/2000/svg" width="80.477" height="13.502" viewBox="0 0 80.477 13.502"><defs><style>.a{fill:#ffb205;}</style></defs><g transform="translate(-970.681 -511.498)"><path class="a" d="M7.738.469,6.016,3.96l-3.852.562A.844.844,0,0,0,1.7,5.961L4.484,8.677l-.659,3.836a.843.843,0,0,0,1.223.889l3.446-1.811L11.941,13.4a.844.844,0,0,0,1.223-.889l-.659-3.836,2.787-2.716a.844.844,0,0,0-.467-1.44L10.973,3.96,9.251.469a.844.844,0,0,0-1.513,0Z" transform="translate(985.44 511.499)"/><path class="a" d="M7.738.469,6.016,3.96l-3.852.562A.844.844,0,0,0,1.7,5.961L4.484,8.677l-.659,3.836a.843.843,0,0,0,1.223.889l3.446-1.811L11.941,13.4a.844.844,0,0,0,1.223-.889l-.659-3.836,2.787-2.716a.844.844,0,0,0-.467-1.44L10.973,3.96,9.251.469a.844.844,0,0,0-1.513,0Z" transform="translate(969.239 511.499)"/><path class="a" d="M7.738.469,6.016,3.96l-3.852.562A.844.844,0,0,0,1.7,5.961L4.484,8.677l-.659,3.836a.843.843,0,0,0,1.223.889l3.446-1.811L11.941,13.4a.844.844,0,0,0,1.223-.889l-.659-3.836,2.787-2.716a.844.844,0,0,0-.467-1.44L10.973,3.96,9.251.469a.844.844,0,0,0-1.513,0Z" transform="translate(1002.412 511.499)"/><path class="a" d="M7.738.469,6.016,3.96l-3.852.562A.844.844,0,0,0,1.7,5.961L4.484,8.677l-.659,3.836a.843.843,0,0,0,1.223.889l3.446-1.811L11.941,13.4a.844.844,0,0,0,1.223-.889l-.659-3.836,2.787-2.716a.844.844,0,0,0-.467-1.44L10.973,3.96,9.251.469a.844.844,0,0,0-1.513,0Z" transform="translate(1018.612 511.499)"/><path class="a" d="M13.409,4.522,9.55,3.96,7.825.47a.847.847,0,0,0-1.516,0L4.583,3.96l-3.86.561A.844.844,0,0,0,.256,5.961L3.048,8.677l-.661,3.836a.846.846,0,0,0,.833.987.833.833,0,0,0,.392-.1L7.065,11.59,10.518,13.4a.844.844,0,0,0,1.226-.888l-.66-3.836,2.793-2.715a.844.844,0,0,0-.467-1.44ZM10.2,7.771l-.478.465.113.656.515,2.991L7.656,10.47l-.59-.31V1.8L8.412,4.52l.295.6.659.1,3.012.438L10.2,7.771Z" transform="translate(1037.025 511.499)"/></g></svg>