<svg id="_3916730" data-name="3916730" xmlns="http://www.w3.org/2000/svg" width="20" height="20" viewBox="0 0 20 20">
  <path id="Path_5" data-name="Path 5" d="M19.167,18.333H2.5a.833.833,0,0,1-.833-.833V.833A.833.833,0,0,0,0,.833V17.5A2.5,2.5,0,0,0,2.5,20H19.167a.833.833,0,0,0,0-1.667Z" transform="translate(0 0)" fill="#15573c"/>
  <path id="Path_6" data-name="Path 6" d="M14.788,18.088a.788.788,0,0,0,.788-.788V11.788a.788.788,0,0,0-1.575,0V17.3A.788.788,0,0,0,14.788,18.088Z" transform="translate(-2.275 -1.531)" fill="#15573c"/>
  <path id="Path_7" data-name="Path 7" d="M6.788,18.088a.788.788,0,0,0,.788-.788V11.788a.788.788,0,0,0-1.575,0V17.3A.788.788,0,0,0,6.788,18.088Z" transform="translate(-0.975 -1.531)" fill="#15573c"/>
  <path id="Path_8" data-name="Path 8" d="M18.788,17.026a.788.788,0,0,0,.788-.788V6.788a.788.788,0,1,0-1.575,0v9.451A.788.788,0,0,0,18.788,17.026Z" transform="translate(-2.925 -0.616)" fill="#15573c"/>
  <path id="Path_9" data-name="Path 9" d="M10.788,17.026a.788.788,0,0,0,.788-.788V6.788a.788.788,0,1,0-1.575,0v9.451A.788.788,0,0,0,10.788,17.026Z" transform="translate(-1.625 -0.616)" fill="#15573c"/>
</svg>
