<svg xmlns="http://www.w3.org/2000/svg" width="20" height="20" viewBox="0 0 20 20">
  <path id="_3914404" data-name="3914404" d="M14.163,0a.833.833,0,0,0-.833.833c0,2.457-2.152,3.333-4.166,3.333H3.333A3.333,3.333,0,0,0,0,7.5V9.167a3.316,3.316,0,0,0,1.261,2.591L4.237,18.4A2.694,2.694,0,0,0,6.7,20a2.485,2.485,0,0,0,2.266-3.5l-1.833-4H9.165c2.014,0,4.166.876,4.166,3.333a.833.833,0,1,0,1.666,0v-15A.833.833,0,0,0,14.163,0ZM7.446,17.182A.819.819,0,0,1,6.7,18.333a1.026,1.026,0,0,1-.938-.612L3.42,12.5H5.3Zm5.884-5.016a6.433,6.433,0,0,0-4.166-1.333H3.333A1.666,1.666,0,0,1,1.666,9.167V7.5A1.666,1.666,0,0,1,3.333,5.833H9.165A6.433,6.433,0,0,0,13.33,4.5Zm6.582.71a.833.833,0,0,1-1.118.373l-1.666-.833a.834.834,0,0,1,.745-1.492l1.666.833a.833.833,0,0,1,.373,1.114Zm-3.158-7.5a.833.833,0,0,1,.373-1.118l1.666-.833a.834.834,0,0,1,.745,1.492l-1.666.833A.833.833,0,0,1,16.754,5.377Zm-.092,2.957A.833.833,0,0,1,17.5,7.5h1.666a.833.833,0,0,1,0,1.667H17.5A.833.833,0,0,1,16.663,8.333Z" fill="#15573c"/>
</svg>
