<svg xmlns="http://www.w3.org/2000/svg" width="20" height="20" viewBox="0 0 20 20">
  <g id="_3917058" data-name="3917058" transform="translate(0)">
    <path id="Path_3" data-name="Path 3" d="M11.316,8a3.316,3.316,0,1,0,3.316,3.316A3.316,3.316,0,0,0,11.316,8Zm0,4.974a1.658,1.658,0,1,1,1.658-1.658A1.658,1.658,0,0,1,11.316,12.974Z" transform="translate(-1.316 -1.316)" fill="#15573c"/>
    <path id="Path_4" data-name="Path 4" d="M19.811,11.583,19.4,11.37a6.836,6.836,0,0,0,0-2.742l.411-.213A2.37,2.37,0,0,0,20.829,5a2.955,2.955,0,0,0-3.8-.917L16.62,4.3a8.582,8.582,0,0,0-2.639-1.368V2.5A2.65,2.65,0,0,0,11.2,0,2.65,2.65,0,0,0,8.424,2.5v.427A8.579,8.579,0,0,0,5.787,4.3l-.414-.216A2.955,2.955,0,0,0,1.575,5,2.37,2.37,0,0,0,2.594,8.417l.411.213a6.836,6.836,0,0,0,0,2.742l-.411.213A2.37,2.37,0,0,0,1.575,15a2.955,2.955,0,0,0,3.8.917l.412-.214a8.582,8.582,0,0,0,2.64,1.368V17.5A2.65,2.65,0,0,0,11.2,20a2.65,2.65,0,0,0,2.779-2.5v-.427A8.579,8.579,0,0,0,16.619,15.7l.414.215A2.955,2.955,0,0,0,20.83,15a2.37,2.37,0,0,0-1.019-3.417Zm-2.36-3.147a5.307,5.307,0,0,1,0,3.125.8.8,0,0,0,.43.944l1,.522a.79.79,0,0,1,.339,1.139.985.985,0,0,1-1.266.305l-1.006-.523a1,1,0,0,0-1.125.138,6.667,6.667,0,0,1-3,1.563.854.854,0,0,0-.7.807V17.5a.931.931,0,0,1-1.852,0V16.457a.854.854,0,0,0-.7-.807,6.665,6.665,0,0,1-3-1.566,1,1,0,0,0-1.125-.138l-1,.523a.984.984,0,0,1-1.265-.3.79.79,0,0,1,.339-1.138l1-.522a.8.8,0,0,0,.43-.944,5.307,5.307,0,0,1,0-3.125.8.8,0,0,0-.431-.941l-1-.522a.79.79,0,0,1-.339-1.139.985.985,0,0,1,1.266-.305l1.006.523a1,1,0,0,0,1.124-.134,6.667,6.667,0,0,1,3-1.563.854.854,0,0,0,.7-.811V2.5a.931.931,0,0,1,1.852,0V3.543a.854.854,0,0,0,.7.808,6.665,6.665,0,0,1,3,1.566,1,1,0,0,0,1.125.137l1-.523a.984.984,0,0,1,1.265.3.79.79,0,0,1-.339,1.138l-1,.522a.8.8,0,0,0-.429.941Z" transform="translate(-1.203 0)" fill="#15573c"/>
  </g>
</svg>
