<svg xmlns="http://www.w3.org/2000/svg" width="22.293" height="22.293" viewBox="0 0 22.293 22.293"><defs><style>.a{fill:#fff;}</style></defs><path class="a" d="M21.306,1.076a3.38,3.38,0,0,0-4.777,0L1.366,16.239A4.632,4.632,0,0,0,0,19.535v1.914a.932.932,0,0,0,.932.932H2.846a4.63,4.63,0,0,0,3.3-1.365L21.306,5.852a3.38,3.38,0,0,0,0-4.776ZM4.824,19.7a2.817,2.817,0,0,1-1.977.819H1.865v-.982a2.778,2.778,0,0,1,.819-1.977L14.191,6.05l2.144,2.144ZM19.986,4.534,17.65,6.871l-2.144-2.14,2.337-2.337a1.515,1.515,0,1,1,2.14,2.144Z" transform="translate(0 -0.088)"/></svg>