<svg xmlns="http://www.w3.org/2000/svg" width="343.569" height="256" viewBox="0 0 343.569 256">
  <g id="Delivery_address-rafiki" data-name="Delivery address-rafiki" transform="translate(0 -55)">
    <g id="freepik--background-complete--inject-13" transform="translate(0 55)">
      <rect id="Rectangle_290" data-name="Rectangle 290" width="343.569" height="0.172" transform="translate(0 224.969)" fill="#ebebeb"/>
      <rect id="Rectangle_291" data-name="Rectangle 291" width="22.758" height="0.172" transform="translate(286.385 236.025)" fill="#ebebeb"/>
      <rect id="Rectangle_292" data-name="Rectangle 292" width="5.971" height="0.172" transform="translate(221.622 237.894)" fill="#ebebeb"/>
      <rect id="Rectangle_293" data-name="Rectangle 293" width="13.186" height="0.172" transform="translate(272.512 229.648)" fill="#ebebeb"/>
      <rect id="Rectangle_294" data-name="Rectangle 294" width="29.677" height="0.172" transform="translate(36.047 230.803)" fill="#ebebeb"/>
      <rect id="Rectangle_295" data-name="Rectangle 295" width="4.35" height="0.172" transform="translate(71.847 230.803)" fill="#ebebeb"/>
      <rect id="Rectangle_296" data-name="Rectangle 296" width="64.371" height="0.172" transform="translate(90.338 233.702)" fill="#ebebeb"/>
      <path id="Path_3579" data-name="Path 3579" d="M174.806,249.323H42.127A3.924,3.924,0,0,1,38.21,245.4V58.889A3.924,3.924,0,0,1,42.127,55H174.806a3.924,3.924,0,0,1,3.924,3.924V245.4A3.924,3.924,0,0,1,174.806,249.323ZM42.127,55.137a3.752,3.752,0,0,0-3.745,3.752V245.4a3.752,3.752,0,0,0,3.745,3.752H174.806a3.759,3.759,0,0,0,3.752-3.752V58.889a3.759,3.759,0,0,0-3.752-3.752Z" transform="translate(-11.954 -55)" fill="#ebebeb"/>
      <path id="Path_3580" data-name="Path 3580" d="M391.11,249.323H258.424A3.93,3.93,0,0,1,254.5,245.4V58.889A3.93,3.93,0,0,1,258.424,55H391.11a3.924,3.924,0,0,1,3.91,3.889V245.4A3.924,3.924,0,0,1,391.11,249.323ZM258.424,55.137a3.759,3.759,0,0,0-3.752,3.752V245.4a3.759,3.759,0,0,0,3.752,3.752H391.11a3.759,3.759,0,0,0,3.752-3.752V58.889a3.759,3.759,0,0,0-3.752-3.752Z" transform="translate(-79.623 -55)" fill="#ebebeb"/>
      <path id="Path_3581" data-name="Path 3581" d="M383,113.731a2.549,2.549,0,0,1,2.549-2.549,2.384,2.384,0,0,1,.735.11,5.031,5.031,0,0,1-.062-.79,5.408,5.408,0,0,1,5.408-5.4,5.325,5.325,0,0,1,1,.1,4.721,4.721,0,0,1,8.754,2.384h.082a4.356,4.356,0,0,1,0,8.713H385.487A2.549,2.549,0,0,1,383,113.731Z" transform="translate(-119.826 -69.995)" fill="#f5f5f5"/>
      <path id="Path_3582" data-name="Path 3582" d="M193.26,226.294a1.271,1.271,0,0,1,1.271-1.271,1.306,1.306,0,0,1,.371.048,2.368,2.368,0,0,1-.034-.392,2.707,2.707,0,0,1,2.707-2.7,2.941,2.941,0,0,1,.495.048,2.364,2.364,0,0,1,4.377,1.2h.041a2.178,2.178,0,0,1,0,4.356H194.5a1.278,1.278,0,0,1-1.237-1.285Z" transform="translate(-60.464 -106.904)" fill="#f5f5f5"/>
      <path id="Path_3583" data-name="Path 3583" d="M76.58,108.184a1.278,1.278,0,0,1,1.278-1.278,1.3,1.3,0,0,1,.364.055,2.391,2.391,0,0,1,0-.392,2.7,2.7,0,0,1,2.7-2.7,2.432,2.432,0,0,1,.5.048,2.364,2.364,0,0,1,4.377,1.189h0a2.178,2.178,0,0,1,0,4.356H77.817a1.264,1.264,0,0,1-1.237-1.278Z" transform="translate(-23.959 -69.952)" fill="#f5f5f5"/>
      <path id="Path_3584" data-name="Path 3584" d="M58.38,217.544a1.271,1.271,0,0,1,1.278-1.271,1.291,1.291,0,0,1,.364.048,2.392,2.392,0,0,1,0-.392,2.7,2.7,0,0,1,2.7-2.7,3.023,3.023,0,0,1,.5.048,2.364,2.364,0,0,1,4.377,1.2h.041a2.178,2.178,0,1,1,0,4.356H59.624a1.285,1.285,0,0,1-1.244-1.285Z" transform="translate(-18.265 -104.167)" fill="#f5f5f5"/>
      <path id="Path_3585" data-name="Path 3585" d="M249.94,104.851a1.677,1.677,0,0,1,1.677-1.677,1.553,1.553,0,0,1,.474.076,4.324,4.324,0,0,1,0-.515,3.546,3.546,0,0,1,3.546-3.546,3.437,3.437,0,0,1,.653.062,3.092,3.092,0,0,1,5.738,1.567h.055a2.858,2.858,0,0,1,0,5.71H251.569A1.67,1.67,0,0,1,249.94,104.851Z" transform="translate(-78.197 -68.378)" fill="#f5f5f5"/>
      <path id="Path_3586" data-name="Path 3586" d="M67.975,225.036a4.034,4.034,0,0,1-.117-.77c-.1-1.587-1.608-1.333-2.9-1.553-1.01-.165,1.663-2.749-.371-3.539a1.78,1.78,0,0,1-.983-.687,1.154,1.154,0,0,1,.44-1.374,2.749,2.749,0,0,1,1.546-.392c.33-.4.062-1.01-.261-1.415a1.861,1.861,0,0,1-.591-1.374c.186-.77,1.257-.8,2.061-.646a5.5,5.5,0,0,0,.419-1.574c.144-.522.557-1.079,1.1-1.01s.818.639,1.319.756,1.079-.378,1.539-.763,1.251-.625,1.56-.117c.186.3.076.728.268,1.024.344.515,1.141.2,1.642-.172s1.285-.687,1.635-.186a1.945,1.945,0,0,1,.192.529c.234.687.969,1.017,1.539,1.45s1.031,1.306.543,1.835c-.24.261-.687.371-.776.687s.282.79.618,1.079c.557.481.687,1.91-.082,2.3-.309.165-.77.213-.845.557s.247.55.454.783a1.477,1.477,0,0,1-.454,2.2c-.179.082-.4.151-.46.344a.687.687,0,0,0,.041.412,2.233,2.233,0,0,1,.069.8.35.35,0,0,1-.1.247.392.392,0,0,1-.234.069c-1.072.048-1.594-.33-2.247.6a.824.824,0,0,1-.22.241.894.894,0,0,1-.3.076c-.742.055-1.223-.4-1.9-.488-.935-.117-1.134.364-1.958.749C68.841,226.293,68.209,225.895,67.975,225.036Z" transform="translate(-19.876 -103.584)" fill="#f5f5f5"/>
      <path id="Path_3587" data-name="Path 3587" d="M85.975,223.1a3.621,3.621,0,0,1-.117-.77c-.1-1.587-1.615-1.34-2.907-1.553-1-.172,1.663-2.749-.371-3.539a1.766,1.766,0,0,1-.976-.687,1.148,1.148,0,0,1,.44-1.374,2.748,2.748,0,0,1,1.546-.392c.33-.4.062-1.01-.261-1.422a1.861,1.861,0,0,1-.591-1.374c.179-.763,1.251-.79,2.027-.646a5.38,5.38,0,0,0,.419-1.567c.137-.522.557-1.079,1.1-1.01s.818.632,1.319.756,1.079-.378,1.532-.763,1.251-.625,1.567-.117c.186.3.076.687.268,1.024.337.515,1.141.192,1.635-.172s1.292-.687,1.642-.192a2.371,2.371,0,0,1,.192.536c.234.687.969,1.017,1.539,1.45s1.024,1.3.543,1.835c-.24.261-.687.364-.776.687s.275.79.612,1.079c.563.474.687,1.9-.076,2.3-.316.165-.77.22-.845.563s.24.543.447.783a1.477,1.477,0,0,1-.447,2.2c-.179.082-.4.151-.467.337a.735.735,0,0,0,.041.419,2.22,2.22,0,0,1,.076.8.357.357,0,0,1-.1.247.4.4,0,0,1-.24.069c-1.072.048-1.587-.337-2.24.6a.756.756,0,0,1-.227.24.687.687,0,0,1-.3.069c-.735.062-1.216-.4-1.89-.481-.935-.124-1.134.364-1.958.749C86.82,224.353,86.195,223.975,85.975,223.1Z" transform="translate(-25.507 -102.977)" fill="#f5f5f5"/>
      <path id="Path_3588" data-name="Path 3588" d="M87.671,211.63a3.622,3.622,0,0,1-.117-.77c-.1-1.587-1.615-1.333-2.9-1.553-1.01-.165,1.656-2.714-.371-3.539a1.78,1.78,0,0,1-.983-.687,1.154,1.154,0,0,1,.44-1.409,2.749,2.749,0,0,1,1.546-.392c.33-.4.062-1.01-.261-1.422a1.861,1.861,0,0,1-.591-1.374c.186-.763,1.257-.79,2.061-.639a5.5,5.5,0,0,0,.419-1.574c.137-.522.557-1.079,1.1-1.01s.818.639,1.319.756,1.079-.378,1.539-.763,1.251-.625,1.56-.117c.186.3.076.721.268,1.024.344.515,1.141.192,1.642-.172s1.285-.687,1.635-.192a2.062,2.062,0,0,1,.192.536c.234.687.969,1.017,1.539,1.45s1.024,1.306.543,1.835c-.24.261-.687.364-.776.687s.275.79.618,1.079c.557.481.687,1.91-.082,2.3-.309.158-.77.213-.845.557s.241.543.454.783a1.477,1.477,0,0,1-.454,2.2c-.179.082-.4.151-.467.344a.722.722,0,0,0,.048.412,2.22,2.22,0,0,1,.069.8.357.357,0,0,1-.1.247.392.392,0,0,1-.234.069c-1.072.048-1.594-.337-2.247.6a.825.825,0,0,1-.22.24.887.887,0,0,1-.3.076c-.735.055-1.216-.405-1.89-.488-.935-.117-1.134.364-1.958.749C88.564,212.887,87.911,212.509,87.671,211.63Z" transform="translate(-26.034 -99.379)" fill="#f5f5f5"/>
      <path id="Path_3589" data-name="Path 3589" d="M99.515,217.349a4.034,4.034,0,0,1-.117-.77c-.1-1.587-1.608-1.333-2.9-1.553-1.01-.165,1.663-2.749-.371-3.532a1.828,1.828,0,0,1-.983-.687,1.154,1.154,0,0,1,.44-1.374,2.749,2.749,0,0,1,1.546-.385c.33-.405.062-1.01-.261-1.422a1.861,1.861,0,0,1-.591-1.374c.186-.77,1.257-.8,2.061-.646a5.5,5.5,0,0,0,.419-1.567c.144-.529.563-1.079,1.1-1.017s.825.639,1.319.756,1.086-.378,1.539-.763,1.251-.625,1.56-.117c.192.3.076.728.275,1.024.337.515,1.134.2,1.635-.172s1.285-.687,1.635-.186a1.945,1.945,0,0,1,.192.529c.24.687.969,1.017,1.546,1.45s1.024,1.306.536,1.835c-.234.261-.687.371-.776.687s.282.79.618,1.079c.563.481.687,1.91-.082,2.3-.309.165-.77.213-.845.557s.247.55.454.783a1.477,1.477,0,0,1-.454,2.2c-.179.082-.4.158-.46.344a.687.687,0,0,0,.041.412,2.233,2.233,0,0,1,.069.8.35.35,0,0,1-.1.247.392.392,0,0,1-.234.069c-1.072.048-1.587-.33-2.247.6a.8.8,0,0,1-.22.234.632.632,0,0,1-.3.076c-.742.062-1.223-.4-1.9-.488-.935-.117-1.134.364-1.958.749C100.388,218.606,99.756,218.228,99.515,217.349Z" transform="translate(-29.743 -101.181)" fill="#f5f5f5"/>
      <path id="Path_3590" data-name="Path 3590" d="M111.485,214.716a3.622,3.622,0,0,1-.117-.77c-.1-1.587-1.608-1.34-2.9-1.553-1.01-.172,1.656-2.749-.371-3.539a1.78,1.78,0,0,1-.983-.687,1.154,1.154,0,0,1,.44-1.374,2.748,2.748,0,0,1,1.546-.392c.33-.4.062-1.01-.261-1.422a1.861,1.861,0,0,1-.591-1.374c.186-.763,1.257-.79,2.061-.646a5.38,5.38,0,0,0,.419-1.567c.137-.522.557-1.079,1.1-1.01s.818.632,1.319.756,1.079-.378,1.539-.763,1.251-.625,1.56-.117c.186.3.076.687.268,1.024.344.515,1.141.192,1.642-.172s1.285-.687,1.635-.192a2.061,2.061,0,0,1,.192.536c.234.687.969,1.017,1.539,1.45s1.024,1.3.543,1.835c-.241.261-.687.364-.776.687s.282.79.618,1.079c.557.474.687,1.91-.082,2.3-.309.165-.77.22-.845.563s.247.543.454.783a1.477,1.477,0,0,1-.454,2.2c-.179.082-.4.151-.467.337a.742.742,0,0,0,.048.419,2.22,2.22,0,0,1,.069.8.357.357,0,0,1-.1.247.392.392,0,0,1-.234.069c-1.072.048-1.594-.337-2.247.6a.825.825,0,0,1-.22.24.749.749,0,0,1-.3.069c-.735.062-1.216-.4-1.89-.481-.935-.124-1.134.364-1.958.749C112.358,215.973,111.726,215.6,111.485,214.716Z" transform="translate(-33.488 -100.355)" fill="#f5f5f5"/>
      <path id="Path_3591" data-name="Path 3591" d="M112.064,228.943a3.114,3.114,0,0,1-.089-.6c-.076-1.251-1.264-1.051-2.281-1.223-.8-.131,1.306-2.137-.3-2.749a1.429,1.429,0,0,1-.77-.543.9.9,0,0,1,.344-1.106,2.206,2.206,0,0,1,1.216-.309c.261-.316.048-.79-.2-1.12s-.563-.687-.467-1.093c.144-.6.989-.625,1.594-.5a4.445,4.445,0,0,0,.33-1.237c.11-.419.44-.852.866-.8s.646.5,1.038.591.852-.3,1.209-.6.989-.495,1.23-.1c.151.24.062.577.213.811.268.405.9.151,1.292-.137s1.017-.55,1.292-.144a1.642,1.642,0,0,1,.151.412c.186.536.763.8,1.209,1.148s.811,1.024.426,1.443c-.186.206-.515.289-.612.55s.22.625.488.852c.44.378.522,1.5-.062,1.807-.247.131-.6.172-.687.44s.192.433.357.618a1.168,1.168,0,0,1-.357,1.732c-.144.069-.316.124-.364.268a.508.508,0,0,0,0,.33,1.732,1.732,0,0,1,.055.625.22.22,0,0,1-.261.247c-.845.041-1.257-.261-1.773.474a.557.557,0,0,1-.172.186.536.536,0,0,1-.234.062c-.584.048-.962-.316-1.491-.385-.735-.089-.893.289-1.539.591C112.751,229.933,112.256,229.637,112.064,228.943Z" transform="translate(-33.964 -105.788)" fill="#f5f5f5"/>
      <path id="Path_3592" data-name="Path 3592" d="M118.345,223.1a4.123,4.123,0,0,1-.117-.77c-.089-1.587-1.608-1.34-2.9-1.553-1.01-.172,1.663-2.749-.371-3.539a1.78,1.78,0,0,1-.983-.687,1.154,1.154,0,0,1,.44-1.374,2.748,2.748,0,0,1,1.546-.392c.33-.4.062-1.01-.261-1.422a1.861,1.861,0,0,1-.591-1.374c.186-.763,1.257-.79,2.061-.646a5.854,5.854,0,0,0,.419-1.567c.137-.522.557-1.079,1.093-1.01s.825.632,1.319.756,1.086-.378,1.539-.763,1.251-.625,1.56-.117c.192.3.076.687.275,1.024.337.515,1.134.192,1.635-.172s1.285-.687,1.635-.192a2.062,2.062,0,0,1,.192.536c.241.687.969,1.017,1.546,1.45s1.024,1.3.536,1.835c-.234.261-.687.364-.776.687s.282.79.618,1.079c.563.474.687,1.9-.082,2.3-.309.165-.77.22-.845.563s.247.543.454.783a1.477,1.477,0,0,1-.454,2.2c-.179.082-.4.151-.46.337a.687.687,0,0,0,.041.419,2.22,2.22,0,0,1,.069.8.357.357,0,0,1-.1.247.392.392,0,0,1-.234.069c-1.072.048-1.587-.337-2.247.6a.735.735,0,0,1-.22.24.687.687,0,0,1-.3.069c-.742.062-1.223-.4-1.9-.481-.935-.124-1.134.364-1.958.749C119.218,224.353,118.593,223.975,118.345,223.1Z" transform="translate(-35.635 -102.977)" fill="#f5f5f5"/>
      <path id="Path_3593" data-name="Path 3593" d="M99.511,203.267a4.123,4.123,0,0,1-.117-.77c-.1-1.587-1.608-1.333-2.9-1.553-1.01-.165,1.663-2.714-.371-3.539a1.78,1.78,0,0,1-.983-.687,1.154,1.154,0,0,1,.44-1.409,2.749,2.749,0,0,1,1.546-.392c.33-.4.062-1.01-.261-1.422a1.861,1.861,0,0,1-.591-1.374c.186-.77,1.257-.8,2.061-.646a5.5,5.5,0,0,0,.419-1.574c.144-.522.563-1.079,1.1-1.01s.825.639,1.319.756,1.086-.378,1.539-.763,1.251-.625,1.56-.117c.192.3.076.721.275,1.024.337.515,1.134.2,1.635-.172s1.285-.687,1.635-.192a2.061,2.061,0,0,1,.192.536c.24.687.969,1.017,1.546,1.45s1.024,1.306.536,1.835c-.234.261-.687.364-.776.687s.282.79.618,1.079c.563.481.687,1.91-.082,2.3-.309.158-.77.213-.845.557s.247.543.454.783a1.477,1.477,0,0,1-.454,2.2c-.179.082-.4.151-.46.344a.687.687,0,0,0,.041.412,2.219,2.219,0,0,1,.069.8.357.357,0,0,1-.1.247.392.392,0,0,1-.234.069c-1.072.048-1.587-.337-2.247.6a.824.824,0,0,1-.22.241.852.852,0,0,1-.3.076c-.742.055-1.223-.405-1.9-.488-.935-.117-1.134.364-1.958.749C100.383,204.511,99.751,204.133,99.511,203.267Z" transform="translate(-29.739 -96.761)" fill="#f5f5f5"/>
      <path id="Path_3594" data-name="Path 3594" d="M84.139,204.036a3.49,3.49,0,0,1-.117-.763c-.1-1.587-1.615-1.374-2.907-1.553-1-.172,1.663-2.714-.371-3.539a1.78,1.78,0,0,1-.983-.687,1.161,1.161,0,0,1,.447-1.409,2.749,2.749,0,0,1,1.546-.385c.33-.405.062-1.01-.261-1.422A1.861,1.861,0,0,1,80.9,192.9c.179-.763,1.251-.79,2.061-.646a5.38,5.38,0,0,0,.419-1.567c.137-.529.557-1.079,1.1-1.01s.818.632,1.319.749,1.079-.371,1.532-.756,1.251-.625,1.567-.124c.186.309.076.728.268,1.031.337.515,1.141.192,1.635-.172s1.292-.687,1.642-.192a2.316,2.316,0,0,1,.192.529c.234.687.969,1.017,1.539,1.457s1.024,1.3.543,1.835c-.24.261-.687.364-.776.687s.275.79.612,1.079c.563.474.687,1.9-.076,2.3-.316.165-.77.213-.845.557s.241.55.447.79a1.47,1.47,0,0,1-.447,2.192c-.179.089-.4.158-.467.344a.735.735,0,0,0,.041.419,2.2,2.2,0,0,1,.076.79.4.4,0,0,1-.1.254.371.371,0,0,1-.24.062c-1.072.048-1.587-.33-2.24.6a.735.735,0,0,1-.227.234.632.632,0,0,1-.3.076c-.735.062-1.216-.4-1.89-.481-.935-.124-1.134.357-1.958.749C85,205.293,84.379,204.922,84.139,204.036Z" transform="translate(-24.928 -97.007)" fill="#f5f5f5"/>
      <path id="Path_3595" data-name="Path 3595" d="M74.8,210.346a3.622,3.622,0,0,1-.117-.77c-.1-1.587-1.615-1.34-2.907-1.553-1-.172,1.663-2.749-.371-3.539a1.766,1.766,0,0,1-.976-.687,1.148,1.148,0,0,1,.44-1.374,2.749,2.749,0,0,1,1.546-.392c.33-.4.062-1.01-.261-1.422a1.861,1.861,0,0,1-.591-1.374c.186-.763,1.251-.79,2.027-.646a5.38,5.38,0,0,0,.419-1.567c.137-.522.557-1.079,1.1-1.01s.818.632,1.319.756,1.079-.378,1.532-.763,1.251-.625,1.567-.117c.186.3.076.687.268,1.024.337.515,1.141.192,1.635-.172s1.292-.687,1.642-.192a2.37,2.37,0,0,1,.192.536c.234.687.969,1.017,1.539,1.45s1.024,1.3.543,1.835c-.241.261-.687.364-.776.687s.275.79.612,1.079c.563.474.687,1.91-.076,2.3-.309.165-.77.22-.845.563s.24.543.447.783a1.477,1.477,0,0,1-.447,2.2c-.179.082-.4.151-.467.337a.735.735,0,0,0,.041.419,2.061,2.061,0,0,1,.076.8.357.357,0,0,1-.1.247.4.4,0,0,1-.24.069c-1.072.048-1.587-.337-2.24.6a.756.756,0,0,1-.227.24.687.687,0,0,1-.3.069c-.735.062-1.216-.4-1.89-.481-.935-.124-1.134.364-1.958.749C75.671,211.6,75.045,211.225,74.8,210.346Z" transform="translate(-22.012 -98.988)" fill="#f5f5f5"/>
      <path id="Path_3596" data-name="Path 3596" d="M79.66,220.726s2.68,3.793,3.607,5,5.552,8.7,6.184,13.66c.069.529.131.983.2,1.374-1.993,13.138-1.683,63.285-1.608,67.4h8.163c-1.553-30.825-1.264-73.173-1.072-74.465s2.845-6.59,6.919-8.734,7.559-9.235,7.559-9.235h-1.3a23.267,23.267,0,0,1-5.834,6.755,12.959,12.959,0,0,1-1.539.914,21.817,21.817,0,0,0-1.374-7.668l-.687.646a18.118,18.118,0,0,1,.536,7.778,14.093,14.093,0,0,0-3.539,2.371c-3.552-4.618-5.552-15.179-5.552-15.179l-.907.495a53.887,53.887,0,0,0,1.175,6.48,105.814,105.814,0,0,0,3.532,10.218,23.781,23.781,0,0,0-2.68,5.037,2.061,2.061,0,0,0-.344-.412c-2.316-2.1-6.665-11.977-6.665-11.977-1.051-2.3.557-8.328.557-8.328H83.81l-.543,5.277L80.217,214.8l-.557.46,3.236,4.164,1.67,5.277-4.35-4.81Z" transform="translate(-24.923 -103.913)" fill="#f5f5f5"/>
      <path id="Path_3597" data-name="Path 3597" d="M426.9,235.726a3.066,3.066,0,0,0,.11-.687c.089-1.484,1.5-1.251,2.714-1.45.941-.158-1.553-2.536.344-3.305a1.684,1.684,0,0,0,.921-.639,1.086,1.086,0,0,0-.419-1.319,2.584,2.584,0,0,0-1.443-.364c-.309-.371-.055-.941.247-1.326s.687-.825.55-1.3c-.172-.687-1.168-.742-1.9-.6a5.216,5.216,0,0,1-.392-1.47c-.131-.488-.522-1.01-1.024-.948s-.77.6-1.237.687-1.01-.35-1.436-.687-1.168-.584-1.457-.117c-.179.289-.069.687-.254.962-.316.481-1.065.186-1.525-.158s-1.209-.687-1.532-.179a2.062,2.062,0,0,0-.186.495c-.22.632-.9.948-1.436,1.374s-.962,1.216-.508,1.711c.227.247.618.344.728.653s-.261.742-.577,1.01c-.522.447-.618,1.787.076,2.151.289.151.687.2.79.522s-.227.508-.419.728a1.374,1.374,0,0,0,.419,2.061c.165.082.371.151.433.323a.687.687,0,0,1-.041.385,1.958,1.958,0,0,0-.062.749.33.33,0,0,0,.089.234.378.378,0,0,0,.22.062c1,.041,1.484-.316,2.1.557a.824.824,0,0,0,.206.227.687.687,0,0,0,.282.069c.687.055,1.141-.378,1.766-.454.873-.117,1.058.337,1.828.687C426.088,236.9,426.672,236.55,426.9,235.726Z" transform="translate(-130.392 -107.231)" fill="#f5f5f5"/>
      <path id="Path_3598" data-name="Path 3598" d="M410.1,233.906a4.215,4.215,0,0,0,.11-.687c.082-1.484,1.5-1.251,2.707-1.457.948-.151-1.553-2.536.35-3.305a1.635,1.635,0,0,0,.914-.639,1.072,1.072,0,0,0-.412-1.312,2.5,2.5,0,0,0-1.443-.364c-.309-.378-.055-.941.241-1.333s.687-.818.557-1.292c-.172-.721-1.175-.742-1.9-.6a5.236,5.236,0,0,1-.392-1.464c-.131-.495-.522-1.01-1.024-.948s-.77.591-1.237.687-1.01-.35-1.436-.687-1.168-.584-1.457-.11c-.179.282-.076.687-.254.955-.316.488-1.065.186-1.532-.158s-1.2-.687-1.532-.179a2.28,2.28,0,0,0-.179.5c-.22.632-.907.948-1.436,1.374s-.962,1.216-.508,1.711c.22.247.618.344.728.687s-.261.742-.577,1.01c-.529.447-.618,1.78.076,2.144.289.158.687.2.79.522s-.227.515-.426.735a1.374,1.374,0,0,0,.426,2.061c.165.076.371.144.433.316a.687.687,0,0,1-.041.392,2.062,2.062,0,0,0-.069.742.35.35,0,0,0,.089.234.364.364,0,0,0,.227.062c1,.048,1.484-.309,2.1.563a.633.633,0,0,0,.206.22.687.687,0,0,0,.275.069c.687.055,1.141-.371,1.773-.454.873-.11,1.058.337,1.828.687C409.28,235.081,409.871,234.731,410.1,233.906Z" transform="translate(-125.135 -106.662)" fill="#f5f5f5"/>
      <path id="Path_3599" data-name="Path 3599" d="M408.479,223.206a4.219,4.219,0,0,0,.11-.687c.089-1.491,1.5-1.251,2.707-1.457.948-.158-1.553-2.536.35-3.305a1.663,1.663,0,0,0,.914-.639,1.079,1.079,0,0,0-.412-1.319,2.535,2.535,0,0,0-1.443-.357c-.309-.378-.055-.948.241-1.333s.687-.818.557-1.292c-.172-.687-1.175-.742-1.9-.6a5.235,5.235,0,0,1-.392-1.464c-.131-.495-.522-1.01-1.024-.948s-.77.591-1.237.687-1.01-.35-1.436-.687-1.168-.584-1.457-.11c-.179.282-.076.687-.254.955-.316.488-1.065.186-1.532-.158s-1.2-.653-1.532-.179a2.349,2.349,0,0,0-.179.495c-.22.639-.907.955-1.436,1.374s-.962,1.216-.508,1.711c.227.247.618.344.728.687s-.261.742-.577,1.01c-.522.447-.618,1.78.076,2.144.289.158.687.2.79.522s-.227.515-.426.735a1.374,1.374,0,0,0,.426,2.061c.165.076.371.144.433.316a.687.687,0,0,1-.041.392,2.062,2.062,0,0,0-.069.742.357.357,0,0,0,.1.234.378.378,0,0,0,.22.062c1,.041,1.484-.309,2.1.563a.632.632,0,0,0,.206.22.687.687,0,0,0,.282.069c.687.055,1.134-.371,1.766-.454.873-.11,1.058.337,1.828.687C407.661,224.381,408.252,224.031,408.479,223.206Z" transform="translate(-124.629 -103.314)" fill="#f5f5f5"/>
      <path id="Path_3600" data-name="Path 3600" d="M397.389,228.536a3.182,3.182,0,0,0,.11-.687c.089-1.491,1.5-1.251,2.714-1.457.941-.158-1.553-2.536.344-3.305a1.684,1.684,0,0,0,.921-.639,1.093,1.093,0,0,0-.419-1.319,2.522,2.522,0,0,0-1.443-.357c-.309-.378-.055-.948.247-1.333s.687-.818.55-1.292c-.172-.721-1.168-.742-1.9-.6a5.237,5.237,0,0,1-.392-1.464c-.131-.495-.522-1.01-1.024-.948s-.77.591-1.237.687-1.01-.35-1.436-.687-1.168-.584-1.457-.11c-.179.282-.069.687-.254.955-.316.488-1.065.186-1.525-.158s-1.209-.653-1.532-.179a2.06,2.06,0,0,0-.186.495c-.22.639-.9.955-1.436,1.374s-.962,1.216-.508,1.711c.227.247.618.344.728.687s-.261.735-.577,1.01c-.522.447-.618,1.78.076,2.144.289.158.721.2.79.522s-.227.515-.419.735a1.374,1.374,0,0,0,.419,2.061c.165.076.371.144.433.316a.687.687,0,0,1-.041.392,1.937,1.937,0,0,0-.062.742.323.323,0,0,0,.089.234.378.378,0,0,0,.22.062c1,.041,1.484-.309,2.1.563a.79.79,0,0,0,.206.22.687.687,0,0,0,.282.069c.687.055,1.141-.371,1.766-.454.873-.11,1.058.337,1.828.687C396.592,229.711,397.176,229.354,397.389,228.536Z" transform="translate(-121.159 -104.982)" fill="#f5f5f5"/>
      <path id="Path_3601" data-name="Path 3601" d="M386.219,226.079a3.183,3.183,0,0,0,.11-.687c.089-1.484,1.5-1.244,2.714-1.45.941-.158-1.553-2.536.35-3.305a1.663,1.663,0,0,0,.914-.639,1.079,1.079,0,0,0-.412-1.319,2.549,2.549,0,0,0-1.443-.357c-.309-.378-.062-.948.241-1.333s.687-.818.557-1.3c-.172-.687-1.175-.742-1.9-.6a4.994,4.994,0,0,1-.392-1.47c-.131-.488-.522-1-1.031-.941s-.763.591-1.23.687-1.01-.35-1.436-.687-1.168-.584-1.464-.11c-.172.282-.069.687-.254.955-.309.481-1.058.186-1.525-.158s-1.2-.653-1.532-.179a1.774,1.774,0,0,0-.179.495c-.22.639-.907.955-1.443,1.374s-.955,1.216-.5,1.711c.22.247.612.344.721.687s-.261.735-.57,1c-.529.447-.625,1.787.069,2.151.3.151.721.2.79.522s-.227.508-.419.735a1.374,1.374,0,0,0,.419,2.061c.172.076.371.144.433.316a.646.646,0,0,1,0,.392,1.938,1.938,0,0,0-.069.742.35.35,0,0,0,.089.234.405.405,0,0,0,.22.062c1,.041,1.484-.309,2.1.563a.81.81,0,0,0,.213.22.625.625,0,0,0,.275.069c.687.055,1.141-.371,1.773-.454.873-.11,1.058.337,1.828.687C385.408,227.254,385.992,226.9,386.219,226.079Z" transform="translate(-117.665 -104.215)" fill="#f5f5f5"/>
      <path id="Path_3602" data-name="Path 3602" d="M387.058,239.356a2.637,2.637,0,0,0,.082-.563c.069-1.168,1.189-.983,2.137-1.141.742-.124-1.223-2,.275-2.6a1.333,1.333,0,0,0,.721-.5.852.852,0,0,0-.323-1.038,1.993,1.993,0,0,0-1.141-.289c-.24-.3-.041-.742.192-1.044s.522-.646.433-1.024c-.131-.563-.921-.584-1.491-.474a3.972,3.972,0,0,1-.309-1.154c-.1-.385-.405-.79-.8-.742s-.6.467-.976.557-.8-.282-1.127-.563-.921-.46-1.154-.089c-.137.227-.055.536-.2.756-.247.385-.838.144-1.2-.124s-.948-.515-1.2-.137a1.375,1.375,0,0,0-.144.392c-.172.495-.687.742-1.134,1.065s-.756.955-.4,1.374c.179.192.488.275.57.522s-.206.577-.454.79a1.171,1.171,0,0,0,.062,1.69c.227.124.563.158.618.412s-.179.405-.33.577a1.086,1.086,0,0,0,.33,1.615c.137.069.3.117.344.254a.536.536,0,0,1,0,.309,1.513,1.513,0,0,0-.055.584.3.3,0,0,0,.069.186.378.378,0,0,0,.172.048c.79.034,1.175-.247,1.656.44a.591.591,0,0,0,.165.179.563.563,0,0,0,.213.048c.543.048.9-.289,1.374-.357.687-.082.838.268,1.443.557C386.419,240.283,386.879,240.008,387.058,239.356Z" transform="translate(-118.6 -109.274)" fill="#f5f5f5"/>
      <path id="Path_3603" data-name="Path 3603" d="M379.809,233.906a3.182,3.182,0,0,0,.11-.687c.089-1.484,1.5-1.251,2.714-1.457.941-.151-1.553-2.536.344-3.305a1.649,1.649,0,0,0,.921-.639,1.079,1.079,0,0,0-.419-1.312,2.474,2.474,0,0,0-1.443-.364c-.309-.378-.055-.941.247-1.333s.687-.818.55-1.292c-.172-.721-1.175-.742-1.9-.6a5.234,5.234,0,0,1-.392-1.464c-.131-.495-.522-1.01-1.024-.948s-.77.591-1.237.687-1.01-.35-1.436-.687-1.168-.584-1.457-.11c-.179.282-.069.687-.254.955-.316.488-1.065.186-1.525-.158s-1.209-.687-1.532-.179a1.986,1.986,0,0,0-.185.5c-.22.632-.9.948-1.436,1.374s-.962,1.216-.508,1.711c.227.247.618.344.728.687s-.261.742-.577,1.01c-.522.447-.618,1.78.076,2.144.289.158.687.2.79.522s-.227.515-.419.735a1.374,1.374,0,0,0,.419,2.061c.165.076.371.144.433.316a.687.687,0,0,1-.041.392,1.937,1.937,0,0,0-.082.632.323.323,0,0,0,.089.234.33.33,0,0,0,.22.062c1,.048,1.484-.309,2.061.563a.79.79,0,0,0,.206.22.687.687,0,0,0,.282.069c.687.055,1.141-.371,1.766-.454.873-.11,1.058.337,1.828.687C379,235.081,379.582,234.731,379.809,233.906Z" transform="translate(-115.659 -106.662)" fill="#f5f5f5"/>
      <path id="Path_3604" data-name="Path 3604" d="M397.389,215.364a3.183,3.183,0,0,0,.11-.721c.089-1.484,1.5-1.251,2.714-1.45.941-.158-1.553-2.536.344-3.305a1.683,1.683,0,0,0,.921-.639,1.093,1.093,0,0,0-.419-1.319,2.522,2.522,0,0,0-1.443-.357c-.309-.378-.055-.948.247-1.333s.687-.825.55-1.3c-.172-.687-1.168-.742-1.9-.6a5.214,5.214,0,0,1-.392-1.47c-.131-.488-.522-1-1.024-.941s-.77.591-1.237.687-1.01-.35-1.436-.687-1.168-.584-1.457-.11c-.179.282-.069.687-.254.955-.316.481-1.065.186-1.525-.158s-1.209-.687-1.532-.179a2.06,2.06,0,0,0-.186.495c-.22.639-.9.955-1.436,1.374s-.962,1.216-.508,1.711c.227.247.618.344.728.687s-.261.735-.577,1c-.522.447-.618,1.787.076,2.151.289.151.721.2.79.522s-.227.508-.419.735a1.374,1.374,0,0,0,.419,2.061c.165.076.371.144.433.316a.625.625,0,0,1-.041.385,1.972,1.972,0,0,0-.062.749.323.323,0,0,0,.089.234.378.378,0,0,0,.22.062c1,.041,1.484-.309,2.1.563a.9.9,0,0,0,.206.22.687.687,0,0,0,.282.069c.687.055,1.141-.371,1.766-.454.873-.11,1.058.337,1.828.687C396.592,216.539,397.176,216.188,397.389,215.364Z" transform="translate(-121.159 -100.852)" fill="#f5f5f5"/>
      <path id="Path_3605" data-name="Path 3605" d="M411.779,216.107a3.119,3.119,0,0,0,.11-.687c.089-1.484,1.5-1.251,2.714-1.45.941-.158-1.553-2.542.344-3.312a1.649,1.649,0,0,0,.921-.639,1.079,1.079,0,0,0-.419-1.312,2.474,2.474,0,0,0-1.443-.364c-.309-.378-.055-.941.247-1.326s.687-.825.55-1.3c-.172-.687-1.168-.742-1.9-.6a5.237,5.237,0,0,1-.392-1.464c-.131-.495-.522-1.01-1.024-.948s-.77.6-1.23.687-1.017-.357-1.436-.687-1.175-.584-1.464-.11c-.179.282-.069.687-.254.955-.316.488-1.065.186-1.525-.158s-1.209-.653-1.532-.179a2.061,2.061,0,0,0-.185.5c-.22.632-.9.948-1.436,1.374s-.955,1.216-.508,1.718c.227.24.618.344.728.687s-.261.742-.577,1.01c-.522.447-.618,1.78.076,2.144.289.158.721.206.79.522s-.227.515-.419.735a1.374,1.374,0,0,0,.419,2.061c.165.082.371.144.433.323a.584.584,0,0,1-.041.385,1.938,1.938,0,0,0-.062.742.268.268,0,0,0,.309.3c1,.048,1.484-.309,2.1.563a.721.721,0,0,0,.213.22.625.625,0,0,0,.275.069c.687.062,1.141-.371,1.766-.454.873-.11,1.058.344,1.828.687C410.968,217.282,411.552,216.932,411.779,216.107Z" transform="translate(-125.662 -101.094)" fill="#f5f5f5"/>
      <path id="Path_3606" data-name="Path 3606" d="M420.524,221.986a3.47,3.47,0,0,0,.11-.687c.089-1.484,1.5-1.251,2.749-1.45.941-.158-1.553-2.542.344-3.305a1.745,1.745,0,0,0,.921-.639,1.086,1.086,0,0,0-.419-1.319,2.543,2.543,0,0,0-1.443-.364c-.309-.378-.055-.941.247-1.326s.687-.825.55-1.3c-.172-.687-1.175-.742-1.9-.6a5.236,5.236,0,0,1-.392-1.464c-.131-.495-.522-1.01-1.024-.948s-.77.6-1.237.687-1.01-.35-1.436-.687-1.168-.584-1.457-.11c-.179.282-.069.687-.254.962-.316.481-1.065.179-1.532-.165s-1.2-.653-1.525-.172a2.062,2.062,0,0,0-.186.495c-.22.632-.907.948-1.436,1.374s-.962,1.216-.508,1.718c.227.24.618.344.728.687s-.261.742-.577,1.01c-.522.447-.618,1.78.076,2.151.289.151.687.2.79.522s-.227.508-.419.728a1.374,1.374,0,0,0,.419,2.061c.165.082.371.144.433.323a.687.687,0,0,1-.041.385,1.937,1.937,0,0,0-.062.742.309.309,0,0,0,.089.234.3.3,0,0,0,.22.062c1,.048,1.484-.309,2.1.563a.79.79,0,0,0,.206.22.687.687,0,0,0,.282.069c.687.062,1.141-.371,1.766-.454.873-.11,1.058.344,1.828.687C419.714,223.182,420.3,222.811,420.524,221.986Z" transform="translate(-128.408 -102.933)" fill="#f5f5f5"/>
      <path id="Path_3607" data-name="Path 3607" d="M409.721,231.708s-2.508,3.546-3.374,4.666-5.188,8.136-5.772,12.767c-.069.495-.131.921-.186,1.292,1.855,12.279,1.567,59.156,1.5,63h-7.607c1.45-28.8,1.182-68.391,1-69.6s-2.659-6.184-6.466-8.163-7.091-8.63-7.091-8.63h1.209a21.745,21.745,0,0,0,5.449,6.315,12.807,12.807,0,0,0,1.443.852,20.394,20.394,0,0,1,1.271-7.167l.653.6a17.2,17.2,0,0,0-.5,7.27,13.056,13.056,0,0,1,3.312,2.213c3.319-4.315,5.188-14.183,5.188-14.183l.852.46a51.465,51.465,0,0,1-1.1,6.054c-.625,2.556-2.453,7.366-3.305,9.551a22.826,22.826,0,0,1,2.508,4.707,1.746,1.746,0,0,1,.323-.385c2.158-1.951,6.225-11.193,6.225-11.193.983-2.144-.522-7.778-.522-7.778h1.134l.508,4.927,2.858-3.113.515.433-3.023,3.889-1.56,4.934,4.068-4.5Z" transform="translate(-119.426 -107.542)" fill="#f5f5f5"/>
      <path id="Path_3608" data-name="Path 3608" d="M292.621,201.79a4.549,4.549,0,0,0,.137-.935c.117-1.938,1.965-1.629,3.539-1.89,1.23-.206-2.027-3.312.453-4.315a2.164,2.164,0,0,0,1.2-.838,1.374,1.374,0,0,0-.536-1.718,3.305,3.305,0,0,0-1.883-.467c-.405-.495-.076-1.237.316-1.738s.873-1.072.721-1.69c-.227-.934-1.532-.969-2.474-.79a6.825,6.825,0,0,1-.515-1.91c-.165-.639-.687-1.312-1.333-1.237s-1,.776-1.608.921-1.319-.46-1.876-.928-1.525-.763-1.91-.144c-.227.371-.089.886-.33,1.251-.412.632-1.374.241-1.993-.206s-1.574-.852-2-.234a2.685,2.685,0,0,0-.234.646c-.289.831-1.182,1.244-1.883,1.773s-1.244,1.587-.653,2.233c.289.323.8.454.941.859.186.508-.337.969-.749,1.312-.687.584-.811,2.329.1,2.8.378.206.941.268,1.031.687s-.3.687-.55.955a1.8,1.8,0,0,0,.55,2.68c.22.1.488.186.57.412a.873.873,0,0,1-.055.508,2.748,2.748,0,0,0-.089.969.35.35,0,0,0,.405.385c1.312.062,1.945-.4,2.749.735a.9.9,0,0,0,.268.289.839.839,0,0,0,.364.089c.9.076,1.484-.481,2.309-.591,1.141-.144,1.374.447,2.384.914C291.555,203.329,292.325,202.869,292.621,201.79Z" transform="translate(-87.414 -95.284)" fill="#f5f5f5"/>
      <path id="Path_3609" data-name="Path 3609" d="M270.665,199.419a4.527,4.527,0,0,0,.144-.935c.117-1.938,1.965-1.629,3.539-1.89,1.23-.206-2.027-3.312.454-4.315a2.185,2.185,0,0,0,1.2-.831,1.409,1.409,0,0,0-.543-1.725,3.278,3.278,0,0,0-1.876-.467c-.405-.495-.076-1.237.316-1.738s.866-1.072.687-1.69c-.227-.935-1.532-.969-2.474-.783a6.871,6.871,0,0,1-.515-1.917c-.172-.639-.687-1.312-1.34-1.237s-1,.776-1.608.921-1.319-.454-1.876-.928-1.519-.763-1.9-.144c-.227.371-.089.886-.33,1.251-.412.632-1.374.241-1.993-.206s-1.574-.852-2-.234a2.687,2.687,0,0,0-.234.646c-.289.831-1.182,1.244-1.883,1.773s-1.251,1.587-.687,2.24c.3.316.8.447.948.852.179.508-.337.969-.749,1.319-.687.577-.811,2.323.1,2.8.378.2.934.261,1.031.687s-.3.687-.55.955a1.8,1.8,0,0,0,.55,2.68c.22.1.488.186.563.419a.8.8,0,0,1-.048.5,2.749,2.749,0,0,0-.089.969.474.474,0,0,0,.117.309.509.509,0,0,0,.289.082c1.306.055,1.938-.405,2.749.728a.92.92,0,0,0,.275.289.735.735,0,0,0,.364.089c.893.076,1.484-.481,2.309-.591,1.134-.144,1.374.447,2.384.914C269.607,200.959,270.37,200.5,270.665,199.419Z" transform="translate(-80.528 -94.542)" fill="#f5f5f5"/>
      <path id="Path_3610" data-name="Path 3610" d="M268.57,185.473a4.529,4.529,0,0,0,.144-.935c.11-1.938,1.965-1.629,3.539-1.89,1.23-.206-2.027-3.312.453-4.315a2.165,2.165,0,0,0,1.2-.838,1.409,1.409,0,0,0-.543-1.718,3.346,3.346,0,0,0-1.883-.474c-.405-.488-.076-1.23.316-1.732s.873-1.072.687-1.69c-.22-.935-1.525-.969-2.474-.79a6.59,6.59,0,0,1-.474-1.883c-.172-.639-.687-1.319-1.34-1.237s-1,.776-1.608.921-1.319-.46-1.876-.928-1.525-.763-1.9-.144c-.234.371-.1.886-.33,1.251-.412.632-1.374.241-2-.206s-1.567-.852-1.993-.234a2.438,2.438,0,0,0-.24.646c-.282.831-1.182,1.244-1.876,1.773s-1.251,1.587-.687,2.233c.289.323.8.454.948.859.179.508-.344.962-.756,1.312-.687.584-.8,2.329.1,2.8.378.2.935.261,1.031.687s-.3.687-.55.962a1.793,1.793,0,0,0,.55,2.68c.213.1.481.186.563.412a.873.873,0,0,1-.055.508,2.748,2.748,0,0,0-.082.969.344.344,0,0,0,.405.385c1.306.062,1.938-.405,2.749.735a.921.921,0,0,0,.275.289.783.783,0,0,0,.357.089c.9.076,1.491-.488,2.309-.591,1.141-.144,1.374.447,2.391.914C267.5,187.005,268.274,186.552,268.57,185.473Z" transform="translate(-79.882 -90.187)" fill="#f5f5f5"/>
      <path id="Path_3611" data-name="Path 3611" d="M254.114,192.418a4.617,4.617,0,0,0,.137-.935c.117-1.938,1.965-1.635,3.546-1.9,1.23-.206-2.027-3.312.447-4.315a2.206,2.206,0,0,0,1.2-.831,1.409,1.409,0,0,0-.543-1.718,3.291,3.291,0,0,0-1.883-.474c-.405-.495-.076-1.23.316-1.732s.873-1.079.687-1.7c-.22-.935-1.532-.969-2.474-.783a6.576,6.576,0,0,1-.508-1.917c-.172-.639-.687-1.312-1.34-1.23s-1,.776-1.608.914-1.319-.454-1.876-.928-1.525-.756-1.9-.137c-.234.364-.1.88-.33,1.244-.412.632-1.374.24-2-.206s-1.574-.852-2-.234a2.638,2.638,0,0,0-.234.687c-.289.825-1.182,1.237-1.876,1.773s-1.251,1.58-.687,2.233c.289.316.8.447.948.852.179.508-.344.969-.756,1.319-.687.584-.8,2.323.1,2.8.385.2.941.261,1.031.687s-.3.687-.55.955a1.8,1.8,0,0,0,.557,2.68c.213.1.481.192.563.419a.852.852,0,0,1-.055.5,2.591,2.591,0,0,0-.082.976.412.412,0,0,0,.117.3.46.46,0,0,0,.289.082c1.306.055,1.938-.405,2.749.735a1,1,0,0,0,.275.289.887.887,0,0,0,.357.089c.9.076,1.491-.488,2.309-.591,1.141-.151,1.374.44,2.384.914C253.048,193.951,253.818,193.49,254.114,192.418Z" transform="translate(-75.348 -92.35)" fill="#f5f5f5"/>
      <path id="Path_3612" data-name="Path 3612" d="M239.515,189.2a4.453,4.453,0,0,0,.144-.934c.117-1.938,1.965-1.629,3.539-1.89,1.23-.206-2.027-3.312.454-4.315a2.185,2.185,0,0,0,1.2-.831,1.409,1.409,0,0,0-.543-1.725,3.278,3.278,0,0,0-1.876-.467c-.405-.495-.076-1.237.309-1.738s.873-1.072.728-1.69c-.227-.935-1.532-.969-2.481-.783a7.105,7.105,0,0,1-.508-1.917c-.172-.639-.687-1.312-1.374-1.237s-1,.776-1.608.921-1.319-.454-1.876-.928-1.519-.763-1.9-.144c-.227.371-.089.886-.33,1.251-.412.632-1.374.241-1.993-.206s-1.574-.852-2-.234a2.639,2.639,0,0,0-.234.653c-.289.825-1.182,1.237-1.883,1.766s-1.251,1.587-.687,2.24c.289.316.8.447.948.852.179.508-.337.969-.749,1.319-.687.577-.811,2.323.1,2.8.378.2.935.261,1.031.687s-.3.687-.55.955a1.8,1.8,0,0,0,.55,2.68c.22.1.488.192.563.419a.852.852,0,0,1-.048.5,2.569,2.569,0,0,0-.089.969.474.474,0,0,0,.117.309.509.509,0,0,0,.289.082c1.306.055,1.938-.405,2.749.728a.921.921,0,0,0,.275.289.818.818,0,0,0,.364.1c.893.069,1.484-.488,2.3-.6,1.141-.144,1.374.447,2.391.921C238.444,190.739,239.22,190.292,239.515,189.2Z" transform="translate(-70.782 -91.344)" fill="#f5f5f5"/>
      <path id="Path_3613" data-name="Path 3613" d="M240.633,206.506a3.374,3.374,0,0,0,.11-.735c.1-1.525,1.553-1.285,2.79-1.491.969-.165-1.594-2.611.357-3.4a1.7,1.7,0,0,0,.941-.687,1.1,1.1,0,0,0-.426-1.374,2.563,2.563,0,0,0-1.484-.371c-.316-.392-.055-.976.254-1.374s.687-.845.563-1.333c-.172-.735-1.2-.763-1.945-.618a5.538,5.538,0,0,1-.405-1.5c-.131-.508-.536-1.038-1.051-.976s-.79.612-1.264.721-1.044-.357-1.477-.728-1.2-.6-1.5-.11c-.179.289-.069.687-.254.983-.33.495-1.093.186-1.574-.165s-1.237-.687-1.574-.186a2.192,2.192,0,0,0-.186.515c-.227.653-.928.976-1.477,1.374s-.983,1.251-.522,1.759c.227.247.632.35.749.687s-.268.763-.591,1.038c-.543.454-.639,1.828.076,2.206.3.158.735.206.811.536s-.234.522-.433.756a1.415,1.415,0,0,0,.433,2.11c.172.082.385.144.447.323a.728.728,0,0,1-.041.4,2.062,2.062,0,0,0-.069.77.385.385,0,0,0,.089.24.433.433,0,0,0,.227.062c1.031.048,1.525-.323,2.158.577a.839.839,0,0,0,.213.227.687.687,0,0,0,.289.069c.687.062,1.168-.378,1.814-.46.9-.117,1.086.344,1.876.687C239.8,207.729,240.379,207.372,240.633,206.506Z" transform="translate(-72.03 -97.938)" fill="#f5f5f5"/>
      <path id="Path_3614" data-name="Path 3614" d="M231.161,199.41a4.527,4.527,0,0,0,.144-.935c.117-1.938,1.965-1.629,3.539-1.89,1.23-.206-2.061-3.312.454-4.315a2.185,2.185,0,0,0,1.23-.852,1.416,1.416,0,0,0-.536-1.725,3.305,3.305,0,0,0-1.883-.467c-.405-.495-.076-1.237.316-1.738s.866-1.072.721-1.69c-.227-.935-1.532-.969-2.474-.783a6.872,6.872,0,0,1-.515-1.917c-.165-.639-.687-1.312-1.374-1.237s-1,.776-1.608.921-1.319-.454-1.869-.928-1.525-.763-1.91-.144c-.227.371-.089.886-.33,1.251-.412.632-1.374.241-1.993-.206s-1.574-.852-2-.234a2.685,2.685,0,0,0-.234.646c-.289.831-1.182,1.244-1.883,1.773s-1.251,1.587-.687,2.24c.3.316.8.447.948.852.179.508-.337.969-.749,1.319-.687.577-.811,2.323.1,2.8.378.2.935.261,1.031.687s-.3.687-.55.955a1.8,1.8,0,0,0,.55,2.68c.22.1.488.186.563.419a.8.8,0,0,1-.048.5,2.749,2.749,0,0,0-.089.969.474.474,0,0,0,.117.309.508.508,0,0,0,.289.082c1.306.055,1.938-.405,2.749.728a.92.92,0,0,0,.275.289.749.749,0,0,0,.364.089c.9.076,1.484-.481,2.309-.591,1.141-.144,1.374.447,2.384.914C230.1,200.949,230.866,200.489,231.161,199.41Z" transform="translate(-68.179 -94.532)" fill="#f5f5f5"/>
      <path id="Path_3615" data-name="Path 3615" d="M254.114,175.24a4.547,4.547,0,0,0,.137-.935c.117-1.938,1.965-1.629,3.546-1.89,1.23-.206-2.027-3.312.447-4.315a2.178,2.178,0,0,0,1.2-.838,1.409,1.409,0,0,0-.543-1.718,3.291,3.291,0,0,0-1.883-.467c-.405-.495-.076-1.237.316-1.738s.873-1.072.687-1.69c-.22-.935-1.532-.969-2.474-.79a6.59,6.59,0,0,1-.508-1.91c-.172-.639-.687-1.312-1.34-1.237s-1,.776-1.608.921-1.319-.46-1.876-.928-1.525-.763-1.9-.144c-.234.371-.1.886-.33,1.251-.412.632-1.374.241-2-.206s-1.574-.852-2-.234a2.686,2.686,0,0,0-.234.646c-.289.831-1.182,1.244-1.876,1.773s-1.251,1.587-.687,2.233c.289.323.8.454.948.859.179.508-.344.962-.756,1.312-.687.584-.8,2.329.1,2.8.385.206.941.261,1.031.687s-.3.687-.55.955a1.8,1.8,0,0,0,.557,2.68c.213.1.481.186.563.412a.873.873,0,0,1-.055.508,2.569,2.569,0,0,0-.014,1,.412.412,0,0,0,.117.309.454.454,0,0,0,.289.076c1.306.062,1.938-.4,2.749.735a.921.921,0,0,0,.275.289.783.783,0,0,0,.357.089c.9.076,1.491-.488,2.309-.591,1.141-.144,1.374.447,2.384.914C253.048,176.773,253.818,176.305,254.114,175.24Z" transform="translate(-75.348 -86.977)" fill="#f5f5f5"/>
      <path id="Path_3616" data-name="Path 3616" d="M272.873,176.2a4.6,4.6,0,0,0,.144-.935c.11-1.938,1.965-1.629,3.539-1.9,1.23-.2-2.027-3.305.453-4.308a2.185,2.185,0,0,0,1.2-.838,1.409,1.409,0,0,0-.543-1.718,3.346,3.346,0,0,0-1.883-.474c-.405-.488-.076-1.23.316-1.732s.873-1.072.687-1.69c-.22-.935-1.525-.969-2.474-.79a6.589,6.589,0,0,1-.508-1.91c-.172-.646-.687-1.319-1.34-1.237s-.969.756-1.587.921-1.319-.46-1.876-.928-1.525-.763-1.9-.144c-.234.371-.1.886-.33,1.251-.412.632-1.374.241-2-.206s-1.574-.859-2-.234a2.592,2.592,0,0,0-.234.646c-.289.831-1.182,1.244-1.876,1.773s-1.251,1.587-.687,2.233c.289.323.8.454.948.859.179.508-.344.962-.756,1.312-.687.584-.8,2.329.1,2.8.385.2.941.261,1.031.687s-.3.687-.55.962a1.8,1.8,0,0,0,.557,2.68c.213.1.481.186.563.412a.872.872,0,0,1-.055.508,2.57,2.57,0,0,0-.082.969.426.426,0,0,0,.117.309.453.453,0,0,0,.289.076c1.306.062,1.938-.405,2.749.735a.921.921,0,0,0,.275.289.783.783,0,0,0,.357.089c.9.076,1.491-.488,2.309-.591,1.141-.144,1.374.447,2.384.914C271.808,177.733,272.577,177.293,272.873,176.2Z" transform="translate(-81.223 -87.278)" fill="#f5f5f5"/>
      <path id="Path_3617" data-name="Path 3617" d="M284.269,183.869a4.48,4.48,0,0,0,.137-.934c.117-1.938,1.965-1.629,3.546-1.89,1.23-.206-2.061-3.312.447-4.315a2.206,2.206,0,0,0,1.2-.831,1.422,1.422,0,0,0-.543-1.725,3.347,3.347,0,0,0-1.883-.467c-.405-.495-.076-1.23.316-1.738s.873-1.072.721-1.69c-.22-.935-1.532-.969-2.474-.783a6.637,6.637,0,0,1-.508-1.917c-.172-.639-.687-1.312-1.34-1.237s-1,.776-1.608.921c-.687.172-1.319-.454-1.876-.928s-1.525-.763-1.9-.144c-.234.371-.1.886-.33,1.251-.412.632-1.374.24-2-.206s-1.574-.852-2-.234a2.637,2.637,0,0,0-.234.653c-.289.825-1.182,1.237-1.876,1.766s-1.251,1.587-.687,2.24c.289.316.8.447.948.852s-.344.969-.756,1.319c-.687.577-.8,2.323.1,2.8.385.2.941.261,1.031.687s-.3.687-.55.955a1.8,1.8,0,0,0,.557,2.68c.213.1.481.192.563.419a.852.852,0,0,1-.055.5,2.591,2.591,0,0,0-.082.976.412.412,0,0,0,.117.3.509.509,0,0,0,.289.082c1.306.055,1.938-.405,2.749.728a.941.941,0,0,0,.275.3.887.887,0,0,0,.357.089c.9.069,1.484-.488,2.309-.6,1.141-.144,1.374.447,2.384.921C283.2,185.409,283.974,184.948,284.269,183.869Z" transform="translate(-84.793 -89.676)" fill="#f5f5f5"/>
      <path id="Path_3618" data-name="Path 3618" d="M270.19,196.558s-3.278,4.631-4.4,6.095-6.768,10.609-7.558,16.656c-.082.646-.165,1.2-.241,1.683,2.426,16.024,2.061,80.732,1.958,85.755H249.088c1.189-49.57,2.446-92.764,2.2-94.365s-3.436-8.033-8.431-10.651-9.256-11.269-9.256-11.269h1.58s2.934,5.3,7.112,8.246a15.3,15.3,0,0,0,1.876,1.113,26.62,26.62,0,0,1,1.663-9.352l.852.79c-1.154,4.728-1,7.751-.653,9.489a17.179,17.179,0,0,1,4.322,2.893c4.329-5.635,6.761-18.553,6.761-18.553l1.113.612a65.969,65.969,0,0,1-1.436,7.9,130.28,130.28,0,0,1-4.308,12.465,29.486,29.486,0,0,1,3.271,6.143,2.5,2.5,0,0,1,.419-.5c2.824-2.556,8.129-14.609,8.129-14.609,1.278-2.8-.687-10.156-.687-10.156h1.477l.687,6.432,3.724-4.061.687.563-3.951,5.078-2.061,6.438,5.3-5.875Z" transform="translate(-73.085 -95.7)" fill="#f5f5f5"/>
      <rect id="Rectangle_297" data-name="Rectangle 297" width="86.298" height="39.435" transform="translate(212.539 185.507)" fill="#f5f5f5"/>
      <rect id="Rectangle_298" data-name="Rectangle 298" width="44.32" height="39.435" transform="translate(212.539 185.507)" fill="#f0f0f0"/>
      <rect id="Rectangle_299" data-name="Rectangle 299" width="10.932" height="29.176" transform="translate(260.989 195.766)" fill="#e0e0e0"/>
      <rect id="Rectangle_300" data-name="Rectangle 300" width="9.929" height="29.176" transform="translate(260.989 195.766)" fill="#e0e0e0"/>
      <rect id="Rectangle_301" data-name="Rectangle 301" width="8.947" height="8.362" transform="translate(276.497 204.733)" fill="#e0e0e0"/>
      <rect id="Rectangle_302" data-name="Rectangle 302" width="8.947" height="8.362" transform="translate(276.497 195.766)" fill="#e0e0e0"/>
      <rect id="Rectangle_303" data-name="Rectangle 303" width="8.947" height="8.362" transform="translate(286.042 204.733)" fill="#e0e0e0"/>
      <rect id="Rectangle_304" data-name="Rectangle 304" width="8.947" height="8.362" transform="translate(286.042 195.766)" fill="#e0e0e0"/>
      <path id="Path_3619" data-name="Path 3619" d="M402.39,352.95h2.577l-2.24,8.369h-.337Z" transform="translate(-125.893 -148.217)" fill="#fff"/>
      <path id="Path_3620" data-name="Path 3620" d="M407.4,339.9l-2.24,8.362H402.5l2.24-8.362Z" transform="translate(-125.927 -144.134)" fill="#fff"/>
      <path id="Path_3621" data-name="Path 3621" d="M406.953,352.95h.88l-2.233,8.369h-.88Z" transform="translate(-126.622 -148.217)" fill="#fff"/>
      <path id="Path_3622" data-name="Path 3622" d="M411.33,339.9l-2.24,8.362h-.88l2.24-8.362Z" transform="translate(-127.714 -144.134)" fill="#fff"/>
      <path id="Path_3623" data-name="Path 3623" d="M421.11,352.95h2.659l-2.24,8.369H418.87Z" transform="translate(-131.049 -148.217)" fill="#fff"/>
      <path id="Path_3624" data-name="Path 3624" d="M427.132,339.9v.495l-2.1,7.868H422.37l2.24-8.362Z" transform="translate(-132.144 -144.134)" fill="#fff"/>
      <path id="Path_3625" data-name="Path 3625" d="M426.82,352.95h.88l-2.24,8.369h-.88Z" transform="translate(-132.835 -148.217)" fill="#fff"/>
      <path id="Path_3626" data-name="Path 3626" d="M428.915,347.49v3.147h-.845Z" transform="translate(-133.927 -146.509)" fill="#fff"/>
      <rect id="Rectangle_305" data-name="Rectangle 305" width="5.078" height="8.362" transform="translate(236.829 204.733)" fill="#e0e0e0"/>
      <rect id="Rectangle_306" data-name="Rectangle 306" width="5.078" height="8.362" transform="translate(236.829 195.766)" fill="#e0e0e0"/>
      <rect id="Rectangle_307" data-name="Rectangle 307" width="5.215" height="8.362" transform="translate(242.511 204.733)" fill="#e0e0e0"/>
      <rect id="Rectangle_308" data-name="Rectangle 308" width="5.215" height="8.362" transform="translate(242.511 195.766)" fill="#e0e0e0"/>
      <path id="Path_3627" data-name="Path 3627" d="M344.66,339.9v4.137l1.106-4.137Z" transform="translate(-107.831 -144.134)" fill="#fff"/>
      <path id="Path_3628" data-name="Path 3628" d="M344.66,352.95v3.175l.852-3.175Z" transform="translate(-107.831 -148.217)" fill="#fff"/>
      <path id="Path_3629" data-name="Path 3629" d="M347.98,339.9l-2.24,8.362h-.88l2.24-8.362Z" transform="translate(-107.894 -144.134)" fill="#fff"/>
      <path id="Path_3630" data-name="Path 3630" d="M358.956,352.95h-1.2l-2.24,8.369h2.652l.783-2.913Z" transform="translate(-111.229 -148.217)" fill="#fff"/>
      <path id="Path_3631" data-name="Path 3631" d="M360.051,346.46l-1.031,3.855h1.031Z" transform="translate(-112.324 -146.187)" fill="#fff"/>
      <rect id="Rectangle_309" data-name="Rectangle 309" width="5.078" height="8.362" transform="translate(219.059 204.733)" fill="#e0e0e0"/>
      <rect id="Rectangle_310" data-name="Rectangle 310" width="5.078" height="8.362" transform="translate(219.059 195.766)" fill="#e0e0e0"/>
      <rect id="Rectangle_311" data-name="Rectangle 311" width="5.215" height="8.362" transform="translate(224.742 204.733)" fill="#e0e0e0"/>
      <rect id="Rectangle_312" data-name="Rectangle 312" width="5.215" height="8.362" transform="translate(224.742 195.766)" fill="#e0e0e0"/>
      <path id="Path_3632" data-name="Path 3632" d="M318.8,339.9v4.137l1.106-4.137Z" transform="translate(-99.741 -144.134)" fill="#fff"/>
      <path id="Path_3633" data-name="Path 3633" d="M318.8,352.95v3.175l.852-3.175Z" transform="translate(-99.741 -148.217)" fill="#fff"/>
      <path id="Path_3634" data-name="Path 3634" d="M322.12,339.9l-2.24,8.362H319l2.24-8.362Z" transform="translate(-99.803 -144.134)" fill="#fff"/>
      <path id="Path_3635" data-name="Path 3635" d="M333.1,352.95h-1.2l-2.24,8.369h2.652l.783-2.913Z" transform="translate(-103.138 -148.217)" fill="#fff"/>
      <path id="Path_3636" data-name="Path 3636" d="M334.191,346.46l-1.031,3.855h1.031Z" transform="translate(-104.233 -146.187)" fill="#fff"/>
      <rect id="Rectangle_313" data-name="Rectangle 313" width="13.008" height="1.642" transform="translate(217.431 192.983)" fill="#e6e6e6"/>
      <rect id="Rectangle_314" data-name="Rectangle 314" width="1.642" height="1.642" transform="translate(228.796 192.983)" fill="#e0e0e0"/>
      <rect id="Rectangle_315" data-name="Rectangle 315" width="13.008" height="1.642" transform="translate(235.2 192.983)" fill="#e6e6e6"/>
      <rect id="Rectangle_316" data-name="Rectangle 316" width="1.642" height="1.642" transform="translate(246.566 192.983)" fill="#e0e0e0"/>
      <rect id="Rectangle_317" data-name="Rectangle 317" width="21.892" height="1.642" transform="translate(297.07 194.625) rotate(180)" fill="#e6e6e6"/>
      <rect id="Rectangle_318" data-name="Rectangle 318" width="1.642" height="1.642" transform="translate(276.82 194.625) rotate(180)" fill="#e0e0e0"/>
      <path id="Path_3637" data-name="Path 3637" d="M364.709,290.11H328.882L300.4,316.139h98.165l-.99-.756Z" transform="translate(-93.984 -128.557)" fill="#e0e0e0"/>
      <path id="Path_3638" data-name="Path 3638" d="M341.85,290.11l21.865,25.273h46.828L377.677,290.11Z" transform="translate(-106.952 -128.557)" fill="#e6e6e6"/>
      <rect id="Rectangle_319" data-name="Rectangle 319" width="99.216" height="2.556" transform="translate(205.365 185.857)" fill="#e0e0e0"/>
      <rect id="Rectangle_320" data-name="Rectangle 320" width="47.55" height="2.556" transform="translate(257.031 185.857)" fill="#e6e6e6"/>
      <path id="Path_3639" data-name="Path 3639" d="M397.29,381.06h-100.1l-1.278.893H398.568Z" transform="translate(-92.579 -157.012)" fill="#e0e0e0"/>
      <rect id="Rectangle_321" data-name="Rectangle 321" width="86.298" height="39.435" transform="translate(130.082 185.507)" fill="#f5f5f5"/>
      <rect id="Rectangle_322" data-name="Rectangle 322" width="44.32" height="39.435" transform="translate(130.082 185.507)" fill="#f0f0f0"/>
      <rect id="Rectangle_323" data-name="Rectangle 323" width="10.932" height="29.176" transform="translate(178.532 195.766)" fill="#e0e0e0"/>
      <rect id="Rectangle_324" data-name="Rectangle 324" width="9.929" height="29.176" transform="translate(178.532 195.766)" fill="#e0e0e0"/>
      <rect id="Rectangle_325" data-name="Rectangle 325" width="8.947" height="8.362" transform="translate(194.041 204.733)" fill="#e0e0e0"/>
      <rect id="Rectangle_326" data-name="Rectangle 326" width="8.947" height="8.362" transform="translate(194.041 195.766)" fill="#e0e0e0"/>
      <rect id="Rectangle_327" data-name="Rectangle 327" width="8.947" height="8.362" transform="translate(203.585 204.733)" fill="#e0e0e0"/>
      <rect id="Rectangle_328" data-name="Rectangle 328" width="8.947" height="8.362" transform="translate(203.585 195.766)" fill="#e0e0e0"/>
      <path id="Path_3640" data-name="Path 3640" d="M282.39,352.95h2.577l-2.24,8.369h-.337Z" transform="translate(-88.349 -148.217)" fill="#fff"/>
      <path id="Path_3641" data-name="Path 3641" d="M287.4,339.9l-2.24,8.362H282.5l2.24-8.362Z" transform="translate(-88.384 -144.134)" fill="#fff"/>
      <path id="Path_3642" data-name="Path 3642" d="M286.953,352.95h.88l-2.233,8.369h-.88Z" transform="translate(-89.078 -148.217)" fill="#fff"/>
      <path id="Path_3643" data-name="Path 3643" d="M291.33,339.9l-2.24,8.362h-.88l2.24-8.362Z" transform="translate(-90.17 -144.134)" fill="#fff"/>
      <path id="Path_3644" data-name="Path 3644" d="M301.11,352.95h2.659l-2.24,8.369H298.87Z" transform="translate(-93.505 -148.217)" fill="#fff"/>
      <path id="Path_3645" data-name="Path 3645" d="M307.132,339.9v.495l-2.1,7.868H302.37l2.24-8.362Z" transform="translate(-94.6 -144.134)" fill="#fff"/>
      <path id="Path_3646" data-name="Path 3646" d="M306.82,352.95h.88l-2.24,8.369h-.88Z" transform="translate(-95.292 -148.217)" fill="#fff"/>
      <path id="Path_3647" data-name="Path 3647" d="M308.915,347.49v3.147h-.845Z" transform="translate(-96.384 -146.509)" fill="#fff"/>
      <rect id="Rectangle_329" data-name="Rectangle 329" width="5.078" height="8.362" transform="translate(154.372 204.733)" fill="#e0e0e0"/>
      <rect id="Rectangle_330" data-name="Rectangle 330" width="5.078" height="8.362" transform="translate(154.372 195.766)" fill="#e0e0e0"/>
      <rect id="Rectangle_331" data-name="Rectangle 331" width="5.215" height="8.362" transform="translate(160.055 204.733)" fill="#e0e0e0"/>
      <rect id="Rectangle_332" data-name="Rectangle 332" width="5.215" height="8.362" transform="translate(160.055 195.766)" fill="#e0e0e0"/>
      <path id="Path_3648" data-name="Path 3648" d="M224.66,339.9v4.137l1.106-4.137Z" transform="translate(-70.288 -144.134)" fill="#fff"/>
      <path id="Path_3649" data-name="Path 3649" d="M224.66,352.95v3.175l.852-3.175Z" transform="translate(-70.288 -148.217)" fill="#fff"/>
      <path id="Path_3650" data-name="Path 3650" d="M227.98,339.9l-2.24,8.362h-.88l2.24-8.362Z" transform="translate(-70.35 -144.134)" fill="#fff"/>
      <path id="Path_3651" data-name="Path 3651" d="M238.956,352.95h-1.2l-2.24,8.369h2.652l.783-2.913Z" transform="translate(-73.685 -148.217)" fill="#fff"/>
      <path id="Path_3652" data-name="Path 3652" d="M240.051,346.46l-1.031,3.855h1.031Z" transform="translate(-74.78 -146.187)" fill="#fff"/>
      <rect id="Rectangle_333" data-name="Rectangle 333" width="5.078" height="8.362" transform="translate(136.603 204.733)" fill="#e0e0e0"/>
      <rect id="Rectangle_334" data-name="Rectangle 334" width="5.078" height="8.362" transform="translate(136.603 195.766)" fill="#e0e0e0"/>
      <rect id="Rectangle_335" data-name="Rectangle 335" width="5.215" height="8.362" transform="translate(142.286 204.733)" fill="#e0e0e0"/>
      <rect id="Rectangle_336" data-name="Rectangle 336" width="5.215" height="8.362" transform="translate(142.286 195.766)" fill="#e0e0e0"/>
      <path id="Path_3653" data-name="Path 3653" d="M198.8,339.9v4.137l1.106-4.137Z" transform="translate(-62.197 -144.134)" fill="#fff"/>
      <path id="Path_3654" data-name="Path 3654" d="M198.8,352.95v3.175l.852-3.175Z" transform="translate(-62.197 -148.217)" fill="#fff"/>
      <path id="Path_3655" data-name="Path 3655" d="M202.12,339.9l-2.24,8.362H199l2.24-8.362Z" transform="translate(-62.26 -144.134)" fill="#fff"/>
      <path id="Path_3656" data-name="Path 3656" d="M213.1,352.95h-1.2l-2.24,8.369h2.659l.776-2.913Z" transform="translate(-65.595 -148.217)" fill="#fff"/>
      <path id="Path_3657" data-name="Path 3657" d="M214.191,346.46l-1.031,3.855h1.031Z" transform="translate(-66.69 -146.187)" fill="#fff"/>
      <rect id="Rectangle_337" data-name="Rectangle 337" width="13.008" height="1.642" transform="translate(134.974 192.983)" fill="#e6e6e6"/>
      <rect id="Rectangle_338" data-name="Rectangle 338" width="1.642" height="1.642" transform="translate(146.34 192.983)" fill="#e0e0e0"/>
      <rect id="Rectangle_339" data-name="Rectangle 339" width="13.008" height="1.642" transform="translate(152.744 192.983)" fill="#e6e6e6"/>
      <rect id="Rectangle_340" data-name="Rectangle 340" width="1.642" height="1.642" transform="translate(164.109 192.983)" fill="#e0e0e0"/>
      <rect id="Rectangle_341" data-name="Rectangle 341" width="21.892" height="1.642" transform="translate(214.614 194.625) rotate(180)" fill="#e6e6e6"/>
      <rect id="Rectangle_342" data-name="Rectangle 342" width="1.642" height="1.642" transform="translate(194.364 194.625) rotate(180)" fill="#e0e0e0"/>
      <path id="Path_3658" data-name="Path 3658" d="M244.709,290.11H208.882L180.4,316.139h98.164l-.989-.756Z" transform="translate(-56.44 -128.557)" fill="#e0e0e0"/>
      <path id="Path_3659" data-name="Path 3659" d="M221.85,290.11l21.865,25.273h46.828L257.677,290.11Z" transform="translate(-69.409 -128.557)" fill="#e6e6e6"/>
      <rect id="Rectangle_343" data-name="Rectangle 343" width="99.216" height="2.556" transform="translate(122.908 185.857)" fill="#e0e0e0"/>
      <rect id="Rectangle_344" data-name="Rectangle 344" width="47.55" height="2.556" transform="translate(174.574 185.857)" fill="#e6e6e6"/>
      <path id="Path_3660" data-name="Path 3660" d="M277.29,381.06h-100.1l-1.278.893H278.568Z" transform="translate(-55.036 -157.012)" fill="#e0e0e0"/>
      <rect id="Rectangle_345" data-name="Rectangle 345" width="86.298" height="39.435" transform="translate(47.626 185.507)" fill="#f5f5f5"/>
      <rect id="Rectangle_346" data-name="Rectangle 346" width="44.32" height="39.435" transform="translate(47.626 185.507)" fill="#f0f0f0"/>
      <rect id="Rectangle_347" data-name="Rectangle 347" width="10.932" height="29.176" transform="translate(96.076 195.766)" fill="#e0e0e0"/>
      <rect id="Rectangle_348" data-name="Rectangle 348" width="9.929" height="29.176" transform="translate(96.076 195.766)" fill="#e0e0e0"/>
      <rect id="Rectangle_349" data-name="Rectangle 349" width="8.947" height="8.362" transform="translate(111.584 204.733)" fill="#e0e0e0"/>
      <rect id="Rectangle_350" data-name="Rectangle 350" width="8.947" height="8.362" transform="translate(111.584 195.766)" fill="#e0e0e0"/>
      <rect id="Rectangle_351" data-name="Rectangle 351" width="8.947" height="8.362" transform="translate(121.129 204.733)" fill="#e0e0e0"/>
      <rect id="Rectangle_352" data-name="Rectangle 352" width="8.947" height="8.362" transform="translate(121.129 195.766)" fill="#e0e0e0"/>
      <path id="Path_3661" data-name="Path 3661" d="M162.39,352.95h2.577l-2.24,8.369h-.337Z" transform="translate(-50.806 -148.217)" fill="#fff"/>
      <path id="Path_3662" data-name="Path 3662" d="M167.4,339.9l-2.24,8.362H162.5l2.24-8.362Z" transform="translate(-50.84 -144.134)" fill="#fff"/>
      <path id="Path_3663" data-name="Path 3663" d="M166.953,352.95h.88l-2.233,8.369h-.88Z" transform="translate(-51.535 -148.217)" fill="#fff"/>
      <path id="Path_3664" data-name="Path 3664" d="M171.33,339.9l-2.24,8.362h-.88l2.24-8.362Z" transform="translate(-52.627 -144.134)" fill="#fff"/>
      <path id="Path_3665" data-name="Path 3665" d="M181.11,352.95h2.659l-2.24,8.369H178.87Z" transform="translate(-55.962 -148.217)" fill="#fff"/>
      <path id="Path_3666" data-name="Path 3666" d="M187.132,339.9v.495l-2.1,7.868H182.37l2.24-8.362Z" transform="translate(-57.057 -144.134)" fill="#fff"/>
      <path id="Path_3667" data-name="Path 3667" d="M186.82,352.95h.88l-2.24,8.369h-.88Z" transform="translate(-57.748 -148.217)" fill="#fff"/>
      <path id="Path_3668" data-name="Path 3668" d="M188.915,347.49v3.147h-.845Z" transform="translate(-58.84 -146.509)" fill="#fff"/>
      <rect id="Rectangle_353" data-name="Rectangle 353" width="5.078" height="8.362" transform="translate(71.916 204.733)" fill="#e0e0e0"/>
      <rect id="Rectangle_354" data-name="Rectangle 354" width="5.078" height="8.362" transform="translate(71.916 195.766)" fill="#e0e0e0"/>
      <rect id="Rectangle_355" data-name="Rectangle 355" width="5.215" height="8.362" transform="translate(77.598 204.733)" fill="#e0e0e0"/>
      <rect id="Rectangle_356" data-name="Rectangle 356" width="5.215" height="8.362" transform="translate(77.598 195.766)" fill="#e0e0e0"/>
      <path id="Path_3669" data-name="Path 3669" d="M104.66,339.9v4.137l1.106-4.137Z" transform="translate(-32.744 -144.134)" fill="#fff"/>
      <path id="Path_3670" data-name="Path 3670" d="M104.66,352.95v3.175l.852-3.175Z" transform="translate(-32.744 -148.217)" fill="#fff"/>
      <path id="Path_3671" data-name="Path 3671" d="M107.98,339.9l-2.24,8.362h-.88l2.24-8.362Z" transform="translate(-32.807 -144.134)" fill="#fff"/>
      <path id="Path_3672" data-name="Path 3672" d="M118.956,352.95h-1.2l-2.24,8.369h2.652l.783-2.913Z" transform="translate(-36.142 -148.217)" fill="#fff"/>
      <path id="Path_3673" data-name="Path 3673" d="M120.051,346.46l-1.031,3.855h1.031Z" transform="translate(-37.237 -146.187)" fill="#fff"/>
      <rect id="Rectangle_357" data-name="Rectangle 357" width="5.078" height="8.362" transform="translate(54.146 204.733)" fill="#e0e0e0"/>
      <rect id="Rectangle_358" data-name="Rectangle 358" width="5.078" height="8.362" transform="translate(54.146 195.766)" fill="#e0e0e0"/>
      <rect id="Rectangle_359" data-name="Rectangle 359" width="5.215" height="8.362" transform="translate(59.829 204.733)" fill="#e0e0e0"/>
      <rect id="Rectangle_360" data-name="Rectangle 360" width="5.215" height="8.362" transform="translate(59.829 195.766)" fill="#e0e0e0"/>
      <path id="Path_3674" data-name="Path 3674" d="M78.8,339.9v4.137l1.106-4.137Z" transform="translate(-24.654 -144.134)" fill="#fff"/>
      <path id="Path_3675" data-name="Path 3675" d="M78.8,352.95v3.175l.852-3.175Z" transform="translate(-24.654 -148.217)" fill="#fff"/>
      <path id="Path_3676" data-name="Path 3676" d="M82.12,339.9l-2.24,8.362H79l2.24-8.362Z" transform="translate(-24.716 -144.134)" fill="#fff"/>
      <path id="Path_3677" data-name="Path 3677" d="M93.1,352.95H91.9l-2.24,8.369h2.659l.776-2.913Z" transform="translate(-28.051 -148.217)" fill="#fff"/>
      <path id="Path_3678" data-name="Path 3678" d="M94.191,346.46l-1.031,3.855h1.031Z" transform="translate(-29.146 -146.187)" fill="#fff"/>
      <rect id="Rectangle_361" data-name="Rectangle 361" width="13.008" height="1.642" transform="translate(52.518 192.983)" fill="#e6e6e6"/>
      <rect id="Rectangle_362" data-name="Rectangle 362" width="1.642" height="1.642" transform="translate(63.883 192.983)" fill="#e0e0e0"/>
      <rect id="Rectangle_363" data-name="Rectangle 363" width="13.008" height="1.642" transform="translate(70.287 192.983)" fill="#e6e6e6"/>
      <rect id="Rectangle_364" data-name="Rectangle 364" width="1.642" height="1.642" transform="translate(81.653 192.983)" fill="#e0e0e0"/>
      <rect id="Rectangle_365" data-name="Rectangle 365" width="21.892" height="1.642" transform="translate(132.157 194.625) rotate(180)" fill="#e6e6e6"/>
      <rect id="Rectangle_366" data-name="Rectangle 366" width="1.642" height="1.642" transform="translate(111.907 194.625) rotate(180)" fill="#e0e0e0"/>
      <path id="Path_3679" data-name="Path 3679" d="M124.709,290.11H88.882L60.4,316.139h98.164l-.989-.756Z" transform="translate(-18.897 -128.557)" fill="#e0e0e0"/>
      <path id="Path_3680" data-name="Path 3680" d="M101.85,290.11l21.865,25.273h46.828L137.677,290.11Z" transform="translate(-31.865 -128.557)" fill="#e6e6e6"/>
      <rect id="Rectangle_367" data-name="Rectangle 367" width="99.216" height="2.556" transform="translate(40.452 185.857)" fill="#e0e0e0"/>
      <rect id="Rectangle_368" data-name="Rectangle 368" width="47.55" height="2.556" transform="translate(92.118 185.857)" fill="#e6e6e6"/>
      <path id="Path_3681" data-name="Path 3681" d="M157.29,381.06H57.188l-1.278.893H158.568Z" transform="translate(-17.492 -157.012)" fill="#e0e0e0"/>
    </g>
    <g id="freepik--Shadow--inject-13" transform="translate(38.555 295.443)">
      <ellipse id="freepik--path--inject-13" cx="133.229" cy="7.778" rx="133.229" ry="7.778" fill="#f5f5f5"/>
    </g>
    <g id="freepik--House--inject-13" transform="translate(55.033 194.448)">
      <path id="Path_3682" data-name="Path 3682" d="M95.5,284.861l25.06-26.091h52.93L201.1,284.861Z" transform="translate(-84.911 -258.2)" fill="#74bf24"/>
      <path id="Path_3683" data-name="Path 3683" d="M120.56,257.94l31.12,27.829L95.5,284.031Z" transform="translate(-84.911 -257.94)" opacity="0.1"/>
      <rect id="Rectangle_369" data-name="Rectangle 369" width="93.836" height="33.883" transform="translate(10.018 29.794)" fill="#74bf24"/>
      <rect id="Rectangle_370" data-name="Rectangle 370" width="93.836" height="33.883" transform="translate(10.018 29.794)" fill="#fff" opacity="0.8" style="mix-blend-mode: normal;isolation: isolate"/>
      <rect id="Rectangle_371" data-name="Rectangle 371" width="55.287" height="33.883" transform="translate(10.018 29.794)" opacity="0.05"/>
      <rect id="Rectangle_372" data-name="Rectangle 372" width="54.03" height="19.961" transform="translate(46.588 34.618)" fill="#74bf24"/>
      <path id="Path_3684" data-name="Path 3684" d="M147.89,308.32v19.961h54.023V308.32ZM199.721,326.4H149.807V310.539h49.914Z" transform="translate(-101.302 -273.702)" fill="#fff" opacity="0.1" style="mix-blend-mode: normal;isolation: isolate"/>
      <rect id="Rectangle_373" data-name="Rectangle 373" width="20.401" height="19.961" transform="translate(46.588 34.618)" opacity="0.1"/>
      <rect id="Rectangle_374" data-name="Rectangle 374" width="45.763" height="15.516" transform="translate(50.312 36.837)" fill="#74bf24"/>
      <rect id="Rectangle_375" data-name="Rectangle 375" width="45.77" height="15.516" transform="translate(50.312 36.844)" fill="#fff" opacity="0.5" style="mix-blend-mode: normal;isolation: isolate"/>
      <rect id="Rectangle_376" data-name="Rectangle 376" width="15.227" height="15.516" transform="translate(50.312 36.837)" opacity="0.05"/>
      <path id="Path_3685" data-name="Path 3685" d="M167.136,311.56l-4.157,15.516H157.31l4.157-15.516Z" transform="translate(-104.249 -274.716)" fill="#fff" opacity="0.3"/>
      <path id="Path_3686" data-name="Path 3686" d="M217.1,311.56v13.578l-.522,1.938H210.92l4.15-15.516Z" transform="translate(-121.022 -274.716)" fill="#fff" opacity="0.3"/>
      <path id="Path_3687" data-name="Path 3687" d="M173.876,311.56l-4.15,15.516H168.09l4.15-15.516Z" transform="translate(-107.622 -274.716)" fill="#fff" opacity="0.3"/>
      <path id="Path_3688" data-name="Path 3688" d="M212.365,311.56l-4.157,15.516h-.818l4.15-15.516Z" transform="translate(-119.917 -274.716)" fill="#fff" opacity="0.3"/>
      <rect id="Rectangle_377" data-name="Rectangle 377" width="27.657" height="15.612" transform="translate(9.963 36.934)"/>
      <rect id="Rectangle_378" data-name="Rectangle 378" width="27.657" height="15.612" transform="translate(9.963 36.934)" fill="#74bf24"/>
      <rect id="Rectangle_379" data-name="Rectangle 379" width="27.657" height="15.612" transform="translate(9.963 36.934)" fill="#fff" opacity="0.5" style="mix-blend-mode: normal;isolation: isolate"/>
      <path id="Path_3689" data-name="Path 3689" d="M94.59,311.69v13.77l3.683-13.77Z" transform="translate(-84.627 -274.756)" fill="#fff" opacity="0.3"/>
      <path id="Path_3690" data-name="Path 3690" d="M102.827,311.69,98.649,327.3H96.78l4.178-15.612Z" transform="translate(-85.312 -274.756)" fill="#fff" opacity="0.3"/>
      <path id="Path_3691" data-name="Path 3691" d="M197.628,334.13H162.79v1.12h1.587v10.506h.859v-.618h11.372v.618h.852v-.618h11.372v.618h.859v-.618h11.571v.618h.838v-.618h11.372v.618h.859v-.618H225.7v.618h.852V335.25h1.594v-1.12Zm-21.02,10.712H165.236v-1.12h11.372Zm0-1.415H165.236v-1.141h11.372Zm0-1.416H165.236v-1.1h11.372Zm0-1.415H165.236v-1.127h11.372Zm0-1.415H165.236v-1.127h11.372Zm0-1.416H165.236v-1.127h11.372Zm0-1.415H165.236v-1.1h11.372Zm12.224,8.493H177.46v-1.12h11.372Zm0-1.415H177.46v-1.141h11.372Zm0-1.416H177.46v-1.1h11.372Zm0-1.415H177.46v-1.127h11.372Zm0-1.415H177.46v-1.127h11.372Zm0-1.416H177.46v-1.127h11.372Zm0-1.415H177.46v-1.1h11.372Zm12.43,8.493H189.691v-1.12h11.571Zm0-1.415H189.691v-1.141h11.571Zm0-1.416H189.691v-1.1h11.571Zm0-1.415H189.691v-1.127h11.571Zm0-1.415H189.691v-1.127h11.571Zm0-1.416H189.691v-1.127h11.571Zm0-1.415H189.691v-1.1h11.571Zm12.224,8.493H202.1v-1.12h11.372Zm0-1.415H202.1v-1.141h11.372Zm0-1.416H202.1v-1.1h11.372Zm0-1.415H202.1v-1.127h11.372Zm0-1.415H202.1v-1.127h11.372Zm0-1.416H202.1v-1.127h11.372Zm0-1.415H202.1v-1.1h11.372Zm12.231,8.493H214.346v-1.12h11.372Zm0-1.415H214.346v-1.141h11.372Zm0-1.416H214.346v-1.1h11.372Zm0-1.415H214.346v-1.127h11.372Zm0-1.415H214.346v-1.127h11.372Zm0-1.416H214.346v-1.127h11.372Zm0-1.415H214.346v-1.1h11.372Z" transform="translate(-105.964 -281.777)" fill="#74bf24"/>
      <path id="Path_3692" data-name="Path 3692" d="M197.628,334.13H162.79v1.12h1.587v10.506h.859v-.618h11.372v.618h.852v-.618h11.372v.618h.859v-.618h11.571v.618h.838v-.618h11.372v.618h.859v-.618H225.7v.618h.852V335.25h1.594v-1.12Zm-21.02,10.712H165.236v-1.12h11.372Zm0-1.415H165.236v-1.141h11.372Zm0-1.416H165.236v-1.1h11.372Zm0-1.415H165.236v-1.127h11.372Zm0-1.415H165.236v-1.127h11.372Zm0-1.416H165.236v-1.127h11.372Zm0-1.415H165.236v-1.1h11.372Zm12.224,8.493H177.46v-1.12h11.372Zm0-1.415H177.46v-1.141h11.372Zm0-1.416H177.46v-1.1h11.372Zm0-1.415H177.46v-1.127h11.372Zm0-1.415H177.46v-1.127h11.372Zm0-1.416H177.46v-1.127h11.372Zm0-1.415H177.46v-1.1h11.372Zm12.43,8.493H189.691v-1.12h11.571Zm0-1.415H189.691v-1.141h11.571Zm0-1.416H189.691v-1.1h11.571Zm0-1.415H189.691v-1.127h11.571Zm0-1.415H189.691v-1.127h11.571Zm0-1.416H189.691v-1.127h11.571Zm0-1.415H189.691v-1.1h11.571Zm12.224,8.493H202.1v-1.12h11.372Zm0-1.415H202.1v-1.141h11.372Zm0-1.416H202.1v-1.1h11.372Zm0-1.415H202.1v-1.127h11.372Zm0-1.415H202.1v-1.127h11.372Zm0-1.416H202.1v-1.127h11.372Zm0-1.415H202.1v-1.1h11.372Zm12.231,8.493H214.346v-1.12h11.372Zm0-1.415H214.346v-1.141h11.372Zm0-1.416H214.346v-1.1h11.372Zm0-1.415H214.346v-1.127h11.372Zm0-1.415H214.346v-1.127h11.372Zm0-1.416H214.346v-1.127h11.372Zm0-1.415H214.346v-1.1h11.372Z" transform="translate(-105.964 -281.777)" fill="#fff" opacity="0.3" style="mix-blend-mode: normal;isolation: isolate"/>
      <rect id="Rectangle_380" data-name="Rectangle 380" width="36.411" height="39.607" transform="translate(83.027 65.738)" fill="#74bf24"/>
      <rect id="Rectangle_381" data-name="Rectangle 381" width="36.411" height="39.607" transform="translate(83.027 65.738)" fill="#fff" opacity="0.3" style="mix-blend-mode: normal;isolation: isolate"/>
      <rect id="Rectangle_382" data-name="Rectangle 382" width="7.641" height="41.73" transform="translate(5.38 63.677)" fill="#74bf24"/>
      <rect id="Rectangle_383" data-name="Rectangle 383" width="7.641" height="41.73" transform="translate(5.38 63.677)" fill="#fff" opacity="0.3" style="mix-blend-mode: normal;isolation: isolate"/>
      <rect id="Rectangle_384" data-name="Rectangle 384" width="4.858" height="37.861" transform="translate(8.163 67.546)" fill="#fff" opacity="0.2" style="mix-blend-mode: normal;isolation: isolate"/>
      <rect id="Rectangle_385" data-name="Rectangle 385" width="93.897" height="40.404" transform="translate(10.018 65.003)" fill="#74bf24"/>
      <rect id="Rectangle_386" data-name="Rectangle 386" width="93.897" height="40.404" transform="translate(10.018 65.003)" fill="#fff" opacity="0.8" style="mix-blend-mode: normal;isolation: isolate"/>
      <rect id="Rectangle_387" data-name="Rectangle 387" width="48.223" height="40.404" transform="translate(10.018 65.003)" opacity="0.05"/>
      <rect id="Rectangle_388" data-name="Rectangle 388" width="18.099" height="15.612" transform="translate(32.344 73.661)"/>
      <rect id="Rectangle_389" data-name="Rectangle 389" width="16.938" height="15.612" transform="translate(14.306 73.661)"/>
      <rect id="Rectangle_390" data-name="Rectangle 390" width="16.938" height="15.612" transform="translate(14.306 73.661)" fill="#74bf24"/>
      <rect id="Rectangle_391" data-name="Rectangle 391" width="18.099" height="15.612" transform="translate(32.344 73.661)" fill="#74bf24"/>
      <rect id="Rectangle_392" data-name="Rectangle 392" width="18.099" height="15.612" transform="translate(32.344 73.661)" fill="#fff" opacity="0.5" style="mix-blend-mode: normal;isolation: isolate"/>
      <rect id="Rectangle_393" data-name="Rectangle 393" width="16.938" height="15.612" transform="translate(14.306 73.661)" fill="#fff" opacity="0.5" style="mix-blend-mode: normal;isolation: isolate"/>
      <path id="Path_3693" data-name="Path 3693" d="M112.8,365.14l-4.185,15.612H102.11l4.178-15.612Z" transform="translate(-86.979 -291.479)" fill="#fff" opacity="0.3"/>
      <path id="Path_3694" data-name="Path 3694" d="M120.537,365.14l-4.178,15.612H114.49l4.178-15.612Z" transform="translate(-90.852 -291.479)" fill="#fff" opacity="0.3"/>
      <path id="Path_3695" data-name="Path 3695" d="M151.789,367.41v14.052H148.03Z" transform="translate(-101.346 -292.189)" fill="#fff" opacity="0.3"/>
      <path id="Path_3696" data-name="Path 3696" d="M222.844,379.513V363.9h3.319V361.18h-24.5v21.1h24.5v-2.762Z" transform="translate(-118.125 -290.24)" fill="#74bf24"/>
      <rect id="Rectangle_394" data-name="Rectangle 394" width="16.938" height="15.612" transform="translate(88.496 73.661)"/>
      <rect id="Rectangle_395" data-name="Rectangle 395" width="16.938" height="15.612" transform="translate(88.496 73.661)" fill="#74bf24"/>
      <rect id="Rectangle_396" data-name="Rectangle 396" width="16.938" height="15.612" transform="translate(88.496 73.661)" fill="#fff" opacity="0.5" style="mix-blend-mode: normal;isolation: isolate"/>
      <path id="Path_3697" data-name="Path 3697" d="M220.765,365.14l-4.178,15.612H210.08l4.178-15.612Z" transform="translate(-120.759 -291.479)" fill="#fff" opacity="0.3"/>
      <path id="Path_3698" data-name="Path 3698" d="M228.5,365.14l-4.178,15.612H222.45l4.178-15.612Z" transform="translate(-124.629 -291.479)" fill="#fff" opacity="0.3"/>
      <rect id="Rectangle_397" data-name="Rectangle 397" width="2.316" height="21.095" transform="translate(83.528 70.94)" opacity="0.1"/>
      <rect id="Rectangle_398" data-name="Rectangle 398" width="11.894" height="31.746" transform="translate(62.736 73.661)" fill="#74bf24"/>
      <rect id="Rectangle_399" data-name="Rectangle 399" width="10.802" height="31.746" transform="translate(62.736 73.661)" fill="#fff" opacity="0.1" style="mix-blend-mode: normal;isolation: isolate"/>
      <rect id="Rectangle_400" data-name="Rectangle 400" width="2.364" height="9.998" transform="translate(69.903 75.798)" fill="#fff" opacity="0.2" style="mix-blend-mode: normal;isolation: isolate"/>
      <rect id="Rectangle_401" data-name="Rectangle 401" width="6.116" height="38.225" transform="translate(115.92 67.181)" fill="#74bf24"/>
      <rect id="Rectangle_402" data-name="Rectangle 402" width="6.116" height="38.225" transform="translate(115.92 67.181)" fill="#fff" opacity="0.3" style="mix-blend-mode: normal;isolation: isolate"/>
      <rect id="Rectangle_403" data-name="Rectangle 403" width="3.058" height="38.225" transform="translate(118.971 67.181)" fill="#fff" opacity="0.2" style="mix-blend-mode: normal;isolation: isolate"/>
      <rect id="Rectangle_404" data-name="Rectangle 404" width="113.405" height="3.972" transform="translate(8.624 63.677)" fill="#74bf24"/>
      <rect id="Rectangle_405" data-name="Rectangle 405" width="113.405" height="3.972" transform="translate(8.624 63.677)" fill="#fff" opacity="0.3" style="mix-blend-mode: normal;isolation: isolate"/>
      <rect id="Rectangle_406" data-name="Rectangle 406" width="42.664" height="3.972" transform="translate(79.371 63.677)" fill="#fff" opacity="0.2" style="mix-blend-mode: normal;isolation: isolate"/>
      <rect id="Rectangle_407" data-name="Rectangle 407" width="115.178" height="3.972" transform="translate(5.373 25.843)" fill="#74bf24"/>
      <rect id="Rectangle_408" data-name="Rectangle 408" width="115.178" height="3.972" transform="translate(5.373 25.843)" fill="#fff" opacity="0.3" style="mix-blend-mode: normal;isolation: isolate"/>
      <rect id="Rectangle_409" data-name="Rectangle 409" width="44.43" height="3.972" transform="translate(76.121 25.843)" fill="#fff" opacity="0.2" style="mix-blend-mode: normal;isolation: isolate"/>
      <path id="Path_3699" data-name="Path 3699" d="M205.424,409.92H81.478l-1.388.976H206.812Z" transform="translate(-80.09 -305.489)" fill="#74bf24"/>
    </g>
    <g id="freepik--Sign--inject-13" transform="translate(73.984 98.908)">
      <rect id="Rectangle_410" data-name="Rectangle 410" width="85.556" height="52.717" rx="5.8" fill="#74bf24"/>
      <rect id="Rectangle_411" data-name="Rectangle 411" width="85.556" height="52.717" rx="5.8" fill="#fff" opacity="0.6" style="mix-blend-mode: normal;isolation: isolate"/>
      <path id="Path_3700" data-name="Path 3700" d="M169.876,239.359V192.18H168.5v47.179a1.628,1.628,0,1,0,1.374,0Z" transform="translate(-126.407 -141.827)" fill="#74bf24"/>
      <path id="Path_3701" data-name="Path 3701" d="M169.876,239.359V192.18H168.5v47.179a1.628,1.628,0,1,0,1.374,0Z" transform="translate(-126.407 -141.827)" fill="#fff" opacity="0.6" style="mix-blend-mode: normal;isolation: isolate"/>
    </g>
    <g id="freepik--Texts--inject-13" transform="translate(80.615 106.982)">
      <path id="Path_3702" data-name="Path 3702" d="M207.375,151.479h-29.9a.811.811,0,0,1-.811-.811h0a.811.811,0,0,1,.811-.818h29.9a.818.818,0,0,1,.818.818h0a.811.811,0,0,1-.818.811Z" transform="translate(-135.885 -136.657)" fill="#74bf24"/>
      <path id="Path_3703" data-name="Path 3703" d="M207.375,161.779h-29.9a.811.811,0,0,1-.811-.818h0a.811.811,0,0,1,.811-.811h29.9a.811.811,0,0,1,.818.811h0A.818.818,0,0,1,207.375,161.779Z" transform="translate(-135.885 -139.879)" fill="#74bf24"/>
      <path id="Path_3704" data-name="Path 3704" d="M207.375,172.075h-29.9a.811.811,0,0,1-.811-.818h0a.818.818,0,0,1,.811-.818h29.9a.818.818,0,0,1,.818.818h0A.818.818,0,0,1,207.375,172.075Z" transform="translate(-135.885 -143.099)" fill="#74bf24"/>
      <path id="Path_3705" data-name="Path 3705" d="M207.375,182.369h-29.9a.811.811,0,0,1-.811-.811h0a.811.811,0,0,1,.811-.818h29.9a.818.818,0,0,1,.818.818h0a.811.811,0,0,1-.818.811Z" transform="translate(-135.885 -146.321)" fill="#74bf24"/>
      <path id="Path_3706" data-name="Path 3706" d="M118.41,130.707h1.9a2.343,2.343,0,1,1,0,4.673h-1.9Zm1.876,4.24a1.91,1.91,0,1,0,0-3.814h-1.374v3.814Z" transform="translate(-117.661 -130.665)" fill="#74bf24"/>
      <path id="Path_3707" data-name="Path 3707" d="M129.728,134.95v.433h-3.3V130.71h3.2v.426h-2.707V132.8h2.419v.419h-2.419v1.732Z" transform="translate(-120.17 -130.669)" fill="#74bf24"/>
      <path id="Path_3708" data-name="Path 3708" d="M132.92,130.71h.488v4.24h2.618v.433H132.92Z" transform="translate(-122.201 -130.669)" fill="#74bf24"/>
      <path id="Path_3709" data-name="Path 3709" d="M138.63,130.71h.495v4.673h-.495Z" transform="translate(-123.987 -130.669)" fill="#74bf24"/>
      <path id="Path_3710" data-name="Path 3710" d="M145.031,130.71l-2.061,4.673h-.488l-2.061-4.673h.536l1.787,4.054,1.8-4.054Z" transform="translate(-124.547 -130.669)" fill="#74bf24"/>
      <path id="Path_3711" data-name="Path 3711" d="M151.408,134.95v.433h-3.3V130.71h3.2v.426H148.6V132.8h2.412v.419H148.6v1.732Z" transform="translate(-126.953 -130.669)" fill="#74bf24"/>
      <path id="Path_3712" data-name="Path 3712" d="M157.788,135.373l-1.072-1.5a3.182,3.182,0,0,1-.371,0h-1.257v1.484H154.6V130.68h1.745c1.189,0,1.9.6,1.9,1.6a1.45,1.45,0,0,1-1.065,1.47l1.141,1.6Zm0-3.072c0-.749-.495-1.175-1.429-1.175h-1.244v2.343h1.244c.907,0,1.4-.433,1.4-1.2Z" transform="translate(-128.984 -130.659)" fill="#74bf24"/>
      <path id="Path_3713" data-name="Path 3713" d="M162.77,133.768v1.615h-.488v-1.615l-1.862-3.058h.522l1.6,2.625,1.6-2.625h.495Z" transform="translate(-130.804 -130.669)" fill="#74bf24"/>
      <path id="Path_3714" data-name="Path 3714" d="M172.806,134.132h-2.6l-.557,1.251h-.515l2.13-4.673h.488l2.137,4.673h-.522Zm-.186-.4-1.12-2.508-1.086,2.508Z" transform="translate(-133.529 -130.669)" fill="#74bf24"/>
      <path id="Path_3715" data-name="Path 3715" d="M177.17,130.707h1.9a2.343,2.343,0,1,1,0,4.673h-1.9Zm1.876,4.24a1.91,1.91,0,1,0,0-3.814h-1.374v3.814Z" transform="translate(-136.045 -130.665)" fill="#74bf24"/>
      <path id="Path_3716" data-name="Path 3716" d="M185.18,130.707h1.938a2.343,2.343,0,1,1,0,4.673h-1.9Zm1.876,4.24a1.91,1.91,0,1,0,0-3.814h-1.374v3.814Z" transform="translate(-138.551 -130.665)" fill="#74bf24"/>
      <path id="Path_3717" data-name="Path 3717" d="M196.388,135.373l-1.072-1.5a3.182,3.182,0,0,1-.371,0h-1.257v1.484H193.2V130.68h1.745c1.189,0,1.9.6,1.9,1.6a1.45,1.45,0,0,1-1.065,1.47l1.141,1.6Zm0-3.072c0-.749-.495-1.175-1.429-1.175h-1.244v2.343h1.244c.907,0,1.4-.433,1.4-1.2Z" transform="translate(-141.06 -130.659)" fill="#74bf24"/>
      <path id="Path_3718" data-name="Path 3718" d="M203.5,134.95v.433h-3.3V130.71h3.2v.426h-2.707V132.8h2.412v.419h-2.412v1.732Z" transform="translate(-143.25 -130.669)" fill="#74bf24"/>
      <path id="Path_3719" data-name="Path 3719" d="M206.05,134.793l.192-.378a2.316,2.316,0,0,0,1.539.563c.873,0,1.257-.364,1.257-.825,0-1.278-2.879-.495-2.879-2.219,0-.687.536-1.285,1.725-1.285a2.6,2.6,0,0,1,1.443.419l-.165.392a2.384,2.384,0,0,0-1.278-.385c-.852,0-1.237.378-1.237.845,0,1.278,2.879.508,2.879,2.206,0,.687-.55,1.271-1.745,1.271A2.529,2.529,0,0,1,206.05,134.793Z" transform="translate(-145.08 -130.65)" fill="#74bf24"/>
      <path id="Path_3720" data-name="Path 3720" d="M212,134.793l.192-.378a2.3,2.3,0,0,0,1.539.563c.873,0,1.251-.364,1.251-.825,0-1.278-2.872-.495-2.872-2.219,0-.687.536-1.285,1.718-1.285a2.625,2.625,0,0,1,1.45.419l-.165.392a2.391,2.391,0,0,0-1.285-.385c-.852,0-1.23.378-1.23.845,0,1.278,2.872.508,2.872,2.206,0,.687-.543,1.271-1.738,1.271A2.529,2.529,0,0,1,212,134.793Z" transform="translate(-146.942 -130.65)" fill="#74bf24"/>
      <path id="Path_3721" data-name="Path 3721" d="M120.4,148.6v2.886h-.254L118.3,149.15v2.336H118V148.6h.254l1.855,2.343V148.6Z" transform="translate(-117.533 -136.266)" fill="#74bf24"/>
      <path id="Path_3722" data-name="Path 3722" d="M124.468,150.716H122.86l-.344.77H122.2l1.319-2.886h.3l1.319,2.886h-.323Zm-.11-.247-.687-1.546-.687,1.546Z" transform="translate(-118.847 -136.266)" fill="#74bf24"/>
      <path id="Path_3723" data-name="Path 3723" d="M130.166,148.6v2.886h-.3v-2.309l-1.134,1.945h-.144l-1.127-1.931v2.3h-.3V148.6h.254l1.251,2.144,1.237-2.144Z" transform="translate(-120.402 -136.266)" fill="#74bf24"/>
      <path id="Path_3724" data-name="Path 3724" d="M134.931,151.225v.261H132.87V148.6h1.979v.275h-1.677V149.9h1.491v.261h-1.491v1.072Z" transform="translate(-122.185 -136.266)" fill="#74bf24"/>
      <path id="Path_3725" data-name="Path 3725" d="M119.588,161.036H117.98l-.344.77h-.316l1.319-2.886h.3l1.319,2.886h-.316Zm-.11-.247-.687-1.553-.687,1.553Z" transform="translate(-117.32 -139.494)" fill="#74bf24"/>
      <path id="Path_3726" data-name="Path 3726" d="M122.29,158.9h1.175a1.45,1.45,0,1,1,0,2.886H122.29Zm1.161,2.618a1.182,1.182,0,1,0,0-2.357h-.859v2.357Z" transform="translate(-118.875 -139.485)" fill="#74bf24"/>
      <path id="Path_3727" data-name="Path 3727" d="M127.25,158.9h1.2a1.45,1.45,0,1,1,0,2.886h-1.175Zm1.154,2.618a1.182,1.182,0,1,0,0-2.357h-.852v2.357Z" transform="translate(-120.427 -139.485)" fill="#74bf24"/>
      <path id="Path_3728" data-name="Path 3728" d="M134.16,161.78l-.687-.928h-1v.914h-.309V158.88h1.079c.735,0,1.182.371,1.182.989a.9.9,0,0,1-.687.907l.687.989Zm0-1.9c0-.46-.309-.728-.886-.728h-.763v1.45h.763c.563,0,.873-.268.873-.722Z" transform="translate(-121.963 -139.482)" fill="#74bf24"/>
      <path id="Path_3729" data-name="Path 3729" d="M138.571,161.518v.268H136.51V158.9h1.979v.261h-1.642v1.031h1.5v.261h-1.5v1.065Z" transform="translate(-123.324 -139.488)" fill="#74bf24"/>
      <path id="Path_3730" data-name="Path 3730" d="M140.15,161.42l.124-.234a1.422,1.422,0,0,0,.948.35c.543,0,.776-.227.776-.515,0-.79-1.773-.3-1.773-1.374,0-.426.323-.8,1.058-.8a1.574,1.574,0,0,1,.893.261l-.1.24a1.512,1.512,0,0,0-.79-.24c-.522,0-.763.234-.763.522,0,.8,1.78.316,1.78,1.374,0,.426-.337.783-1.079.783A1.587,1.587,0,0,1,140.15,161.42Z" transform="translate(-124.463 -139.472)" fill="#74bf24"/>
      <path id="Path_3731" data-name="Path 3731" d="M143.84,161.42l.124-.234a1.422,1.422,0,0,0,.948.35c.543,0,.776-.227.776-.515,0-.79-1.773-.3-1.773-1.374,0-.426.33-.8,1.058-.8a1.574,1.574,0,0,1,.893.261l-.1.24a1.512,1.512,0,0,0-.79-.241c-.522,0-.763.234-.763.522,0,.8,1.78.316,1.78,1.374,0,.426-.337.783-1.079.783A1.587,1.587,0,0,1,143.84,161.42Z" transform="translate(-125.617 -139.472)" fill="#74bf24"/>
      <path id="Path_3732" data-name="Path 3732" d="M120.254,170.189c0,.612-.447.983-1.182.983H118.3v.914H118V169.2h1.079C119.807,169.2,120.254,169.571,120.254,170.189Zm-.309,0c0-.46-.3-.728-.88-.728h-.77V170.9h.77C119.642,170.9,119.945,170.643,119.945,170.189Z" transform="translate(-117.533 -142.711)" fill="#74bf24"/>
      <path id="Path_3733" data-name="Path 3733" d="M121.93,170.59a1.512,1.512,0,1,1,1.512,1.464,1.45,1.45,0,0,1-1.512-1.464Zm2.749,0a1.216,1.216,0,1,0-1.209,1.2,1.168,1.168,0,0,0,1.182-1.2Z" transform="translate(-118.762 -142.658)" fill="#74bf24"/>
      <path id="Path_3734" data-name="Path 3734" d="M126.93,171.723l.117-.24a1.374,1.374,0,0,0,.955.35c.536,0,.776-.227.776-.508,0-.79-1.78-.3-1.78-1.374,0-.419.33-.79,1.065-.79a1.663,1.663,0,0,1,.893.254l-.1.247a1.45,1.45,0,0,0-.79-.241c-.529,0-.763.234-.763.522,0,.79,1.773.316,1.773,1.374,0,.419-.337.783-1.072.783a1.574,1.574,0,0,1-1.072-.378Z" transform="translate(-120.327 -142.698)" fill="#74bf24"/>
      <path id="Path_3735" data-name="Path 3735" d="M131.317,169.461H130.3V169.2h2.336v.261h-1.017v2.625h-.3Z" transform="translate(-121.381 -142.711)" fill="#74bf24"/>
      <path id="Path_3736" data-name="Path 3736" d="M135.794,171.31h-1.608l-.344.776h-.323l1.319-2.886h.3l1.319,2.886h-.323Zm-.11-.247L135,169.516l-.687,1.546Z" transform="translate(-122.388 -142.711)" fill="#74bf24"/>
      <path id="Path_3737" data-name="Path 3737" d="M138.5,169.2h.3v2.611h1.615v.268H138.5Z" transform="translate(-123.946 -142.711)" fill="#74bf24"/>
      <path id="Path_3738" data-name="Path 3738" d="M143.23,170.63a1.45,1.45,0,0,1,1.512-1.47,1.422,1.422,0,0,1,1.058.419l-.192.2a1.161,1.161,0,0,0-.859-.344,1.2,1.2,0,1,0,0,2.391,1.141,1.141,0,0,0,.859-.35l.192.192a1.374,1.374,0,0,1-1.058.426,1.45,1.45,0,0,1-1.512-1.464Z" transform="translate(-125.426 -142.698)" fill="#74bf24"/>
      <path id="Path_3739" data-name="Path 3739" d="M147.46,170.59a1.512,1.512,0,1,1,1.512,1.464,1.45,1.45,0,0,1-1.512-1.464Zm2.749,0a1.216,1.216,0,1,0-1.209,1.2,1.168,1.168,0,0,0,1.182-1.2Z" transform="translate(-126.749 -142.658)" fill="#74bf24"/>
      <path id="Path_3740" data-name="Path 3740" d="M152.86,169.2h1.175a1.45,1.45,0,1,1,0,2.886H152.86Zm1.161,2.618a1.182,1.182,0,1,0,0-2.357h-.852v2.35Z" transform="translate(-128.439 -142.708)" fill="#74bf24"/>
      <path id="Path_3741" data-name="Path 3741" d="M159.851,171.808v.268H157.79V169.19h1.979v.261h-1.677v1.024h1.491v.261h-1.491v1.072Z" transform="translate(-129.982 -142.708)" fill="#74bf24"/>
      <path id="Path_3742" data-name="Path 3742" d="M120.254,180.479c0,.618-.447.989-1.182.989H118.3v.907H118V179.49h1.079C119.807,179.49,120.254,179.84,120.254,180.479Zm-.309,0c0-.46-.3-.721-.88-.721h-.77v1.457h.77C119.642,181.215,119.945,180.933,119.945,180.479Z" transform="translate(-117.533 -145.93)" fill="#74bf24"/>
      <path id="Path_3743" data-name="Path 3743" d="M124.652,179.49v2.886h-.3v-1.333h-1.807v1.333h-.3V179.49h.3v1.292h1.807V179.49Z" transform="translate(-118.859 -145.93)" fill="#74bf24"/>
      <path id="Path_3744" data-name="Path 3744" d="M126.74,180.877a1.519,1.519,0,1,1,1.519,1.47,1.45,1.45,0,0,1-1.519-1.47Zm2.749,0a1.216,1.216,0,1,0-1.209,1.2,1.168,1.168,0,0,0,1.189-1.2Z" transform="translate(-120.267 -145.874)" fill="#74bf24"/>
      <path id="Path_3745" data-name="Path 3745" d="M134.562,179.49v2.886h-.254l-1.855-2.336v2.336h-.3V179.49h.254l1.855,2.343V179.49Z" transform="translate(-121.96 -145.93)" fill="#74bf24"/>
      <path id="Path_3746" data-name="Path 3746" d="M139.061,182.115v.261H137V179.49h1.979v.268H137.3v1.024h1.491v.261H137.3v1.072Z" transform="translate(-123.477 -145.93)" fill="#74bf24"/>
      <path id="Path_3747" data-name="Path 3747" d="M167.618,149.879a.227.227,0,1,1,.1.229A.227.227,0,0,1,167.618,149.879Zm0,1.752a.227.227,0,1,1,.1.229A.227.227,0,0,1,167.618,151.631Z" transform="translate(-133.055 -136.583)" fill="#74bf24"/>
      <path id="Path_3748" data-name="Path 3748" d="M167.618,160.155a.227.227,0,1,1,.1.229A.227.227,0,0,1,167.618,160.155Zm0,1.759a.227.227,0,1,1,.1.229A.227.227,0,0,1,167.618,161.914Z" transform="translate(-133.055 -139.822)" fill="#74bf24"/>
      <path id="Path_3749" data-name="Path 3749" d="M167.618,170.455a.227.227,0,1,1,.1.229A.227.227,0,0,1,167.618,170.455Zm0,1.759a.227.227,0,1,1,.1.229A.227.227,0,0,1,167.618,172.214Z" transform="translate(-133.055 -143.045)" fill="#74bf24"/>
      <path id="Path_3750" data-name="Path 3750" d="M167.618,180.719a.227.227,0,1,1,.1.229.227.227,0,0,1-.1-.229Zm0,1.752a.227.227,0,1,1,.1.229.227.227,0,0,1-.1-.229Z" transform="translate(-133.055 -146.231)" fill="#74bf24"/>
    </g>
    <g id="freepik--Locator--inject-13" transform="translate(149.627 90.676)">
      <path id="Path_3751" data-name="Path 3751" d="M232.607,109.469h0a8.7,8.7,0,1,0-12.307,12.3l6.15,6.184,6.184-6.184a8.7,8.7,0,0,0-.027-12.3Zm-3.305,9h0a4.027,4.027,0,1,1,0-5.7h0A4.027,4.027,0,0,1,229.3,118.471Z" transform="translate(-217.754 -106.919)" fill="#74bf24"/>
    </g>
    <g id="freepik--Character--inject-13" transform="translate(208.416 118.458)">
      <g id="freepik--group--inject-13" transform="translate(0 0)">
        <path id="Path_3752" data-name="Path 3752" d="M342.443,187.21c-3.223.3-7.813,15.749-7.813,15.749l8.864,1.148.447-14.808Z" transform="translate(-313.109 -159.822)" fill="#74bf24"/>
        <path id="Path_3753" data-name="Path 3753" d="M342.443,187.21c-3.223.3-7.813,15.749-7.813,15.749l8.864,1.148.447-14.808Z" transform="translate(-313.109 -159.822)" fill="#fff" opacity="0.1" style="mix-blend-mode: normal;isolation: isolate"/>
        <path id="Path_3754" data-name="Path 3754" d="M372.547,412.9h6.26a.454.454,0,0,1,.44.357l1.017,4.576a.763.763,0,0,1-.584.9.735.735,0,0,1-.172,0c-2.02-.034-3.491-.158-6.033-.158-1.56,0-6.28.165-8.438.165s-2.446-2.137-1.56-2.336c3.965-.859,6.947-2.061,8.246-3.2A1.223,1.223,0,0,1,372.547,412.9Z" transform="translate(-321.987 -230.432)" fill="#263238"/>
        <path id="Path_3755" data-name="Path 3755" d="M333.969,412.66h6.246a.454.454,0,0,1,.44.357l1.017,4.576a.763.763,0,0,1-.591.9.687.687,0,0,1-.165,0c-2.02-.034-3.5-.158-6.033-.158-1.567,0-6.28.165-8.445.165s-2.439-2.137-1.553-2.329c3.965-.866,6.947-2.061,8.246-3.2a1.251,1.251,0,0,1,.838-.309Z" transform="translate(-309.912 -230.357)" fill="#263238"/>
        <path id="Path_3756" data-name="Path 3756" d="M372.547,412.9h6.26a.454.454,0,0,1,.44.357l1.017,4.576a.763.763,0,0,1-.584.9.735.735,0,0,1-.172,0c-2.02-.034-3.491-.158-6.033-.158-1.56,0-6.28.165-8.438.165s-2.446-2.137-1.56-2.336c3.965-.859,6.947-2.061,8.246-3.2A1.223,1.223,0,0,1,372.547,412.9Z" transform="translate(-321.987 -230.432)" fill="#fff" opacity="0.3"/>
        <path id="Path_3757" data-name="Path 3757" d="M333.969,412.66h6.246a.454.454,0,0,1,.44.357l1.017,4.576a.763.763,0,0,1-.591.9.687.687,0,0,1-.165,0c-2.02-.034-3.5-.158-6.033-.158-1.567,0-6.28.165-8.445.165s-2.439-2.137-1.553-2.329c3.965-.866,6.947-2.061,8.246-3.2a1.251,1.251,0,0,1,.838-.309Z" transform="translate(-309.912 -230.357)" fill="#fff" opacity="0.3"/>
        <path id="Path_3758" data-name="Path 3758" d="M366.121,244.3H338.835c-2.6,14.176-10.719,71.744-4.892,116.449h9.249s-.88-67.869,7.284-89.857c.935,11.743,10.479,89.781,10.479,89.781h9.414s-1.409-29.355-2.817-57.087C366.664,286.154,366.162,247.887,366.121,244.3Z" transform="translate(-312.249 -177.683)" fill="#263238"/>
        <path id="Path_3759" data-name="Path 3759" d="M357.5,278.576a72.9,72.9,0,0,0-3.051,11.819c-.763-10.451,2.288-21.535,2.288-21.535Z" transform="translate(-319.27 -185.367)" opacity="0.2" style="mix-blend-mode: normal;isolation: isolate"/>
        <path id="Path_3760" data-name="Path 3760" d="M341.48,244.78h27.486v3.271l-27.836-.337Z" transform="translate(-315.142 -177.833)"/>
        <rect id="Rectangle_412" data-name="Rectangle 412" width="0.983" height="5.806" transform="translate(44.004 65.469)" fill="#263238"/>
        <rect id="Rectangle_413" data-name="Rectangle 413" width="0.983" height="5.806" transform="translate(30.103 65.469)" fill="#263238"/>
        <rect id="Rectangle_414" data-name="Rectangle 414" width="5.085" height="3.662" transform="translate(33.78 66.369)" fill="#fff"/>
        <path id="Path_3761" data-name="Path 3761" d="M341.6,227.259h27.554c.625-13.406,4.123-31.608,5.071-36.508a1.319,1.319,0,0,0-1.01-1.56c-1.374-.3-2.81-.563-4.253-.783a133.805,133.805,0,0,0-19.638-1.319c-2.907,0-4.734.082-4.734.082C341.254,199.12,341.323,218.388,341.6,227.259Z" transform="translate(-315.253 -159.783)" fill="#74bf24"/>
        <path id="Path_3762" data-name="Path 3762" d="M341.6,227.259h27.554a224.883,224.883,0,0,1,2.81-23.94c.928-5.717,1.835-10.417,2.261-12.568a1,1,0,0,0,0-.35,1.312,1.312,0,0,0-1.031-1.209c-1.374-.3-2.81-.563-4.253-.783a133.8,133.8,0,0,0-19.638-1.319c-2.907,0-4.734.082-4.734.082C341.254,199.12,341.323,218.388,341.6,227.259Z" transform="translate(-315.253 -159.783)" fill="#fff" opacity="0.3" style="mix-blend-mode: normal;isolation: isolate"/>
        <path id="Path_3763" data-name="Path 3763" d="M369.733,182.388c-2.364,2.144-8.149,1.374-8.149,1.374s-3.614-.989-2.852-2.116c2.123-.35,3.154-1.374,3.58-2.618a6.136,6.136,0,0,0,.213-2.426,11.522,11.522,0,0,0-.179-1.374l7.153-5.3C368.565,173.414,367.417,179.852,369.733,182.388Z" transform="translate(-320.616 -154.416)" fill="#e4897b"/>
        <path id="Path_3764" data-name="Path 3764" d="M369.528,174.82a6.045,6.045,0,0,1-5.538,5.717,6.136,6.136,0,0,0,.213-2.426Z" transform="translate(-322.294 -155.945)" opacity="0.2" style="mix-blend-mode: normal;isolation: isolate"/>
        <path id="Path_3765" data-name="Path 3765" d="M368.18,184.1l-6.837,3.078-.4-2.467-2.515.88a2.061,2.061,0,0,0-1.374,2.164l.282,2.749,3.436-1.9,1.725,2.439,8.259-3.985Z" transform="translate(-320.121 -158.849)" fill="#74bf24"/>
        <path id="Path_3766" data-name="Path 3766" d="M368.18,184.1l-6.837,3.078-.4-2.467-2.515.88a2.061,2.061,0,0,0-1.374,2.164l.282,2.749,3.436-1.9,1.725,2.439,8.259-3.985Z" transform="translate(-320.121 -158.849)" fill="#fff" opacity="0.1" style="mix-blend-mode: normal;isolation: isolate"/>
        <path id="Path_3767" data-name="Path 3767" d="M350,158.849c-1.34.522,9.194.625,9.194.625S355.871,156.554,350,158.849Z" transform="translate(-317.88 -150.674)" fill="#74bf24"/>
        <path id="Path_3768" data-name="Path 3768" d="M350,158.849c-1.34.522,9.194.625,9.194.625S355.871,156.554,350,158.849Z" transform="translate(-317.88 -150.674)" opacity="0.2" style="mix-blend-mode: normal;isolation: isolate"/>
        <path id="Path_3769" data-name="Path 3769" d="M356.373,154.13s-2.336,6.782.941,9.888,4.954-9.62,4.954-9.62Z" transform="translate(-319.659 -149.472)" fill="#263238"/>
        <path id="Path_3770" data-name="Path 3770" d="M355.82,167.484a6.2,6.2,0,0,0,.24.687,6.968,6.968,0,0,0,3.518,3.731,6.4,6.4,0,0,0,4.611.364,6.288,6.288,0,0,0,2.824-1.821c2.412-2.625,2.24-5.538,2.343-10.493a6.782,6.782,0,0,0-9.62-6.418C354.988,155.721,354.59,163.073,355.82,167.484Z" transform="translate(-319.552 -149.091)" fill="#e4897b"/>
        <path id="Path_3771" data-name="Path 3771" d="M364.495,165.3c.048.4-.179.735-.447.742s-.488-.309-.508-.687.192-.735.454-.742S364.481,164.878,364.495,165.3Z" transform="translate(-322.153 -152.751)" fill="#263238"/>
        <path id="Path_3772" data-name="Path 3772" d="M357.865,165.547c.048.4-.186.735-.447.742s-.488-.309-.508-.687.192-.735.454-.742S357.851,165.162,357.865,165.547Z" transform="translate(-320.079 -152.829)" fill="#263238"/>
        <path id="Path_3773" data-name="Path 3773" d="M359.6,166.07a14.429,14.429,0,0,1-1.793,3.518,2.357,2.357,0,0,0,1.951.289Z" transform="translate(-320.361 -153.208)" fill="#de5753"/>
        <path id="Path_3774" data-name="Path 3774" d="M355.686,162.742a.247.247,0,0,0,.247,0,1.917,1.917,0,0,1,1.69-.268.234.234,0,0,0,.309-.124.241.241,0,0,0-.124-.309h0a2.336,2.336,0,0,0-2.13.309.234.234,0,0,0-.076.323h0a.3.3,0,0,0,.082.069Z" transform="translate(-319.66 -151.907)" fill="#263238"/>
        <path id="Path_3775" data-name="Path 3775" d="M365.171,162.49a.289.289,0,0,0,.124-.055.234.234,0,0,0,0-.33h0a2.35,2.35,0,0,0-2.116-.454.227.227,0,0,0-.144.3h0a.24.24,0,0,0,.3.151h0a1.9,1.9,0,0,1,1.67.385A.241.241,0,0,0,365.171,162.49Z" transform="translate(-321.991 -151.8)" fill="#263238"/>
        <path id="Path_3776" data-name="Path 3776" d="M370.039,154.39l-.289,2.185a1.628,1.628,0,0,1,.8,2.061c-.728,1.828.289,4.686,1.684,5.841,0,0,.055-.8.721-.6s.447,4.336-.886,6.3c0,0,2-1.766,3.161-6.109,1.072-4.006,1.237-7.359.426-8.933Z" transform="translate(-324.097 -149.554)" fill="#263238"/>
        <path id="Path_3777" data-name="Path 3777" d="M376.96,167.594a4.693,4.693,0,0,1-2.611,2.481c-1.546.584-2.467-.763-2.164-2.3.289-1.374,1.422-3.353,3.037-3.264A2.109,2.109,0,0,1,376.96,167.594Z" transform="translate(-324.84 -152.719)" fill="#e4897b"/>
        <path id="Path_3778" data-name="Path 3778" d="M361.662,173.646a.172.172,0,0,1-.165-.131.165.165,0,0,1,.124-.206,3.614,3.614,0,0,0,1.945-1.525.179.179,0,0,1,.241-.055.172.172,0,0,1,.055.234,3.848,3.848,0,0,1-2.158,1.677Z" transform="translate(-321.513 -154.97)" fill="#263238"/>
        <path id="Path_3779" data-name="Path 3779" d="M355.07,154.188s1.979-5.3,2.845-5.937,3.779-1.148,6.445-.77,6.438,2.872,7.181,4.123,0,6,0,6l-5.882-1.725Z" transform="translate(-319.504 -147.352)" fill="#74bf24"/>
        <path id="Path_3780" data-name="Path 3780" d="M355.07,154.188s1.979-5.3,2.845-5.937,3.779-1.148,6.445-.77,6.438,2.872,7.181,4.123,0,6,0,6l-5.882-1.725Z" transform="translate(-319.504 -147.352)" fill="#fff" opacity="0.1" style="mix-blend-mode: normal;isolation: isolate"/>
        <path id="Path_3781" data-name="Path 3781" d="M350.05,158s5.428-2.687,7.978-2.749,6.184,1.532,7.084,2.81c0,0-4.528,1.374-6.384.57A16.065,16.065,0,0,0,350.05,158Z" transform="translate(-317.933 -149.822)" fill="#74bf24"/>
        <path id="Path_3782" data-name="Path 3782" d="M358.06,152.626l2.694-2.316-.282,1.457,3.271-.014-.131.831Z" transform="translate(-320.439 -148.277)" fill="#fff"/>
        <path id="Path_3783" data-name="Path 3783" d="M362.347,151.014l2.769-.034-.131.577-2.776-.007Z" transform="translate(-321.738 -148.487)" fill="#fff"/>
        <rect id="Rectangle_415" data-name="Rectangle 415" width="37.607" height="26.716" transform="translate(0 39.564)" fill="#263238"/>
        <rect id="Rectangle_416" data-name="Rectangle 416" width="37.607" height="26.716" transform="translate(0 39.564)" fill="#fff" opacity="0.3" style="mix-blend-mode: normal;isolation: isolate"/>
        <rect id="Rectangle_417" data-name="Rectangle 417" width="22.291" height="26.716" transform="translate(0 39.564)" fill="#fff" opacity="0.1" style="mix-blend-mode: normal;isolation: isolate"/>
        <rect id="Rectangle_418" data-name="Rectangle 418" width="3.147" height="2.804" transform="translate(28.674 39.564)" fill="#fff" opacity="0.3" style="mix-blend-mode: normal;isolation: isolate"/>
        <rect id="Rectangle_419" data-name="Rectangle 419" width="3.147" height="2.467" transform="translate(28.674 63.813)" fill="#fff" opacity="0.3" style="mix-blend-mode: normal;isolation: isolate"/>
        <rect id="Rectangle_420" data-name="Rectangle 420" width="7.826" height="4.343" transform="translate(12.849 60.494)" fill="#fff" opacity="0.3" style="mix-blend-mode: normal;isolation: isolate"/>
        <rect id="Rectangle_421" data-name="Rectangle 421" width="5.786" height="2.213" transform="translate(1.189 40.925)" fill="#fff" opacity="0.3" style="mix-blend-mode: normal;isolation: isolate"/>
        <path id="Path_3784" data-name="Path 3784" d="M370,212s-1.072,6.122-2.061,7.146c-2.178,2.3-17.57,3.875-17.57,3.875l.241,3.436s16.113-.989,19.164-3.188c2.522-1.814,5.456-10.678,5.456-10.678Z" transform="translate(-318.033 -167.578)" fill="#e4897b"/>
        <path id="Path_3785" data-name="Path 3785" d="M347.643,228.454a6.4,6.4,0,0,0-.955-2.061c-.447-.337-6.761-.323-7.084-.323s.192,5.167.639,5.683,5.614,0,6.445-.192S348.09,229.918,347.643,228.454Z" transform="translate(-314.633 -171.98)" fill="#e4897b"/>
        <path id="Path_3786" data-name="Path 3786" d="M384.135,190.11c6.349,2.247-2.151,22.236-2.151,22.236l-5.614-1.725S379.483,188.461,384.135,190.11Z" transform="translate(-326.168 -160.702)" fill="#74bf24"/>
        <path id="Path_3787" data-name="Path 3787" d="M384.135,190.11c6.349,2.247-2.151,22.236-2.151,22.236l-5.614-1.725S379.483,188.461,384.135,190.11Z" transform="translate(-326.168 -160.702)" fill="#fff" opacity="0.1" style="mix-blend-mode: normal;isolation: isolate"/>
        <path id="Path_3788" data-name="Path 3788" d="M375.885,217.28l6.823,2.3-.7,2.041-6.507-2.487Z" transform="translate(-325.896 -169.23)" fill="#74bf24"/>
        <path id="Path_3789" data-name="Path 3789" d="M366.63,202.488l2.886-2.068-.405,1.422,3.264.275-.206.818Z" transform="translate(-323.12 -163.955)" fill="#fff"/>
        <path id="Path_3790" data-name="Path 3790" d="M371.116,201.18l2.762.2-.179.57-2.769-.254Z" transform="translate(-324.466 -164.193)" fill="#fff"/>
      </g>
    </g>
  </g>
</svg>
