<svg xmlns="http://www.w3.org/2000/svg" width="380.085" height="273" viewBox="0 0 380.085 273">
  <g id="Insert_block-rafiki" data-name="Insert block-rafiki" transform="translate(0 -42.33)">
    <g id="freepik--background-complete--inject-5" transform="translate(0 42.33)">
      <rect id="Rectangle_438" data-name="Rectangle 438" width="380.085" height="0.19" transform="translate(0 258.511)" fill="#ebebeb"/>
      <rect id="Rectangle_439" data-name="Rectangle 439" width="25.177" height="0.19" transform="translate(316.824 270.742)" fill="#ebebeb"/>
      <rect id="Rectangle_440" data-name="Rectangle 440" width="6.606" height="0.19" transform="translate(245.178 272.81)" fill="#ebebeb"/>
      <rect id="Rectangle_441" data-name="Rectangle 441" width="14.588" height="0.19" transform="translate(301.476 263.688)" fill="#ebebeb"/>
      <rect id="Rectangle_442" data-name="Rectangle 442" width="32.832" height="0.19" transform="translate(39.879 264.965)" fill="#ebebeb"/>
      <rect id="Rectangle_443" data-name="Rectangle 443" width="4.812" height="0.19" transform="translate(79.483 264.965)" fill="#ebebeb"/>
      <rect id="Rectangle_444" data-name="Rectangle 444" width="71.213" height="0.19" transform="translate(99.94 268.173)" fill="#ebebeb"/>
      <path id="Path_3793" data-name="Path 3793" d="M189.324,269.976H42.543a4.341,4.341,0,0,1-4.333-4.341V59.3A4.341,4.341,0,0,1,42.543,55H189.324a4.341,4.341,0,0,1,4.341,4.341v206.3A4.341,4.341,0,0,1,189.324,269.976ZM42.543,55.152A4.151,4.151,0,0,0,38.4,59.3V265.636a4.151,4.151,0,0,0,4.143,4.151H189.324a4.158,4.158,0,0,0,4.151-4.151V59.3a4.158,4.158,0,0,0-4.151-4.151Z" transform="translate(-9.164 -45.369)" fill="#ebebeb"/>
      <path id="Path_3794" data-name="Path 3794" d="M405.63,269.976H258.841a4.348,4.348,0,0,1-4.341-4.341V59.3a4.348,4.348,0,0,1,4.341-4.3H405.63a4.341,4.341,0,0,1,4.325,4.3V265.636A4.341,4.341,0,0,1,405.63,269.976ZM258.841,55.152A4.158,4.158,0,0,0,254.69,59.3V265.636a4.158,4.158,0,0,0,4.151,4.151H405.63a4.158,4.158,0,0,0,4.151-4.151V59.3a4.158,4.158,0,0,0-4.151-4.151Z" transform="translate(-61.037 -45.369)" fill="#ebebeb"/>
      <path id="Path_3795" data-name="Path 3795" d="M277.622,137.429l-.342-9.989,6.135-2a59.29,59.29,0,0,1,1.634-10.034l-5.2-3.8,3.527-9.388,6.431.525a59.023,59.023,0,0,1,5.321-8.628L291.8,88.55l6.842-7.305,5.792,2.911a63.575,63.575,0,0,1,8.24-5.952l-.927-6.378,9.122-4.143,4.181,4.9a62.129,62.129,0,0,1,9.882-2.281l1.52-6.249,10.019-.35,1.977,6.135a62.842,62.842,0,0,1,10.027,1.634l3.862-5.169,9.388,3.5-.524,6.431a61.171,61.171,0,0,1,8.628,5.374l5.534-3.33,7.336,6.842-2.942,5.77a59.45,59.45,0,0,1,5.929,8.24l6.378-.958,4.234,9.084-4.926,4.181a59.52,59.52,0,0,1,2.281,9.882l6.279,1.574.342,9.989-6.157,2.007a58.8,58.8,0,0,1-1.634,10.034l5.2,3.8-3.535,9.381-6.423-.517a58.814,58.814,0,0,1-5.359,8.628l3.337,5.557-6.842,7.313-5.747-2.949a61.424,61.424,0,0,1-8.24,5.96l.958,6.378-9.122,4.135-4.2-4.9a61.315,61.315,0,0,1-9.882,2.319l-1.52,6.256-10.019.342L339.1,190.5a61.134,61.134,0,0,1-10.034-1.634l-3.8,5.169-9.434-3.474.494-6.423a61.837,61.837,0,0,1-8.628-5.382l-5.549,3.33-7.336-6.842,2.942-5.777a58.993,58.993,0,0,1-5.945-8.233l-6.385.973-4.166-9.122,4.926-4.181a58.992,58.992,0,0,1-2.319-9.882Zm67.5,32.36a39.651,39.651,0,1,0-40.966-38.252,39.65,39.65,0,0,0,40.966,38.252Z" transform="translate(-66.5 -47.455)" fill="#ebebeb"/>
      <path id="Path_3796" data-name="Path 3796" d="M119.722,305.945l-.152-4.5,2.767-.9a27.114,27.114,0,0,1,.76-4.523l-2.341-1.726,1.589-4.234,2.9.236a26.607,26.607,0,0,1,2.417-3.892l-1.52-2.509,3.094-3.292,2.585,1.33a28.716,28.716,0,0,1,3.717-2.691l-.418-2.873,4.113-1.87,1.878,2.235a28.474,28.474,0,0,1,4.462-1.049l.7-2.82,4.515-.152.889,2.767a27.52,27.52,0,0,1,4.523.76l1.741-2.334,4.234,1.581-.236,2.9a28.756,28.756,0,0,1,3.892,2.425l2.493-1.52,3.307,3.041-1.33,2.607a25.91,25.91,0,0,1,2.676,3.717l2.881-.433,1.878,4.113-2.22,1.885a27.215,27.215,0,0,1,1.041,4.462l2.835.707.152,4.508-2.775.9a26.864,26.864,0,0,1-.76,4.523l2.341,1.726-1.589,4.234-2.9-.236a27.225,27.225,0,0,1-2.41,3.892l1.52,2.5-3.086,3.3-2.592-1.33a27.242,27.242,0,0,1-3.717,2.691L164,328.97l-4.113,1.862-1.893-2.2a28.673,28.673,0,0,1-4.462,1.049l-.7,2.82-4.515.152-.9-2.767a27.653,27.653,0,0,1-4.561-.76l-1.68,2.341-4.242-1.52.228-2.9a28.757,28.757,0,0,1-3.892-2.425l-2.493,1.52-3.307-3.041,1.323-2.607a26.507,26.507,0,0,1-2.676-3.717l-2.873.433-1.878-4.113,2.22-1.885a26.863,26.863,0,0,1-1.049-4.462Zm30.407,14.6a18.552,18.552,0,1,1,.03,0Z" transform="translate(-28.676 -97.582)" fill="#f5f5f5"/>
      <path id="Path_3797" data-name="Path 3797" d="M115,83.128l-2.516-2.281,1-1.984a20.585,20.585,0,0,1-2.052-2.889l-2.2.334-1.422-3.147,1.688-1.444a20.319,20.319,0,0,1-.76-3.406l-2.166-.547-.106-3.451,2.113-.684a21.438,21.438,0,0,1,.563-3.459l-1.786-1.33,1.216-3.231,2.212.175a21.474,21.474,0,0,1,1.847-2.98l-1.193-1.9,2.357-2.531,1.984,1.019a21.528,21.528,0,0,1,2.843-2.052l-.3-2.22,3.14-1.437,1.444,1.7a21.156,21.156,0,0,1,3.413-.76l.54-2.159,3.451-.129.692,2.128a19.765,19.765,0,0,1,3.451.563l1.315-1.794,3.238,1.2-.2,2.212a20.206,20.206,0,0,1,3.041,1.855l1.916-1.14,2.486,2.326-1.019,1.992a19.762,19.762,0,0,1,2.052,2.843l2.166-.274,1.429,3.155L149.2,58.8a20.4,20.4,0,0,1,.8,3.413l2.174.54.106,3.451-2.121.684a20.828,20.828,0,0,1-.555,3.466l1.794,1.315L150.2,74.9l-2.235-.137a21.394,21.394,0,0,1-1.847,2.972l1.148,1.908-2.387,2.493L142.9,81.129a21.465,21.465,0,0,1-2.843,2.045l.327,2.2-3.109,1.437-1.444-1.688a22,22,0,0,1-3.413.76l-.54,2.159-3.451.122-.692-2.121a20.418,20.418,0,0,1-3.451-.563l-1.323,1.786-3.238-1.209.175-2.22a20.289,20.289,0,0,1-2.972-1.847Zm17.955-14.542a2.073,2.073,0,1,0,0,.03Z" transform="translate(-25.532 -42.33)" fill="#ebebeb"/>
      <path id="Path_3798" data-name="Path 3798" d="M209.38,300.675l5.747-3.968h0a31.243,31.243,0,0,1,2.281-5.983l-1.475-5.785,8.362-8.932,5.869,1.079a31.379,31.379,0,0,1,5.808-2.714h0l3.573-6.005,12.208-.418,3.968,5.747h0a31.03,31.03,0,0,1,5.983,2.281l5.777-1.467,8.932,8.362-1.072,5.853h0a30.6,30.6,0,0,1,2.714,5.831l6.013,3.565.418,12.216-5.755,3.968a31.076,31.076,0,0,1-2.28,6.021h0l1.467,5.762-8.362,8.932-5.838-1.072a32.159,32.159,0,0,1-5.861,2.721h0l-3.565,6-12.208.418-3.968-5.739a32.255,32.255,0,0,1-6.036-2.28h0l-5.747,1.46-8.932-8.362,1.072-5.861a30.656,30.656,0,0,1-2.714-5.838h0l-6.013-3.565Zm38.054,18.563a13.282,13.282,0,1,0,0,.015Z" transform="translate(-50.215 -96.44)" fill="#ebebeb"/>
      <path id="Path_3799" data-name="Path 3799" d="M67.84,106.7a.851.851,0,0,1-.707-.372l-2.121-3.041a19.811,19.811,0,0,1-3.041-1.171l-3.041.76a.844.844,0,0,1-.806-.205l-5.169-4.827a.844.844,0,0,1-.266-.76l.57-3.041a18.419,18.419,0,0,1-1.376-2.957l-3.216-1.916a.874.874,0,0,1-.426-.707L48,81.266a.874.874,0,0,1,.372-.76l3.041-2.121a18.145,18.145,0,0,1,1.171-3.041l-.76-3.041a.889.889,0,0,1,.205-.806l4.835-5.169a.859.859,0,0,1,.76-.258l3.086.563a19.21,19.21,0,0,1,2.949-1.376l1.908-3.216a.859.859,0,0,1,.715-.418l7.07-.243a.874.874,0,0,1,.76.372l2.121,3.041a19.331,19.331,0,0,1,3.041,1.171l3.041-.76a.874.874,0,0,1,.76.205l5.215,4.873a.859.859,0,0,1,.258.76l-.563,3.041a19.469,19.469,0,0,1,1.376,2.965l3.216,1.908a.851.851,0,0,1,.418.707l.243,7.077a.867.867,0,0,1-.372.76l-3.041,2.128a19,19,0,0,1-1.163,3.041l.76,3.041a.867.867,0,0,1-.205.806l-4.827,5.169a.882.882,0,0,1-.76.258l-3.041-.563a18.737,18.737,0,0,1-2.972,1.384l-1.908,3.208a.859.859,0,0,1-.715.418l-7.07.243Zm-5.793-6.393a.882.882,0,0,1,.388.091,16.967,16.967,0,0,0,3.33,1.277.859.859,0,0,1,.487.342l2.03,2.942,6.135-.205,1.817-3.041a.9.9,0,0,1,.487-.388,17.529,17.529,0,0,0,3.216-1.52.874.874,0,0,1,.6-.106l2.911.532,4.189-4.485-.76-2.881a.889.889,0,0,1,.068-.608,16.807,16.807,0,0,0,1.269-3.314.836.836,0,0,1,.35-.487l2.942-2.03-.175-6.173L88.289,78.43a.836.836,0,0,1-.372-.464,17.043,17.043,0,0,0-1.52-3.193.9.9,0,0,1-.122-.623l.494-2.934-4.485-4.181-2.889.76a.935.935,0,0,1-.608-.068,17.416,17.416,0,0,0-3.269-1.315.882.882,0,0,1-.494-.342l-2.037-2.927-6.127.228-1.832,3.041a.8.8,0,0,1-.334.319l-.175.076a16.533,16.533,0,0,0-3.162,1.482.867.867,0,0,1-.6.106l-2.934-.54-4.189,4.485.76,2.889a.882.882,0,0,1-.061.608,17.111,17.111,0,0,0-1.277,3.3.889.889,0,0,1-.35.494l-2.942,2.03.213,6.135,3.041,1.824a.867.867,0,0,1,.372.464A17.051,17.051,0,0,0,54.91,93.3a.874.874,0,0,1,.106.6l-.532,2.927,4.485,4.189,2.873-.76a.654.654,0,0,1,.205.015ZM87.133,74.341ZM70.622,96.963a12.923,12.923,0,1,1,.456,0Zm0-24.135h-.4a11.208,11.208,0,1,0,.76,22.4h0a11.206,11.206,0,1,0-.372-22.41Z" transform="translate(-11.511 -46.898)" fill="#ebebeb"/>
    </g>
    <g id="freepik--Website--inject-5" transform="translate(51.874 72.425)">
      <rect id="Rectangle_445" data-name="Rectangle 445" width="275.516" height="184.273" rx="14.81" transform="translate(0.41 0.41)" fill="#fff"/>
      <path id="Path_3800" data-name="Path 3800" d="M435.02,239.314h-.76v-6.842h.76Zm0-12.239h-.76V212.89h.76Z" transform="translate(-156.022 -113.33)" fill="#73bd26"/>
      <path id="Path_3801" data-name="Path 3801" d="M332.909,267.014h-253A11.684,11.684,0,0,1,68.24,255.345V93.589A11.676,11.676,0,0,1,79.909,81.92h253a11.676,11.676,0,0,1,11.669,11.669V255.345A11.684,11.684,0,0,1,332.909,267.014Zm-253-184.273A10.855,10.855,0,0,0,69.061,93.589V255.345a10.855,10.855,0,0,0,10.848,10.848h253a10.855,10.855,0,0,0,10.848-10.848V93.589a10.855,10.855,0,0,0-10.848-10.848Z" transform="translate(-68.24 -81.92)" fill="#73bd26"/>
      <path id="Path_3803" data-name="Path 3803" d="M95.127,96.914A3.634,3.634,0,1,1,91.5,93.28,3.634,3.634,0,0,1,95.127,96.914Z" transform="translate(-72.945 -84.644)" fill="#73bd26"/>
      <path id="Path_3804" data-name="Path 3804" d="M122.474,99.509h-17.8a2.136,2.136,0,0,1-2.128-2.121h0a2.136,2.136,0,0,1,2.128-2.128h17.8a2.136,2.136,0,0,1,2.128,2.128h0A2.136,2.136,0,0,1,122.474,99.509Z" transform="translate(-76.469 -85.119)" fill="#73bd26" opacity="0.2"/>
      <path id="Path_3805" data-name="Path 3805" d="M237.353,98.856h-12.49a1.163,1.163,0,0,1-1.163-1.163h0a1.155,1.155,0,0,1,1.163-1.163h12.49a1.155,1.155,0,0,1,1.163,1.163h0a1.163,1.163,0,0,1-1.163,1.163Z" transform="translate(-105.524 -85.424)" fill="#73bd26" opacity="0.2"/>
      <path id="Path_3806" data-name="Path 3806" d="M274.223,98.856h-12.49a1.171,1.171,0,0,1-1.163-1.163h0a1.163,1.163,0,0,1,1.163-1.163h12.49a1.155,1.155,0,0,1,1.163,1.163h0a1.163,1.163,0,0,1-1.163,1.163Z" transform="translate(-114.366 -85.424)" fill="#73bd26" opacity="0.2"/>
      <path id="Path_3807" data-name="Path 3807" d="M311.1,98.856H298.633a1.171,1.171,0,0,1-1.163-1.163h0a1.163,1.163,0,0,1,1.163-1.163H311.1a1.163,1.163,0,0,1,1.171,1.163h0A1.171,1.171,0,0,1,311.1,98.856Z" transform="translate(-123.216 -85.424)" fill="#73bd26" opacity="0.2"/>
      <path id="Path_3808" data-name="Path 3808" d="M347.97,98.856h-12.5a1.171,1.171,0,0,1-1.163-1.163h0a1.163,1.163,0,0,1,1.163-1.163h12.5a1.163,1.163,0,0,1,1.163,1.163h0a1.171,1.171,0,0,1-1.163,1.163Z" transform="translate(-132.051 -85.424)" fill="#73bd26" opacity="0.2"/>
      <path id="Path_3809" data-name="Path 3809" d="M392.85,99.463h-18.9A2.052,2.052,0,0,1,371.9,97.41h0a2.053,2.053,0,0,1,2.052-2.06h18.9a2.052,2.052,0,0,1,2.052,2.06h0A2.052,2.052,0,0,1,392.85,99.463Z" transform="translate(-141.067 -85.141)" fill="#73bd26" opacity="0.7"/>
      <rect id="Rectangle_446" data-name="Rectangle 446" width="44.151" height="9.707" rx="4.854" transform="translate(29.449 143.395)" fill="#73bd26" opacity="0.7"/>
      <path id="Path_3810" data-name="Path 3810" d="M399.1,201.663V164.7a1.156,1.156,0,0,1,1.163-1.163h0a1.163,1.163,0,0,1,1.163,1.163v36.96a1.163,1.163,0,0,1-1.163,1.163h0a1.155,1.155,0,0,1-1.163-1.163Z" transform="translate(-147.59 -101.495)" fill="#73bd26" opacity="0.2"/>
      <circle id="Ellipse_69" data-name="Ellipse 69" cx="1.163" cy="1.163" r="1.163" transform="translate(251.51 109.548)" fill="#73bd26" opacity="0.2"/>
      <circle id="Ellipse_70" data-name="Ellipse 70" cx="1.163" cy="1.163" r="1.163" transform="translate(251.51 125.983)" fill="#73bd26" opacity="0.2"/>
      <circle id="Ellipse_71" data-name="Ellipse 71" cx="1.163" cy="1.163" r="1.163" transform="translate(251.51 142.418)" fill="#73bd26" opacity="0.2"/>
      <rect id="Rectangle_447" data-name="Rectangle 447" width="108.72" height="18.662" rx="9.331" transform="translate(29.449 46.017)" fill="#73bd26" opacity="0.2"/>
      <path id="Path_3811" data-name="Path 3811" d="M290.068,196.95H233.055a9.358,9.358,0,0,1-9.335-9.335h0a9.358,9.358,0,0,1,9.335-9.335h57.013a9.358,9.358,0,0,1,9.327,9.335h0A9.358,9.358,0,0,1,290.068,196.95Z" transform="translate(-194.256 -105.171)" fill="#73bd26" opacity="0.2"/>
      <path id="Path_3812" data-name="Path 3812" d="M306.787,230.173h-80.9a2.189,2.189,0,0,1-2.182-2.182h0a2.189,2.189,0,0,1,2.182-2.182h80.9a2.189,2.189,0,0,1,2.182,2.182h0a2.189,2.189,0,0,1-2.182,2.182Z" transform="translate(-194.251 -116.57)" fill="#ebebeb"/>
      <path id="Path_3813" data-name="Path 3813" d="M354.75,230.173h-8.278a2.189,2.189,0,0,1-2.182-2.182h0a2.189,2.189,0,0,1,2.182-2.182h8.278a2.189,2.189,0,0,1,2.182,2.182h0a2.189,2.189,0,0,1-2.182,2.182Z" transform="translate(-223.172 -116.57)" fill="#ebebeb"/>
      <path id="Path_3814" data-name="Path 3814" d="M272.782,237.69h34.793a2.189,2.189,0,0,1,2.182,2.182h0a2.189,2.189,0,0,1-2.182,2.182H272.782a2.189,2.189,0,0,1-2.182-2.182h0A2.189,2.189,0,0,1,272.782,237.69Z" transform="translate(-205.499 -119.419)" fill="#ebebeb"/>
      <path id="Path_3815" data-name="Path 3815" d="M225.882,237.69h24.911a2.189,2.189,0,0,1,2.182,2.182h0a2.189,2.189,0,0,1-2.182,2.182H225.882a2.189,2.189,0,0,1-2.182-2.182h0A2.189,2.189,0,0,1,225.882,237.69Z" transform="translate(-194.251 -119.419)" fill="#ebebeb"/>
      <path id="Path_3816" data-name="Path 3816" d="M274.905,253.933H225.882a2.189,2.189,0,0,1-2.182-2.182h0a2.189,2.189,0,0,1,2.182-2.182h49.023a2.189,2.189,0,0,1,2.182,2.182h0A2.189,2.189,0,0,1,274.905,253.933Z" transform="translate(-194.251 -122.268)" fill="#ebebeb"/>
      <path id="Path_3817" data-name="Path 3817" d="M329.44,253.933H304.492a2.189,2.189,0,0,1-2.182-2.182h0a2.189,2.189,0,0,1,2.182-2.182H329.44a2.189,2.189,0,0,1,2.182,2.182h0A2.189,2.189,0,0,1,329.44,253.933Z" transform="translate(-213.104 -122.268)" fill="#ebebeb"/>
    </g>
    <g id="freepik--Plant--inject-5" transform="translate(220.161 113.117)">
      <path id="Path_3877" data-name="Path 3877" d="M333.878,324.124c-1.057-4.12.22-5.686,1.718-7.328a6.754,6.754,0,0,0,1.33-4.386,19.551,19.551,0,0,1,1.642,10.118C337.891,328.016,334.638,327.135,333.878,324.124Z" transform="translate(-322.946 -276.712)" fill="#263238"/>
      <path id="Path_3878" data-name="Path 3878" d="M338.374,369.465c-1.574-2.638-8.278-8.2-13.364-6.013,4.067,1.688,8.552,11.973,14.573,11.539Z" transform="translate(-320.913 -288.834)" fill="#263238"/>
      <path id="Path_3879" data-name="Path 3879" d="M344.466,380.424a.76.76,0,0,1-.692-.547c-.981-4.021-9.669-40.053-13.075-65.633a.76.76,0,0,1,.616-.806.707.707,0,0,1,.806.616c3.39,25.5,12.064,61.475,13.045,65.489a.76.76,0,0,1-.525.867Z" transform="translate(-322.277 -276.957)" fill="#73bd26"/>
      <path id="Path_3880" data-name="Path 3880" d="M329.791,313.9c.091-3.041-1.315-4.873-4.85-5.2s-4.652-1.8-5.321-3.178c1.193,6.948,9.525,8.689,10.331,12.117C329.791,315.068,329.791,313.9,329.791,313.9Z" transform="translate(-319.62 -275.06)" fill="#73bd26"/>
      <path id="Path_3881" data-name="Path 3881" d="M331.993,329.646c-.289-3.162-2.843-3.6-5.754-3.976a4.974,4.974,0,0,1-3.869-2.281,7.389,7.389,0,0,0,2.106,7.336C327.9,334.01,332.206,331.957,331.993,329.646Z" transform="translate(-320.218 -279.346)" fill="#73bd26"/>
      <path id="Path_3882" data-name="Path 3882" d="M341.448,365.136c-.5-3.535,1.923-4.994,1.52-10.186C349.939,366.816,342.239,370.678,341.448,365.136Z" transform="translate(-324.839 -286.915)" fill="#73bd26"/>
      <path id="Path_3883" data-name="Path 3883" d="M334.711,347.3c-1.961-2.987-4.743-2.478-7.891-6.621C329.45,354.173,337.782,351.976,334.711,347.3Z" transform="translate(-321.347 -283.492)" fill="#73bd26"/>
      <path id="Path_3884" data-name="Path 3884" d="M354.04,346.516c.175-4.774-4.249-7.29-7.64-12.056C348.46,343.947,353.766,354,354.04,346.516Z" transform="translate(-326.043 -282.001)" fill="#263238"/>
      <path id="Path_3885" data-name="Path 3885" d="M353.328,369.648h-.068a.836.836,0,0,1-.76-.9c.76-10.027,3.588-53.212,2.805-81.475a.836.836,0,0,1,.813-.859.813.813,0,0,1,.859.813c.76,28.324-2.014,71.608-2.805,81.65a.844.844,0,0,1-.844.775Z" transform="translate(-327.505 -270.476)" fill="#73bd26"/>
      <path id="Path_3886" data-name="Path 3886" d="M356.359,284.515c-1.064-5.785,1.1-9.768,7.815-11.4s8.43-4.819,9.3-7.663c-.258,13.683-15.781,19.5-16.336,26.34C356.7,286.765,356.359,284.515,356.359,284.515Z" transform="translate(-328.369 -265.45)" fill="#73bd26"/>
      <path id="Path_3887" data-name="Path 3887" d="M351.025,300.065c1.072-6.933-4.158-9.228-10.179-11.608s-7.085-6.887-7.085-6.887a16.351,16.351,0,0,0,.578,16.83C339.935,307.2,350.242,305.12,351.025,300.065Z" transform="translate(-322.519 -269.316)" fill="#73bd26"/>
      <path id="Path_3888" data-name="Path 3888" d="M357.06,326.348c1.148-5.5,5.724-5.739,10.908-5.815s7.26-3.162,7.26-3.162a13.1,13.1,0,0,1-5.192,12.452C363.354,334.839,356.239,330.361,357.06,326.348Z" transform="translate(-328.584 -277.902)" fill="#73bd26"/>
      <path id="Path_3889" data-name="Path 3889" d="M355.728,361.166c1.262-3.383,7.822-11.235,14.162-9.791-4.341,2.813-7.343,15.644-14.39,16.427C355.7,362.131,355.728,361.166,355.728,361.166Z" transform="translate(-328.225 -286.015)" fill="#73bd26"/>
      <path id="Path_3890" data-name="Path 3890" d="M356.562,386.15H335.445a1.756,1.756,0,0,0-1.68,2.28l5.724,19.346a1.748,1.748,0,0,0,1.68,1.262h9.707a1.748,1.748,0,0,0,1.68-1.262l5.694-19.369a1.756,1.756,0,0,0-1.688-2.258Z" transform="translate(-322.993 -294.397)" fill="#73bd26"/>
      <path id="Path_3891" data-name="Path 3891" d="M356.562,386.15H335.445a1.756,1.756,0,0,0-1.68,2.28l5.724,19.346a1.748,1.748,0,0,0,1.68,1.262h9.707a1.748,1.748,0,0,0,1.68-1.262l5.694-19.369a1.756,1.756,0,0,0-1.688-2.258Z" transform="translate(-322.993 -294.397)" fill="#73bd26" opacity="0.2"/>
      <path id="Path_3892" data-name="Path 3892" d="M356.562,386.15H335.445a1.756,1.756,0,0,0-1.68,2.28l5.724,19.346a1.748,1.748,0,0,0,1.68,1.262h9.707a1.748,1.748,0,0,0,1.68-1.262l5.694-19.369a1.756,1.756,0,0,0-1.688-2.258Z" transform="translate(-322.993 -294.397)" fill="#fff" opacity="0.7"/>
    </g>
  </g>
</svg>
