<svg xmlns="http://www.w3.org/2000/svg" width="9.603" height="16.036" viewBox="0 0 9.603 16.036">
  <g id="right-arrow_1_" data-name="right-arrow (1)" transform="matrix(-1, 0.017, -0.017, -1, 111.065, 14.103)">
    <g id="Group_2" data-name="Group 2" transform="translate(101.478)">
      <path id="Path_10" data-name="Path 10" d="M110.552,7.319,103.487.254a.87.87,0,0,0-1.228,0l-.52.52a.87.87,0,0,0,0,1.228l5.933,5.933-5.939,5.939a.87.87,0,0,0,0,1.228l.52.52a.87.87,0,0,0,1.228,0l7.072-7.071a.876.876,0,0,0,0-1.233Z" transform="translate(-101.478 0)" fill="#fff"/>
    </g>
  </g>
</svg>
